<?xml version="1.0" encoding="UTF-8" standalone="no"?><!-- Generator: Gravit.io --><svg xmlns="http://www.w3.org/2000/svg" xmlns:xlink="http://www.w3.org/1999/xlink" style="isolation:isolate" viewBox="106.473 116 200 245" width="200pt" height="245pt"><defs><clipPath id="_clipPath_0B9jQLtX5tWGV3urJGityNAQrrOZH7Z3"><rect width="400" height="400"/></clipPath></defs><g clip-path="url(#_clipPath_0B9jQLtX5tWGV3urJGityNAQrrOZH7Z3)"><rect width="400" height="400" style="fill:rgb(255,0,0)" fill-opacity="0"/><g><path d=" M 119.647 184.82 L 106.473 184.82 L 106.473 116 L 119.647 116 L 119.647 184.82 Z  M 170.083 151 L 170.083 151 L 170.083 171.449 L 170.083 171.449 Q 170.279 173.809 170.869 174.743 L 170.869 174.743 L 170.869 174.743 Q 171.459 175.677 173.327 176.07 L 173.327 176.07 L 172.934 186 L 172.934 186 Q 167.92 186 164.921 185.312 L 164.921 185.312 L 164.921 185.312 Q 161.923 184.624 158.875 182.559 L 158.875 182.559 L 158.875 182.559 Q 151.796 186 144.423 186 L 144.423 186 L 144.423 186 Q 129.184 186 129.184 169.876 L 129.184 169.876 L 129.184 169.876 Q 129.184 162.011 133.411 158.718 L 133.411 158.718 L 133.411 158.718 Q 137.639 155.424 146.389 154.834 L 146.389 154.834 L 156.909 154.048 L 156.909 151 L 156.909 151 Q 156.909 147.952 155.532 146.822 L 155.532 146.822 L 155.532 146.822 Q 154.156 145.691 151.108 145.691 L 151.108 145.691 L 132.625 146.478 L 132.232 137.334 L 132.232 137.334 Q 142.751 134.483 152.239 134.483 L 152.239 134.483 L 152.239 134.483 Q 161.726 134.483 165.904 138.416 L 165.904 138.416 L 165.904 138.416 Q 170.083 142.348 170.083 151 Z  M 156.909 163.191 L 147.962 163.978 L 147.962 163.978 Q 142.456 164.469 142.456 169.876 L 142.456 169.876 L 142.456 169.876 Q 142.456 175.284 147.274 175.284 L 147.274 175.284 L 147.274 175.284 Q 151.01 175.284 155.434 174.104 L 155.434 174.104 L 156.909 173.711 L 156.909 163.191 Z  M 195.841 148.051 L 195.841 184.82 L 182.667 184.82 L 182.667 135.663 L 195.743 135.663 L 195.743 138.416 L 195.743 138.416 Q 202.527 134.483 207.344 134.483 L 207.344 134.483 L 207.344 134.483 Q 215.308 134.483 219.633 139.104 L 219.633 139.104 L 219.633 139.104 Q 228.678 134.483 236.15 134.483 L 236.15 134.483 L 236.15 134.483 Q 245.883 134.483 249.669 140.136 L 249.669 140.136 L 249.669 140.136 Q 253.454 145.789 253.454 158.177 L 253.454 158.177 L 253.454 184.82 L 240.279 184.82 L 240.279 158.57 L 240.279 158.57 Q 240.279 152.278 238.903 149.28 L 238.903 149.28 L 238.903 149.28 Q 237.527 146.281 233.397 146.281 L 233.397 146.281 L 233.397 146.281 Q 230.251 146.281 225.729 147.657 L 225.729 147.657 L 224.254 148.149 L 224.254 148.149 Q 224.647 155.522 224.647 159.357 L 224.647 159.357 L 224.647 184.82 L 211.473 184.82 L 211.473 159.553 L 211.473 159.553 Q 211.473 152.278 210.195 149.28 L 210.195 149.28 L 210.195 149.28 Q 208.917 146.281 204.591 146.281 L 204.591 146.281 L 204.591 146.281 Q 200.757 146.281 197.021 147.657 L 197.021 147.657 L 195.841 148.051 Z  M 302.808 151 L 302.808 151 L 302.808 171.449 L 302.808 171.449 Q 303.004 173.809 303.594 174.743 L 303.594 174.743 L 303.594 174.743 Q 304.184 175.677 306.052 176.07 L 306.052 176.07 L 305.659 186 L 305.659 186 Q 300.645 186 297.646 185.312 L 297.646 185.312 L 297.646 185.312 Q 294.647 184.624 291.6 182.559 L 291.6 182.559 L 291.6 182.559 Q 284.521 186 277.147 186 L 277.147 186 L 277.147 186 Q 261.909 186 261.909 169.876 L 261.909 169.876 L 261.909 169.876 Q 261.909 162.011 266.136 158.718 L 266.136 158.718 L 266.136 158.718 Q 270.364 155.424 279.114 154.834 L 279.114 154.834 L 289.633 154.048 L 289.633 151 L 289.633 151 Q 289.633 147.952 288.257 146.822 L 288.257 146.822 L 288.257 146.822 Q 286.881 145.691 283.833 145.691 L 283.833 145.691 L 265.35 146.478 L 264.956 137.334 L 264.956 137.334 Q 275.476 134.483 284.963 134.483 L 284.963 134.483 L 284.963 134.483 Q 294.451 134.483 298.629 138.416 L 298.629 138.416 L 298.629 138.416 Q 302.808 142.348 302.808 151 Z  M 289.633 163.191 L 280.687 163.978 L 280.687 163.978 Q 275.181 164.469 275.181 169.876 L 275.181 169.876 L 275.181 169.876 Q 275.181 175.284 279.999 175.284 L 279.999 175.284 L 279.999 175.284 Q 283.735 175.284 288.159 174.104 L 288.159 174.104 L 289.633 173.711 L 289.633 163.191 Z " fill="rgb(46,46,46)"/><path d=" M 241.232 357.286 L 239.944 357.286 L 239.944 345.711 L 246.869 345.711 L 246.869 346.848 L 241.232 346.848 L 241.232 351.365 L 245.999 351.365 L 245.999 352.502 L 241.232 352.502 L 241.232 357.286 Z  M 249.78 357.286 L 248.525 357.286 L 248.525 348.923 L 249.78 348.923 L 249.78 357.286 Z  M 249.78 347.032 L 248.525 347.032 L 248.525 345.577 L 249.78 345.577 L 249.78 347.032 Z  M 253.443 357.286 L 252.188 357.286 L 252.188 348.923 L 253.426 348.923 L 253.426 350.06 L 253.426 350.06 Q 254.882 349.056 256.487 348.739 L 256.487 348.739 L 256.487 350.01 L 256.487 350.01 Q 255.785 350.144 255.024 350.428 L 255.024 350.428 L 255.024 350.428 Q 254.263 350.713 253.861 350.93 L 253.861 350.93 L 253.443 351.147 L 253.443 357.286 Z  M 263.496 356.249 L 263.496 356.249 L 263.981 356.199 L 264.015 357.186 L 264.015 357.186 Q 262.108 357.454 260.753 357.454 L 260.753 357.454 L 260.753 357.454 Q 258.946 357.454 258.194 356.408 L 258.194 356.408 L 258.194 356.408 Q 257.441 355.363 257.441 353.155 L 257.441 353.155 L 257.441 353.155 Q 257.441 348.755 260.937 348.755 L 260.937 348.755 L 260.937 348.755 Q 262.626 348.755 263.463 349.7 L 263.463 349.7 L 263.463 349.7 Q 264.299 350.646 264.299 352.67 L 264.299 352.67 L 264.232 353.623 L 258.712 353.623 L 258.712 353.623 Q 258.712 355.012 259.214 355.681 L 259.214 355.681 L 259.214 355.681 Q 259.716 356.35 260.962 356.35 L 260.962 356.35 L 260.962 356.35 Q 262.208 356.35 263.496 356.249 Z  M 258.695 352.619 L 263.045 352.619 L 263.045 352.619 Q 263.045 351.08 262.551 350.445 L 262.551 350.445 L 262.551 350.445 Q 262.058 349.809 260.945 349.809 L 260.945 349.809 L 260.945 349.809 Q 259.833 349.809 259.273 350.478 L 259.273 350.478 L 259.273 350.478 Q 258.712 351.147 258.695 352.619 L 258.695 352.619 Z  M 270.288 350.01 L 267.862 350.01 L 267.862 357.286 L 266.608 357.286 L 266.608 350.01 L 265.554 350.01 L 265.554 348.923 L 266.608 348.923 L 266.608 348.17 L 266.608 348.17 Q 266.608 346.397 267.109 345.753 L 267.109 345.753 L 267.109 345.753 Q 267.611 345.109 268.866 345.109 L 268.866 345.109 L 270.555 345.226 L 270.539 346.263 L 270.539 346.263 Q 269.602 346.229 268.991 346.229 L 268.991 346.229 L 268.991 346.229 Q 268.381 346.229 268.121 346.631 L 268.121 346.631 L 268.121 346.631 Q 267.862 347.032 267.862 348.187 L 267.862 348.187 L 267.862 348.923 L 270.288 348.923 L 270.288 350.01 Z  M 271.275 353.088 L 271.275 353.088 L 271.275 353.088 Q 271.275 350.796 272.094 349.776 L 272.094 349.776 L 272.094 349.776 Q 272.914 348.755 274.863 348.755 L 274.863 348.755 L 274.863 348.755 Q 276.812 348.755 277.623 349.776 L 277.623 349.776 L 277.623 349.776 Q 278.434 350.796 278.434 353.088 L 278.434 353.088 L 278.434 353.088 Q 278.434 355.379 277.665 356.417 L 277.665 356.417 L 277.665 356.417 Q 276.895 357.454 274.854 357.454 L 274.854 357.454 L 274.854 357.454 Q 272.814 357.454 272.044 356.417 L 272.044 356.417 L 272.044 356.417 Q 271.275 355.379 271.275 353.088 Z  M 272.563 353.063 L 272.563 353.063 L 272.563 353.063 Q 272.563 354.894 273.006 355.63 L 273.006 355.63 L 273.006 355.63 Q 273.449 356.366 274.863 356.366 L 274.863 356.366 L 274.863 356.366 Q 276.276 356.366 276.711 355.639 L 276.711 355.639 L 276.711 355.639 Q 277.146 354.911 277.146 353.071 L 277.146 353.071 L 277.146 353.071 Q 277.146 351.231 276.661 350.537 L 276.661 350.537 L 276.661 350.537 Q 276.176 349.843 274.863 349.843 L 274.863 349.843 L 274.863 349.843 Q 273.55 349.843 273.056 350.537 L 273.056 350.537 L 273.056 350.537 Q 272.563 351.231 272.563 353.063 Z  M 282.064 353.105 L 279.438 348.923 L 280.809 348.923 L 282.85 352.201 L 284.891 348.923 L 286.263 348.923 L 283.603 353.071 L 286.246 357.286 L 284.874 357.286 L 282.85 354.025 L 280.809 357.286 L 279.438 357.286 L 282.064 353.105 Z  M 227.465 356.249 L 227.465 356.249 L 227.95 356.199 L 227.983 357.186 L 227.983 357.186 Q 226.077 357.454 224.722 357.454 L 224.722 357.454 L 224.722 357.454 Q 222.915 357.454 222.162 356.408 L 222.162 356.408 L 222.162 356.408 Q 221.41 355.363 221.41 353.155 L 221.41 353.155 L 221.41 353.155 Q 221.41 348.755 224.906 348.755 L 224.906 348.755 L 224.906 348.755 Q 226.595 348.755 227.431 349.7 L 227.431 349.7 L 227.431 349.7 Q 228.268 350.646 228.268 352.67 L 228.268 352.67 L 228.201 353.623 L 222.681 353.623 L 222.681 353.623 Q 222.681 355.012 223.183 355.681 L 223.183 355.681 L 223.183 355.681 Q 223.684 356.35 224.931 356.35 L 224.931 356.35 L 224.931 356.35 Q 226.177 356.35 227.465 356.249 Z  M 222.664 352.619 L 227.013 352.619 L 227.013 352.619 Q 227.013 351.08 226.52 350.445 L 226.52 350.445 L 226.52 350.445 Q 226.026 349.809 224.914 349.809 L 224.914 349.809 L 224.914 349.809 Q 223.802 349.809 223.241 350.478 L 223.241 350.478 L 223.241 350.478 Q 222.681 351.147 222.664 352.619 L 222.664 352.619 Z  M 234.507 348.923 L 234.507 350.01 L 231.848 350.01 L 231.848 354.008 L 231.848 354.008 Q 231.848 355.446 232.057 355.898 L 232.057 355.898 L 232.057 355.898 Q 232.266 356.35 233.052 356.35 L 233.052 356.35 L 234.541 356.249 L 234.624 357.286 L 234.624 357.286 Q 233.504 357.47 232.918 357.47 L 232.918 357.47 L 232.918 357.47 Q 231.613 357.47 231.112 356.835 L 231.112 356.835 L 231.112 356.835 Q 230.61 356.199 230.61 354.409 L 230.61 354.409 L 230.61 350.01 L 229.422 350.01 L 229.422 348.923 L 230.61 348.923 L 230.61 346.363 L 231.848 346.363 L 231.848 348.923 L 234.507 348.923 Z  M 170.29 355.998 L 170.34 357.102 L 170.34 357.102 Q 168.617 357.454 167.245 357.454 L 167.245 357.454 L 167.245 357.454 Q 165.874 357.454 165.029 357.077 L 165.029 357.077 L 165.029 357.077 Q 164.184 356.701 163.724 355.906 L 163.724 355.906 L 163.724 355.906 Q 163.264 355.112 163.089 354.083 L 163.089 354.083 L 163.089 354.083 Q 162.913 353.054 162.913 351.515 L 162.913 351.515 L 162.913 351.515 Q 162.913 349.976 163.089 348.931 L 163.089 348.931 L 163.089 348.931 Q 163.264 347.886 163.724 347.083 L 163.724 347.083 L 163.724 347.083 Q 164.184 346.28 165.021 345.912 L 165.021 345.912 L 165.021 345.912 Q 165.857 345.544 167.195 345.544 L 167.195 345.544 L 167.195 345.544 Q 168.533 345.544 170.34 345.912 L 170.34 345.912 L 170.29 346.999 L 170.29 346.999 Q 168.6 346.698 167.279 346.698 L 167.279 346.698 L 167.279 346.698 Q 165.439 346.698 164.845 347.794 L 164.845 347.794 L 164.845 347.794 Q 164.251 348.889 164.251 351.532 L 164.251 351.532 L 164.251 351.532 Q 164.251 352.854 164.36 353.657 L 164.36 353.657 L 164.36 353.657 Q 164.469 354.459 164.786 355.104 L 164.786 355.104 L 164.786 355.104 Q 165.104 355.748 165.715 356.024 L 165.715 356.024 L 165.715 356.024 Q 166.325 356.3 167.505 356.3 L 167.505 356.3 L 167.505 356.3 Q 168.684 356.3 170.29 355.998 L 170.29 355.998 Z  M 173.485 350.378 L 173.485 357.286 L 172.23 357.286 L 172.23 345.276 L 173.485 345.276 L 173.485 349.391 L 173.485 349.391 Q 174.823 348.755 176.061 348.755 L 176.061 348.755 L 176.061 348.755 Q 177.734 348.755 178.311 349.659 L 178.311 349.659 L 178.311 349.659 Q 178.888 350.562 178.888 352.87 L 178.888 352.87 L 178.888 357.286 L 177.633 357.286 L 177.633 352.904 L 177.633 352.904 Q 177.633 351.164 177.29 350.52 L 177.29 350.52 L 177.29 350.52 Q 176.947 349.876 175.843 349.876 L 175.843 349.876 L 175.843 349.876 Q 174.79 349.876 173.803 350.261 L 173.803 350.261 L 173.485 350.378 Z  M 182.468 357.286 L 181.213 357.286 L 181.213 348.923 L 182.451 348.923 L 182.451 350.06 L 182.451 350.06 Q 183.906 349.056 185.512 348.739 L 185.512 348.739 L 185.512 350.01 L 185.512 350.01 Q 184.809 350.144 184.048 350.428 L 184.048 350.428 L 184.048 350.428 Q 183.287 350.713 182.886 350.93 L 182.886 350.93 L 182.468 351.147 L 182.468 357.286 Z  M 186.465 353.088 L 186.465 353.088 L 186.465 353.088 Q 186.465 350.796 187.285 349.776 L 187.285 349.776 L 187.285 349.776 Q 188.105 348.755 190.054 348.755 L 190.054 348.755 L 190.054 348.755 Q 192.002 348.755 192.814 349.776 L 192.814 349.776 L 192.814 349.776 Q 193.625 350.796 193.625 353.088 L 193.625 353.088 L 193.625 353.088 Q 193.625 355.379 192.855 356.417 L 192.855 356.417 L 192.855 356.417 Q 192.086 357.454 190.045 357.454 L 190.045 357.454 L 190.045 357.454 Q 188.004 357.454 187.235 356.417 L 187.235 356.417 L 187.235 356.417 Q 186.465 355.379 186.465 353.088 Z  M 187.753 353.063 L 187.753 353.063 L 187.753 353.063 Q 187.753 354.894 188.197 355.63 L 188.197 355.63 L 188.197 355.63 Q 188.64 356.366 190.054 356.366 L 190.054 356.366 L 190.054 356.366 Q 191.467 356.366 191.902 355.639 L 191.902 355.639 L 191.902 355.639 Q 192.337 354.911 192.337 353.071 L 192.337 353.071 L 192.337 353.071 Q 192.337 351.231 191.852 350.537 L 191.852 350.537 L 191.852 350.537 Q 191.367 349.843 190.054 349.843 L 190.054 349.843 L 190.054 349.843 Q 188.74 349.843 188.247 350.537 L 188.247 350.537 L 188.247 350.537 Q 187.753 351.231 187.753 353.063 Z  M 196.92 350.495 L 196.92 357.286 L 195.666 357.286 L 195.666 348.923 L 196.904 348.923 L 196.904 349.508 L 196.904 349.508 Q 198.158 348.755 199.346 348.755 L 199.346 348.755 L 199.346 348.755 Q 200.901 348.755 201.52 349.608 L 201.52 349.608 L 201.52 349.608 Q 202.072 349.274 202.951 349.015 L 202.951 349.015 L 202.951 349.015 Q 203.829 348.755 204.498 348.755 L 204.498 348.755 L 204.498 348.755 Q 206.171 348.755 206.748 349.65 L 206.748 349.65 L 206.748 349.65 Q 207.325 350.545 207.325 352.87 L 207.325 352.87 L 207.325 357.286 L 206.07 357.286 L 206.07 352.904 L 206.07 352.904 Q 206.07 351.164 205.736 350.52 L 205.736 350.52 L 205.736 350.52 Q 205.401 349.876 204.314 349.876 L 204.314 349.876 L 204.314 349.876 Q 203.762 349.876 203.176 350.035 L 203.176 350.035 L 203.176 350.035 Q 202.591 350.194 202.273 350.344 L 202.273 350.344 L 201.955 350.495 L 201.955 350.495 Q 202.173 351.047 202.173 352.937 L 202.173 352.937 L 202.173 357.286 L 200.918 357.286 L 200.918 352.971 L 200.918 352.971 Q 200.918 351.164 200.592 350.52 L 200.592 350.52 L 200.592 350.52 Q 200.266 349.876 199.162 349.876 L 199.162 349.876 L 199.162 349.876 Q 198.626 349.876 198.066 350.035 L 198.066 350.035 L 198.066 350.035 Q 197.506 350.194 197.205 350.344 L 197.205 350.344 L 196.92 350.495 Z  M 215.337 356.249 L 215.337 356.249 L 215.822 356.199 L 215.856 357.186 L 215.856 357.186 Q 213.949 357.454 212.594 357.454 L 212.594 357.454 L 212.594 357.454 Q 210.787 357.454 210.035 356.408 L 210.035 356.408 L 210.035 356.408 Q 209.282 355.363 209.282 353.155 L 209.282 353.155 L 209.282 353.155 Q 209.282 348.755 212.778 348.755 L 212.778 348.755 L 212.778 348.755 Q 214.468 348.755 215.304 349.7 L 215.304 349.7 L 215.304 349.7 Q 216.14 350.646 216.14 352.67 L 216.14 352.67 L 216.073 353.623 L 210.553 353.623 L 210.553 353.623 Q 210.553 355.012 211.055 355.681 L 211.055 355.681 L 211.055 355.681 Q 211.557 356.35 212.803 356.35 L 212.803 356.35 L 212.803 356.35 Q 214.049 356.35 215.337 356.249 Z  M 210.537 352.619 L 214.886 352.619 L 214.886 352.619 Q 214.886 351.08 214.392 350.445 L 214.392 350.445 L 214.392 350.445 Q 213.899 349.809 212.786 349.809 L 212.786 349.809 L 212.786 349.809 Q 211.674 349.809 211.114 350.478 L 211.114 350.478 L 211.114 350.478 Q 210.553 351.147 210.537 352.619 L 210.537 352.619 Z  M 128.387 361 L 127.132 361 L 127.132 348.923 L 128.37 348.923 L 128.37 349.525 L 128.37 349.525 Q 129.642 348.755 130.879 348.755 L 130.879 348.755 L 130.879 348.755 Q 132.469 348.755 133.188 349.767 L 133.188 349.767 L 133.188 349.767 Q 133.907 350.779 133.907 353.105 L 133.907 353.105 L 133.907 353.105 Q 133.907 355.43 133.062 356.442 L 133.062 356.442 L 133.062 356.442 Q 132.218 357.454 130.261 357.454 L 130.261 357.454 L 130.261 357.454 Q 129.24 357.454 128.387 357.27 L 128.387 357.27 L 128.387 361 Z  M 130.695 349.876 L 130.695 349.876 L 130.695 349.876 Q 130.194 349.876 129.617 350.043 L 129.617 350.043 L 129.617 350.043 Q 129.039 350.211 128.705 350.378 L 128.705 350.378 L 128.387 350.545 L 128.387 356.182 L 128.387 356.182 Q 129.575 356.366 130.194 356.366 L 130.194 356.366 L 130.194 356.366 Q 131.549 356.366 132.092 355.597 L 132.092 355.597 L 132.092 355.597 Q 132.636 354.828 132.636 353.088 L 132.636 353.088 L 132.636 353.088 Q 132.636 351.348 132.142 350.612 L 132.142 350.612 L 132.142 350.612 Q 131.649 349.876 130.695 349.876 Z  M 135.58 353.088 L 135.58 353.088 L 135.58 353.088 Q 135.58 350.796 136.4 349.776 L 136.4 349.776 L 136.4 349.776 Q 137.219 348.755 139.168 348.755 L 139.168 348.755 L 139.168 348.755 Q 141.117 348.755 141.928 349.776 L 141.928 349.776 L 141.928 349.776 Q 142.739 350.796 142.739 353.088 L 142.739 353.088 L 142.739 353.088 Q 142.739 355.379 141.97 356.417 L 141.97 356.417 L 141.97 356.417 Q 141.2 357.454 139.16 357.454 L 139.16 357.454 L 139.16 357.454 Q 137.119 357.454 136.349 356.417 L 136.349 356.417 L 136.349 356.417 Q 135.58 355.379 135.58 353.088 Z  M 136.868 353.063 L 136.868 353.063 L 136.868 353.063 Q 136.868 354.894 137.311 355.63 L 137.311 355.63 L 137.311 355.63 Q 137.755 356.366 139.168 356.366 L 139.168 356.366 L 139.168 356.366 Q 140.581 356.366 141.016 355.639 L 141.016 355.639 L 141.016 355.639 Q 141.451 354.911 141.451 353.071 L 141.451 353.071 L 141.451 353.071 Q 141.451 351.231 140.966 350.537 L 140.966 350.537 L 140.966 350.537 Q 140.481 349.843 139.168 349.843 L 139.168 349.843 L 139.168 349.843 Q 137.855 349.843 137.361 350.537 L 137.361 350.537 L 137.361 350.537 Q 136.868 351.231 136.868 353.063 Z  M 149.999 355.714 L 149.999 348.923 L 151.254 348.923 L 151.254 357.286 L 149.999 357.286 L 149.999 356.701 L 149.999 356.701 Q 148.745 357.454 147.523 357.454 L 147.523 357.454 L 147.523 357.454 Q 145.817 357.454 145.257 356.567 L 145.257 356.567 L 145.257 356.567 Q 144.696 355.681 144.696 353.289 L 144.696 353.289 L 144.696 348.923 L 145.951 348.923 L 145.951 353.272 L 145.951 353.272 Q 145.951 355.095 146.269 355.714 L 146.269 355.714 L 146.269 355.714 Q 146.587 356.333 147.707 356.333 L 147.707 356.333 L 147.707 356.333 Q 148.259 356.333 148.828 356.174 L 148.828 356.174 L 148.828 356.174 Q 149.397 356.015 149.698 355.865 L 149.698 355.865 L 149.999 355.714 Z  M 154.917 357.286 L 153.663 357.286 L 153.663 348.923 L 154.9 348.923 L 154.9 350.06 L 154.9 350.06 Q 156.356 349.056 157.962 348.739 L 157.962 348.739 L 157.962 350.01 L 157.962 350.01 Q 157.259 350.144 156.498 350.428 L 156.498 350.428 L 156.498 350.428 Q 155.737 350.713 155.335 350.93 L 155.335 350.93 L 154.917 351.147 L 154.917 357.286 Z  M 213.481 331.844 L 212.226 331.844 L 212.226 319.833 L 213.481 319.833 L 213.481 331.844 Z  M 217.077 323.982 L 215.956 323.982 L 215.906 320.268 L 217.161 320.268 L 217.077 323.982 Z  M 224.906 330.807 L 224.906 330.807 L 225.391 330.756 L 225.424 331.743 L 225.424 331.743 Q 223.517 332.011 222.162 332.011 L 222.162 332.011 L 222.162 332.011 Q 220.356 332.011 219.603 330.966 L 219.603 330.966 L 219.603 330.966 Q 218.85 329.92 218.85 327.712 L 218.85 327.712 L 218.85 327.712 Q 218.85 323.313 222.346 323.313 L 222.346 323.313 L 222.346 323.313 Q 224.036 323.313 224.872 324.258 L 224.872 324.258 L 224.872 324.258 Q 225.709 325.203 225.709 327.227 L 225.709 327.227 L 225.642 328.18 L 220.121 328.18 L 220.121 328.18 Q 220.121 329.569 220.623 330.238 L 220.623 330.238 L 220.623 330.238 Q 221.125 330.907 222.371 330.907 L 222.371 330.907 L 222.371 330.907 Q 223.618 330.907 224.906 330.807 Z  M 220.105 327.177 L 224.454 327.177 L 224.454 327.177 Q 224.454 325.638 223.96 325.002 L 223.96 325.002 L 223.96 325.002 Q 223.467 324.366 222.355 324.366 L 222.355 324.366 L 222.355 324.366 Q 221.242 324.366 220.682 325.036 L 220.682 325.036 L 220.682 325.036 Q 220.121 325.705 220.105 327.177 L 220.105 327.177 Z  M 229.389 327.662 L 226.762 323.48 L 228.134 323.48 L 230.175 326.759 L 232.216 323.48 L 233.587 323.48 L 230.928 327.628 L 233.571 331.844 L 232.199 331.844 L 230.175 328.582 L 228.134 331.844 L 226.762 331.844 L 229.389 327.662 Z  M 239.492 323.48 L 239.492 324.567 L 236.832 324.567 L 236.832 328.565 L 236.832 328.565 Q 236.832 330.004 237.042 330.455 L 237.042 330.455 L 237.042 330.455 Q 237.251 330.907 238.037 330.907 L 238.037 330.907 L 239.526 330.807 L 239.609 331.844 L 239.609 331.844 Q 238.488 332.028 237.903 332.028 L 237.903 332.028 L 237.903 332.028 Q 236.598 332.028 236.096 331.392 L 236.096 331.392 L 236.096 331.392 Q 235.595 330.756 235.595 328.967 L 235.595 328.967 L 235.595 324.567 L 234.407 324.567 L 234.407 323.48 L 235.595 323.48 L 235.595 320.921 L 236.832 320.921 L 236.832 323.48 L 239.492 323.48 Z  M 246.718 330.807 L 246.718 330.807 L 247.204 330.756 L 247.237 331.743 L 247.237 331.743 Q 245.33 332.011 243.975 332.011 L 243.975 332.011 L 243.975 332.011 Q 242.169 332.011 241.416 330.966 L 241.416 330.966 L 241.416 330.966 Q 240.663 329.92 240.663 327.712 L 240.663 327.712 L 240.663 327.712 Q 240.663 323.313 244.159 323.313 L 244.159 323.313 L 244.159 323.313 Q 245.849 323.313 246.685 324.258 L 246.685 324.258 L 246.685 324.258 Q 247.521 325.203 247.521 327.227 L 247.521 327.227 L 247.454 328.18 L 241.934 328.18 L 241.934 328.18 Q 241.934 329.569 242.436 330.238 L 242.436 330.238 L 242.436 330.238 Q 242.938 330.907 244.184 330.907 L 244.184 330.907 L 244.184 330.907 Q 245.43 330.907 246.718 330.807 Z  M 241.918 327.177 L 246.267 327.177 L 246.267 327.177 Q 246.267 325.638 245.773 325.002 L 245.773 325.002 L 245.773 325.002 Q 245.28 324.366 244.167 324.366 L 244.167 324.366 L 244.167 324.366 Q 243.055 324.366 242.495 325.036 L 242.495 325.036 L 242.495 325.036 Q 241.934 325.705 241.918 327.177 L 241.918 327.177 Z  M 250.733 325.052 L 250.733 331.844 L 249.479 331.844 L 249.479 323.48 L 250.716 323.48 L 250.716 324.065 L 250.716 324.065 Q 252.071 323.313 253.309 323.313 L 253.309 323.313 L 253.309 323.313 Q 254.982 323.313 255.559 324.216 L 255.559 324.216 L 255.559 324.216 Q 256.136 325.119 256.136 327.428 L 256.136 327.428 L 256.136 331.844 L 254.898 331.844 L 254.898 327.461 L 254.898 327.461 Q 254.898 325.721 254.555 325.077 L 254.555 325.077 L 254.555 325.077 Q 254.212 324.433 253.092 324.433 L 253.092 324.433 L 253.092 324.433 Q 252.556 324.433 251.963 324.592 L 251.963 324.592 L 251.963 324.592 Q 251.369 324.751 251.051 324.902 L 251.051 324.902 L 250.733 325.052 Z  M 261.088 324.433 L 261.088 324.433 L 261.088 324.433 Q 259.264 324.433 259.264 325.705 L 259.264 325.705 L 259.264 325.705 Q 259.264 326.29 259.682 326.533 L 259.682 326.533 L 259.682 326.533 Q 260.101 326.775 261.589 327.034 L 261.589 327.034 L 261.589 327.034 Q 263.078 327.294 263.697 327.762 L 263.697 327.762 L 263.697 327.762 Q 264.316 328.231 264.316 329.519 L 264.316 329.519 L 264.316 329.519 Q 264.316 330.807 263.488 331.409 L 263.488 331.409 L 263.488 331.409 Q 262.66 332.011 261.071 332.011 L 261.071 332.011 L 261.071 332.011 Q 260.034 332.011 258.629 331.777 L 258.629 331.777 L 258.127 331.693 L 258.194 330.606 L 258.194 330.606 Q 260.101 330.89 261.071 330.89 L 261.071 330.89 L 261.071 330.89 Q 262.041 330.89 262.551 330.581 L 262.551 330.581 L 262.551 330.581 Q 263.061 330.271 263.061 329.544 L 263.061 329.544 L 263.061 329.544 Q 263.061 328.816 262.626 328.557 L 262.626 328.557 L 262.626 328.557 Q 262.192 328.297 260.72 328.063 L 260.72 328.063 L 260.72 328.063 Q 259.247 327.829 258.629 327.377 L 258.629 327.377 L 258.629 327.377 Q 258.01 326.926 258.01 325.705 L 258.01 325.705 L 258.01 325.705 Q 258.01 324.484 258.871 323.898 L 258.871 323.898 L 258.871 323.898 Q 259.733 323.313 261.021 323.313 L 261.021 323.313 L 261.021 323.313 Q 262.041 323.313 263.58 323.547 L 263.58 323.547 L 264.048 323.63 L 264.015 324.701 L 264.015 324.701 Q 262.158 324.433 261.088 324.433 Z  M 267.494 331.844 L 266.24 331.844 L 266.24 323.48 L 267.494 323.48 L 267.494 331.844 Z  M 267.494 321.59 L 266.24 321.59 L 266.24 320.134 L 267.494 320.134 L 267.494 321.59 Z  M 269.535 327.645 L 269.535 327.645 L 269.535 327.645 Q 269.535 325.353 270.355 324.333 L 270.355 324.333 L 270.355 324.333 Q 271.174 323.313 273.123 323.313 L 273.123 323.313 L 273.123 323.313 Q 275.072 323.313 275.883 324.333 L 275.883 324.333 L 275.883 324.333 Q 276.694 325.353 276.694 327.645 L 276.694 327.645 L 276.694 327.645 Q 276.694 329.937 275.925 330.974 L 275.925 330.974 L 275.925 330.974 Q 275.155 332.011 273.115 332.011 L 273.115 332.011 L 273.115 332.011 Q 271.074 332.011 270.304 330.974 L 270.304 330.974 L 270.304 330.974 Q 269.535 329.937 269.535 327.645 Z  M 270.823 327.62 L 270.823 327.62 L 270.823 327.62 Q 270.823 329.452 271.266 330.188 L 271.266 330.188 L 271.266 330.188 Q 271.71 330.924 273.123 330.924 L 273.123 330.924 L 273.123 330.924 Q 274.537 330.924 274.971 330.196 L 274.971 330.196 L 274.971 330.196 Q 275.406 329.468 275.406 327.628 L 275.406 327.628 L 275.406 327.628 Q 275.406 325.788 274.921 325.094 L 274.921 325.094 L 274.921 325.094 Q 274.436 324.4 273.123 324.4 L 273.123 324.4 L 273.123 324.4 Q 271.81 324.4 271.316 325.094 L 271.316 325.094 L 271.316 325.094 Q 270.823 325.788 270.823 327.62 Z  M 279.99 325.052 L 279.99 331.844 L 278.735 331.844 L 278.735 323.48 L 279.973 323.48 L 279.973 324.065 L 279.973 324.065 Q 281.328 323.313 282.566 323.313 L 282.566 323.313 L 282.566 323.313 Q 284.239 323.313 284.816 324.216 L 284.816 324.216 L 284.816 324.216 Q 285.393 325.119 285.393 327.428 L 285.393 327.428 L 285.393 331.844 L 284.155 331.844 L 284.155 327.461 L 284.155 327.461 Q 284.155 325.721 283.812 325.077 L 283.812 325.077 L 283.812 325.077 Q 283.469 324.433 282.348 324.433 L 282.348 324.433 L 282.348 324.433 Q 281.813 324.433 281.219 324.592 L 281.219 324.592 L 281.219 324.592 Q 280.625 324.751 280.308 324.902 L 280.308 324.902 L 279.99 325.052 Z  M 129.826 321.422 L 126.263 321.422 L 126.263 320.268 L 134.626 320.268 L 134.626 321.422 L 131.097 321.422 L 131.097 331.844 L 129.826 331.844 L 129.826 321.422 Z  M 140.213 330.807 L 140.213 330.807 L 140.699 330.756 L 140.732 331.743 L 140.732 331.743 Q 138.825 332.011 137.47 332.011 L 137.47 332.011 L 137.47 332.011 Q 135.664 332.011 134.911 330.966 L 134.911 330.966 L 134.911 330.966 Q 134.158 329.92 134.158 327.712 L 134.158 327.712 L 134.158 327.712 Q 134.158 323.313 137.654 323.313 L 137.654 323.313 L 137.654 323.313 Q 139.344 323.313 140.18 324.258 L 140.18 324.258 L 140.18 324.258 Q 141.016 325.203 141.016 327.227 L 141.016 327.227 L 140.95 328.18 L 135.429 328.18 L 135.429 328.18 Q 135.429 329.569 135.931 330.238 L 135.931 330.238 L 135.931 330.238 Q 136.433 330.907 137.679 330.907 L 137.679 330.907 L 137.679 330.907 Q 138.925 330.907 140.213 330.807 Z  M 135.413 327.177 L 139.762 327.177 L 139.762 327.177 Q 139.762 325.638 139.268 325.002 L 139.268 325.002 L 139.268 325.002 Q 138.775 324.366 137.663 324.366 L 137.663 324.366 L 137.663 324.366 Q 136.55 324.366 135.99 325.036 L 135.99 325.036 L 135.99 325.036 Q 135.429 325.705 135.413 327.177 L 135.413 327.177 Z  M 136.098 321.958 L 135.747 321.105 L 139.36 319.465 L 139.795 320.536 L 136.098 321.958 Z  M 144.328 331.844 L 143.074 331.844 L 143.074 319.833 L 144.328 319.833 L 144.328 331.844 Z  M 152.525 330.807 L 152.525 330.807 L 153.01 330.756 L 153.044 331.743 L 153.044 331.743 Q 151.137 332.011 149.782 332.011 L 149.782 332.011 L 149.782 332.011 Q 147.975 332.011 147.222 330.966 L 147.222 330.966 L 147.222 330.966 Q 146.47 329.92 146.47 327.712 L 146.47 327.712 L 146.47 327.712 Q 146.47 323.313 149.966 323.313 L 149.966 323.313 L 149.966 323.313 Q 151.655 323.313 152.492 324.258 L 152.492 324.258 L 152.492 324.258 Q 153.328 325.203 153.328 327.227 L 153.328 327.227 L 153.261 328.18 L 147.741 328.18 L 147.741 328.18 Q 147.741 329.569 148.243 330.238 L 148.243 330.238 L 148.243 330.238 Q 148.745 330.907 149.991 330.907 L 149.991 330.907 L 149.991 330.907 Q 151.237 330.907 152.525 330.807 Z  M 147.724 327.177 L 152.073 327.177 L 152.073 327.177 Q 152.073 325.638 151.58 325.002 L 151.58 325.002 L 151.58 325.002 Q 151.086 324.366 149.974 324.366 L 149.974 324.366 L 149.974 324.366 Q 148.862 324.366 148.301 325.036 L 148.301 325.036 L 148.301 325.036 Q 147.741 325.705 147.724 327.177 L 147.724 327.177 Z  M 148.41 321.958 L 148.059 321.105 L 151.672 319.465 L 152.107 320.536 L 148.41 321.958 Z  M 158.413 323.313 L 158.413 323.313 L 158.413 323.313 Q 158.965 323.313 160.287 323.513 L 160.287 323.513 L 160.688 323.564 L 160.638 324.584 L 160.638 324.584 Q 159.3 324.433 158.664 324.433 L 158.664 324.433 L 158.664 324.433 Q 157.242 324.433 156.732 325.111 L 156.732 325.111 L 156.732 325.111 Q 156.222 325.788 156.222 327.62 L 156.222 327.62 L 156.222 327.62 Q 156.222 329.452 156.699 330.171 L 156.699 330.171 L 156.699 330.171 Q 157.175 330.89 158.681 330.89 L 158.681 330.89 L 160.655 330.74 L 160.705 331.777 L 160.705 331.777 Q 159.149 332.011 158.38 332.011 L 158.38 332.011 L 158.38 332.011 Q 156.423 332.011 155.678 331.007 L 155.678 331.007 L 155.678 331.007 Q 154.934 330.004 154.934 327.62 L 154.934 327.62 L 154.934 327.62 Q 154.934 325.236 155.737 324.274 L 155.737 324.274 L 155.737 324.274 Q 156.54 323.313 158.413 323.313 Z  M 163.833 324.935 L 163.833 331.844 L 162.578 331.844 L 162.578 319.833 L 163.833 319.833 L 163.833 323.948 L 163.833 323.948 Q 165.171 323.313 166.409 323.313 L 166.409 323.313 L 166.409 323.313 Q 168.082 323.313 168.659 324.216 L 168.659 324.216 L 168.659 324.216 Q 169.236 325.119 169.236 327.428 L 169.236 327.428 L 169.236 331.844 L 167.981 331.844 L 167.981 327.461 L 167.981 327.461 Q 167.981 325.721 167.638 325.077 L 167.638 325.077 L 167.638 325.077 Q 167.296 324.433 166.192 324.433 L 166.192 324.433 L 166.192 324.433 Q 165.138 324.433 164.151 324.818 L 164.151 324.818 L 163.833 324.935 Z  M 177.466 326.006 L 177.466 326.006 L 177.466 330.288 L 177.466 330.288 Q 177.516 330.907 178.436 331.024 L 178.436 331.024 L 178.386 332.011 L 178.386 332.011 Q 177.065 332.011 176.395 331.342 L 176.395 331.342 L 176.395 331.342 Q 174.89 332.011 173.384 332.011 L 173.384 332.011 L 173.384 332.011 Q 172.23 332.011 171.628 331.359 L 171.628 331.359 L 171.628 331.359 Q 171.026 330.706 171.026 329.485 L 171.026 329.485 L 171.026 329.485 Q 171.026 328.264 171.645 327.687 L 171.645 327.687 L 171.645 327.687 Q 172.264 327.11 173.585 326.976 L 173.585 326.976 L 176.211 326.725 L 176.211 326.006 L 176.211 326.006 Q 176.211 325.153 175.843 324.785 L 175.843 324.785 L 175.843 324.785 Q 175.475 324.417 174.84 324.417 L 174.84 324.417 L 174.84 324.417 Q 173.502 324.417 172.063 324.584 L 172.063 324.584 L 171.544 324.634 L 171.494 323.681 L 171.494 323.681 Q 173.334 323.313 174.756 323.313 L 174.756 323.313 L 174.756 323.313 Q 176.178 323.313 176.822 323.965 L 176.822 323.965 L 176.822 323.965 Q 177.466 324.617 177.466 326.006 Z  M 172.314 329.418 L 172.314 329.418 L 172.314 329.418 Q 172.314 330.957 173.585 330.957 L 173.585 330.957 L 173.585 330.957 Q 174.723 330.957 175.827 330.572 L 175.827 330.572 L 176.211 330.439 L 176.211 327.679 L 173.736 327.913 L 173.736 327.913 Q 172.983 327.98 172.648 328.348 L 172.648 328.348 L 172.648 328.348 Q 172.314 328.716 172.314 329.418 Z  M 181.196 331.844 L 179.942 331.844 L 179.942 323.48 L 181.18 323.48 L 181.18 324.617 L 181.18 324.617 Q 182.635 323.614 184.241 323.296 L 184.241 323.296 L 184.241 324.567 L 184.241 324.567 Q 183.538 324.701 182.777 324.985 L 182.777 324.985 L 182.777 324.985 Q 182.016 325.27 181.614 325.487 L 181.614 325.487 L 181.196 325.705 L 181.196 331.844 Z  M 188.841 335.775 L 188.841 335.775 L 188.841 335.775 Q 186.833 335.775 186.039 335.231 L 186.039 335.231 L 186.039 335.231 Q 185.244 334.687 185.244 333.249 L 185.244 333.249 L 185.244 333.249 Q 185.244 332.563 185.545 332.136 L 185.545 332.136 L 185.545 332.136 Q 185.847 331.71 186.566 331.175 L 186.566 331.175 L 186.566 331.175 Q 186.097 330.857 186.097 330.02 L 186.097 330.02 L 186.097 330.02 Q 186.097 329.736 186.516 328.967 L 186.516 328.967 L 186.666 328.699 L 186.666 328.699 Q 185.345 328.097 185.345 326.173 L 185.345 326.173 L 185.345 326.173 Q 185.345 323.313 188.473 323.313 L 188.473 323.313 L 188.473 323.313 Q 189.276 323.313 189.962 323.48 L 189.962 323.48 L 190.212 323.53 L 192.688 323.463 L 192.688 324.534 L 191.099 324.5 L 191.099 324.5 Q 191.651 325.052 191.651 326.173 L 191.651 326.173 L 191.651 326.173 Q 191.651 327.745 190.873 328.373 L 190.873 328.373 L 190.873 328.373 Q 190.095 329 188.423 329 L 188.423 329 L 188.423 329 Q 187.971 329 187.603 328.933 L 187.603 328.933 L 187.603 328.933 Q 187.302 329.669 187.302 329.887 L 187.302 329.887 L 187.302 329.887 Q 187.302 330.405 187.62 330.531 L 187.62 330.531 L 187.62 330.531 Q 187.937 330.656 189.543 330.656 L 189.543 330.656 L 189.543 330.656 Q 191.149 330.656 191.852 331.158 L 191.852 331.158 L 191.852 331.158 Q 192.554 331.66 192.554 333.115 L 192.554 333.115 L 192.554 333.115 Q 192.554 335.775 188.841 335.775 Z  M 186.482 333.148 L 186.482 333.148 L 186.482 333.148 Q 186.482 334.035 186.976 334.378 L 186.976 334.378 L 186.976 334.378 Q 187.469 334.721 188.799 334.721 L 188.799 334.721 L 188.799 334.721 Q 190.129 334.721 190.706 334.353 L 190.706 334.353 L 190.706 334.353 Q 191.283 333.985 191.283 333.123 L 191.283 333.123 L 191.283 333.123 Q 191.283 332.262 190.865 332.011 L 190.865 332.011 L 190.865 332.011 Q 190.447 331.76 189.226 331.76 L 189.226 331.76 L 187.419 331.676 L 187.419 331.676 Q 186.867 332.078 186.675 332.379 L 186.675 332.379 L 186.675 332.379 Q 186.482 332.68 186.482 333.148 Z  M 186.599 326.173 L 186.599 326.173 L 186.599 326.173 Q 186.599 327.16 187.043 327.578 L 187.043 327.578 L 187.043 327.578 Q 187.486 327.996 188.506 327.996 L 188.506 327.996 L 188.506 327.996 Q 189.527 327.996 189.962 327.578 L 189.962 327.578 L 189.962 327.578 Q 190.396 327.16 190.396 326.165 L 190.396 326.165 L 190.396 326.165 Q 190.396 325.169 189.962 324.751 L 189.962 324.751 L 189.962 324.751 Q 189.527 324.333 188.506 324.333 L 188.506 324.333 L 188.506 324.333 Q 187.486 324.333 187.043 324.76 L 187.043 324.76 L 187.043 324.76 Q 186.599 325.186 186.599 326.173 Z  M 199.898 330.807 L 199.898 330.807 L 200.383 330.756 L 200.416 331.743 L 200.416 331.743 Q 198.509 332.011 197.154 332.011 L 197.154 332.011 L 197.154 332.011 Q 195.348 332.011 194.595 330.966 L 194.595 330.966 L 194.595 330.966 Q 193.842 329.92 193.842 327.712 L 193.842 327.712 L 193.842 327.712 Q 193.842 323.313 197.338 323.313 L 197.338 323.313 L 197.338 323.313 Q 199.028 323.313 199.864 324.258 L 199.864 324.258 L 199.864 324.258 Q 200.701 325.203 200.701 327.227 L 200.701 327.227 L 200.634 328.18 L 195.114 328.18 L 195.114 328.18 Q 195.114 329.569 195.615 330.238 L 195.615 330.238 L 195.615 330.238 Q 196.117 330.907 197.364 330.907 L 197.364 330.907 L 197.364 330.907 Q 198.61 330.907 199.898 330.807 Z  M 195.097 327.177 L 199.446 327.177 L 199.446 327.177 Q 199.446 325.638 198.953 325.002 L 198.953 325.002 L 198.953 325.002 Q 198.459 324.366 197.347 324.366 L 197.347 324.366 L 197.347 324.366 Q 196.234 324.366 195.674 325.036 L 195.674 325.036 L 195.674 325.036 Q 195.114 325.705 195.097 327.177 L 195.097 327.177 Z  M 203.912 331.844 L 202.658 331.844 L 202.658 323.48 L 203.896 323.48 L 203.896 324.617 L 203.896 324.617 Q 205.351 323.614 206.957 323.296 L 206.957 323.296 L 206.957 324.567 L 206.957 324.567 Q 206.254 324.701 205.493 324.985 L 205.493 324.985 L 205.493 324.985 Q 204.732 325.27 204.331 325.487 L 204.331 325.487 L 203.912 325.705 L 203.912 331.844 Z " fill="rgb(46,46,46)"/><g><path d=" M 289.343 240.707 C 287.869 237.16 284.879 233.33 282.537 232.12 C 284.207 235.354 285.366 238.828 285.973 242.417 L 285.979 242.474 C 282.143 232.911 275.639 229.055 270.326 220.659 C 270.058 220.234 269.789 219.809 269.527 219.36 C 269.377 219.103 269.258 218.872 269.153 218.659 C 268.933 218.233 268.763 217.782 268.647 217.316 C 268.648 217.271 268.615 217.234 268.57 217.228 C 268.549 217.223 268.527 217.223 268.507 217.228 C 268.502 217.228 268.495 217.236 268.49 217.238 C 268.485 217.24 268.473 217.248 268.465 217.251 L 268.478 217.228 C 259.957 222.218 257.066 231.454 256.8 236.074 C 253.397 236.308 250.143 237.562 247.463 239.673 C 247.184 239.436 246.891 239.215 246.588 239.009 C 245.815 236.304 245.782 233.44 246.493 230.717 C 243.363 232.233 240.582 234.382 238.326 237.029 L 238.311 237.029 C 236.966 235.324 237.061 229.705 237.138 228.531 C 236.74 228.691 236.36 228.892 236.005 229.132 C 234.818 229.979 233.709 230.93 232.689 231.973 C 231.528 233.15 230.467 234.423 229.518 235.778 L 229.518 235.783 L 229.518 235.777 C 227.337 238.869 225.79 242.363 224.966 246.056 L 224.921 246.28 C 224.857 246.579 224.626 248.074 224.587 248.398 C 224.587 248.424 224.582 248.447 224.579 248.473 C 224.282 250.016 224.098 251.579 224.029 253.15 L 224.029 253.325 C 224.044 270.935 237.53 285.606 255.077 287.1 C 272.623 288.594 288.396 276.416 291.39 259.062 C 291.447 258.624 291.493 258.191 291.544 257.749 C 292.243 251.973 291.486 246.115 289.343 240.707 L 289.343 240.707 Z  M 250.242 267.263 C 250.4 267.339 250.549 267.421 250.712 267.494 L 250.735 267.509 Q 250.488 267.391 250.242 267.263 Z  M 285.982 242.482 L 285.982 242.45 L 285.988 242.485 L 285.982 242.482 Z " fill="rgb(46,46,46)"/><path d=" M 258.014 246.801 C 257.958 247.645 254.976 250.555 253.934 250.555 C 244.287 250.555 242.721 256.391 242.721 256.391 C 243.148 261.305 246.572 265.353 250.712 267.494 C 250.901 267.592 251.092 267.68 251.284 267.767 Q 251.782 267.988 252.28 268.175 C 253.701 268.678 255.189 268.965 256.695 269.027 C 273.604 269.82 276.879 248.806 264.677 242.709 C 267.555 242.334 270.471 243.042 272.857 244.695 C 269.822 239.34 264.147 236.025 257.992 236.014 C 257.589 236.014 257.195 236.047 256.8 236.074 C 253.397 236.308 250.143 237.562 247.463 239.673 C 247.981 240.111 248.564 240.695 249.794 241.908 C 252.096 244.176 258.001 246.525 258.014 246.801 Z " fill="rgb(255,255,255)"/></g><g><circle vector-effect="non-scaling-stroke" cx="155.7166253324992" cy="252.23628467064674" r="34.987714352790796" fill="rgb(255,255,255)"/><path d=" M 139.281 246.781 L 128.503 230.218 C 135.218 221.866 145.291 217.267 155.59 217.225 C 161.558 217.183 167.653 218.706 173.197 221.909 C 179.32 225.464 183.976 230.571 186.938 236.44 L 157.974 234.916 C 149.778 234.437 141.976 239.05 139.281 246.781 Z  M 143.923 252.213 C 143.923 258.731 149.199 264.008 155.717 264.008 C 162.235 264.008 167.512 258.731 167.512 252.213 C 167.512 245.695 162.235 240.419 155.717 240.419 C 149.199 240.419 143.923 245.681 143.923 252.213 L 143.923 252.213 Z  M 188.349 239.629 L 168.64 240.644 C 173.987 246.894 174.072 255.909 169.571 262.822 L 153.756 287.145 C 160.316 287.498 167.074 286.059 173.197 282.503 C 188.349 273.756 194.486 255.416 188.349 239.629 L 188.349 239.629 Z  M 139.592 258.929 L 126.429 233.04 C 122.831 238.542 120.729 245.145 120.729 252.213 C 120.729 269.707 133.539 284.196 150.286 286.764 L 159.272 269.157 C 151.146 270.681 143.302 266.222 139.592 258.929 L 139.592 258.929 Z " fill="rgb(46,46,46)"/></g></g></g></svg>