<?xml version="1.0" encoding="UTF-8" standalone="no"?><!-- Generator: Gravit.io --><svg xmlns="http://www.w3.org/2000/svg" xmlns:xlink="http://www.w3.org/1999/xlink" style="isolation:isolate" viewBox="0 0 202 313" width="202pt" height="313pt"><defs><clipPath id="_clipPath_4nymSRaefMhQwEeMnwHuIKwA0m4l6Qq7"><rect x="0" y="0" width="202.251" height="313.28"/></clipPath></defs><g clip-path="url(#_clipPath_4nymSRaefMhQwEeMnwHuIKwA0m4l6Qq7)"><g><g><path d=" M 61.201 118.08 C 53.841 118.08 48.081 124.16 48.081 131.2 C 48.081 138.56 54.161 144.32 61.201 144.32 C 68.561 144.32 74.321 138.24 74.321 131.2 C 74.641 123.84 68.561 118.08 61.201 118.08 Z " fill="rgb(255,255,255)"/><path d=" M 139.601 118.08 C 132.241 118.08 126.481 124.16 126.481 131.2 C 126.481 138.56 132.561 144.32 139.601 144.32 C 146.961 144.32 152.721 138.24 152.721 131.2 C 153.041 123.84 146.961 118.08 139.601 118.08 Z " fill="rgb(255,255,255)"/><path d=" M 194.321 175.36 C 194.321 154.88 192.721 135.04 186.001 118.4 C 204.241 74.88 207.441 38.08 194.001 16.96 C 186.961 5.76 176.081 0 162.321 0 C 161.041 0 159.441 0.32 157.521 0.64 L 157.521 0.32 C 144.401 5.12 127.121 34.88 121.681 74.24 C 114.961 73.28 107.921 72.96 100.241 72.96 C 92.241 72.96 84.881 73.28 78.161 74.24 C 74.321 47.04 64.721 24.32 55.121 11.52 C 54.161 9.92 53.521 8.32 52.241 7.04 C 49.041 2.88 45.521 0.96 42.321 0.32 C 42.321 0.32 42.321 0.32 42.321 0.32 L 42.321 0.32 C 41.041 0 39.761 0 38.801 0 C 26.961 0 16.401 6.4 9.361 17.92 C -1.839 35.84 -5.999 71.36 14.161 117.44 C 7.121 134.4 5.201 154.56 5.201 175.36 L 5.201 182.72 C 5.201 221.12 5.201 249.28 34.001 263.68 C 37.841 272.96 46.481 280.64 57.361 283.52 C 60.561 300.48 78.801 313.28 100.881 313.28 C 122.961 313.28 141.521 300.16 144.401 282.88 C 154.641 279.36 162.641 272.32 166.161 263.36 C 194.961 248.64 194.961 220.8 194.961 182.08 L 194.321 175.36 Z  M 183.121 24 C 193.041 39.36 190.801 69.44 178.001 103.68 C 172.561 95.68 164.881 89.28 155.281 84.16 C 148.881 51.84 151.761 24 158.481 15.36 C 160.081 13.12 161.361 13.12 162.001 13.12 C 171.281 13.12 178.321 16.64 183.121 24 Z  M 19.921 24.64 C 23.121 19.2 28.881 13.12 38.161 13.12 C 39.761 14.08 41.681 15.68 43.601 18.56 C 49.041 29.44 50.961 54.72 45.201 83.52 C 35.281 88.64 27.601 95.36 21.841 103.04 C 8.081 65.92 11.601 38.08 19.921 24.64 Z  M 100.561 300.8 C 86.801 300.8 74.961 294.4 70.801 285.44 C 82.961 284.8 93.521 279.68 99.921 271.36 C 106.321 279.68 117.521 285.12 130.001 285.44 C 125.841 294.4 114.321 300.8 100.561 300.8 Z  M 130.641 272.64 C 117.201 272.64 106.641 264 106.641 253.44 L 106.641 253.44 L 106.641 253.44 L 106.641 238.72 C 121.041 235.84 131.281 224.32 131.281 209.92 L 118.481 209.92 C 118.481 219.52 110.481 226.56 99.601 226.56 C 88.721 226.56 80.721 219.52 80.721 209.92 L 67.921 209.92 C 67.921 224.96 78.801 236.8 94.161 239.04 L 94.161 254.08 C 93.841 264.32 82.961 272.64 69.521 272.64 C 56.081 272.64 44.881 264 44.881 253.44 L 44.881 223.68 C 44.881 193.28 69.521 168.64 99.921 168.64 C 130.321 168.64 154.961 193.28 154.961 223.68 L 154.961 253.44 C 154.961 264.32 144.081 272.64 130.641 272.64 Z  M 167.761 223.68 C 167.761 186.24 137.361 155.84 99.921 155.84 C 62.481 155.84 32.081 186.24 32.081 223.68 C 32.081 223.68 18.001 216.32 18.321 182.72 L 18.321 175.04 C 18.321 109.76 40.401 85.44 100.241 85.44 C 159.761 85.44 182.161 109.76 182.161 175.04 L 182.161 182.72 C 181.521 216.32 167.761 223.68 167.761 223.68 Z " fill="rgb(255,255,255)"/></g></g></g></svg>