<?xml version="1.0" encoding="UTF-8" standalone="no"?><!-- Generator: Gravit.io --><svg xmlns="http://www.w3.org/2000/svg" xmlns:xlink="http://www.w3.org/1999/xlink" style="isolation:isolate" viewBox="280 6.936 90 140" width="90pt" height="140pt"><defs><clipPath id="_clipPath_D76klDnOgdI4uZzPX8joskZJRXFSUuNJ"><rect width="400" height="400"/></clipPath></defs><g clip-path="url(#_clipPath_D76klDnOgdI4uZzPX8joskZJRXFSUuNJ)"><rect width="400" height="400" style="fill:rgb(255,0,0)" fill-opacity="0"/><g><path d=" M 156.538 189.376 L 150.106 189.376 L 150.106 155.776 L 156.538 155.776 L 156.538 189.376 L 156.538 189.376 Z  M 181.162 172.864 L 181.162 172.864 L 181.162 182.848 L 181.162 182.848 Q 181.258 184 181.546 184.456 L 181.546 184.456 L 181.546 184.456 Q 181.834 184.912 182.746 185.104 L 182.746 185.104 L 182.554 189.952 L 182.554 189.952 Q 180.106 189.952 178.642 189.616 L 178.642 189.616 L 178.642 189.616 Q 177.178 189.28 175.69 188.272 L 175.69 188.272 L 175.69 188.272 Q 172.234 189.952 168.634 189.952 L 168.634 189.952 L 168.634 189.952 Q 161.194 189.952 161.194 182.08 L 161.194 182.08 L 161.194 182.08 Q 161.194 178.24 163.258 176.632 L 163.258 176.632 L 163.258 176.632 Q 165.322 175.024 169.594 174.736 L 169.594 174.736 L 174.73 174.352 L 174.73 172.864 L 174.73 172.864 Q 174.73 171.376 174.058 170.824 L 174.058 170.824 L 174.058 170.824 Q 173.386 170.272 171.898 170.272 L 171.898 170.272 L 162.874 170.656 L 162.682 166.192 L 162.682 166.192 Q 167.818 164.8 172.45 164.8 L 172.45 164.8 L 172.45 164.8 Q 177.082 164.8 179.122 166.72 L 179.122 166.72 L 179.122 166.72 Q 181.162 168.64 181.162 172.864 Z  M 174.73 178.816 L 170.362 179.2 L 170.362 179.2 Q 167.674 179.44 167.674 182.08 L 167.674 182.08 L 167.674 182.08 Q 167.674 184.72 170.026 184.72 L 170.026 184.72 L 170.026 184.72 Q 171.85 184.72 174.01 184.144 L 174.01 184.144 L 174.73 183.952 L 174.73 178.816 L 174.73 178.816 Z  M 193.738 171.424 L 193.738 189.376 L 187.306 189.376 L 187.306 165.376 L 193.69 165.376 L 193.69 166.72 L 193.69 166.72 Q 197.002 164.8 199.354 164.8 L 199.354 164.8 L 199.354 164.8 Q 203.242 164.8 205.354 167.056 L 205.354 167.056 L 205.354 167.056 Q 209.77 164.8 213.418 164.8 L 213.418 164.8 L 213.418 164.8 Q 218.17 164.8 220.018 167.56 L 220.018 167.56 L 220.018 167.56 Q 221.866 170.32 221.866 176.368 L 221.866 176.368 L 221.866 189.376 L 215.434 189.376 L 215.434 176.56 L 215.434 176.56 Q 215.434 173.488 214.762 172.024 L 214.762 172.024 L 214.762 172.024 Q 214.09 170.56 212.074 170.56 L 212.074 170.56 L 212.074 170.56 Q 210.538 170.56 208.33 171.232 L 208.33 171.232 L 207.61 171.472 L 207.61 171.472 Q 207.802 175.072 207.802 176.944 L 207.802 176.944 L 207.802 189.376 L 201.37 189.376 L 201.37 177.04 L 201.37 177.04 Q 201.37 173.488 200.746 172.024 L 200.746 172.024 L 200.746 172.024 Q 200.122 170.56 198.01 170.56 L 198.01 170.56 L 198.01 170.56 Q 196.138 170.56 194.314 171.232 L 194.314 171.232 L 193.738 171.424 L 193.738 171.424 Z  M 245.962 172.864 L 245.962 172.864 L 245.962 182.848 L 245.962 182.848 Q 246.058 184 246.346 184.456 L 246.346 184.456 L 246.346 184.456 Q 246.634 184.912 247.546 185.104 L 247.546 185.104 L 247.354 189.952 L 247.354 189.952 Q 244.906 189.952 243.442 189.616 L 243.442 189.616 L 243.442 189.616 Q 241.978 189.28 240.49 188.272 L 240.49 188.272 L 240.49 188.272 Q 237.034 189.952 233.434 189.952 L 233.434 189.952 L 233.434 189.952 Q 225.994 189.952 225.994 182.08 L 225.994 182.08 L 225.994 182.08 Q 225.994 178.24 228.058 176.632 L 228.058 176.632 L 228.058 176.632 Q 230.122 175.024 234.394 174.736 L 234.394 174.736 L 239.53 174.352 L 239.53 172.864 L 239.53 172.864 Q 239.53 171.376 238.858 170.824 L 238.858 170.824 L 238.858 170.824 Q 238.186 170.272 236.698 170.272 L 236.698 170.272 L 227.674 170.656 L 227.482 166.192 L 227.482 166.192 Q 232.618 164.8 237.25 164.8 L 237.25 164.8 L 237.25 164.8 Q 241.882 164.8 243.922 166.72 L 243.922 166.72 L 243.922 166.72 Q 245.962 168.64 245.962 172.864 Z  M 239.53 178.816 L 235.162 179.2 L 235.162 179.2 Q 232.474 179.44 232.474 182.08 L 232.474 182.08 L 232.474 182.08 Q 232.474 184.72 234.826 184.72 L 234.826 184.72 L 234.826 184.72 Q 236.65 184.72 238.81 184.144 L 238.81 184.144 L 239.53 183.952 L 239.53 178.816 L 239.53 178.816 Z " fill="rgb(255,255,255)"/><path d=" M 228.253 312.568 L 227.175 312.568 L 227.175 302.88 L 232.971 302.88 L 232.971 303.832 L 228.253 303.832 L 228.253 307.612 L 232.243 307.612 L 232.243 308.564 L 228.253 308.564 L 228.253 312.568 L 228.253 312.568 Z  M 235.407 312.568 L 234.357 312.568 L 234.357 305.568 L 235.407 305.568 L 235.407 312.568 L 235.407 312.568 Z  M 235.407 303.986 L 234.357 303.986 L 234.357 302.768 L 235.407 302.768 L 235.407 303.986 L 235.407 303.986 Z  M 238.473 312.568 L 237.423 312.568 L 237.423 305.568 L 238.459 305.568 L 238.459 306.52 L 238.459 306.52 Q 239.677 305.68 241.021 305.414 L 241.021 305.414 L 241.021 306.478 L 241.021 306.478 Q 240.433 306.59 239.796 306.828 L 239.796 306.828 L 239.796 306.828 Q 239.159 307.066 238.823 307.248 L 238.823 307.248 L 238.473 307.43 L 238.473 312.568 L 238.473 312.568 Z  M 246.887 311.7 L 246.887 311.7 L 247.293 311.658 L 247.321 312.484 L 247.321 312.484 Q 245.725 312.708 244.591 312.708 L 244.591 312.708 L 244.591 312.708 Q 243.079 312.708 242.449 311.833 L 242.449 311.833 L 242.449 311.833 Q 241.819 310.958 241.819 309.11 L 241.819 309.11 L 241.819 309.11 Q 241.819 305.428 244.745 305.428 L 244.745 305.428 L 244.745 305.428 Q 246.159 305.428 246.859 306.219 L 246.859 306.219 L 246.859 306.219 Q 247.559 307.01 247.559 308.704 L 247.559 308.704 L 247.503 309.502 L 242.883 309.502 L 242.883 309.502 Q 242.883 310.664 243.303 311.224 L 243.303 311.224 L 243.303 311.224 Q 243.723 311.784 244.766 311.784 L 244.766 311.784 L 244.766 311.784 Q 245.809 311.784 246.887 311.7 Z  M 242.869 308.662 L 246.509 308.662 L 246.509 308.662 Q 246.509 307.374 246.096 306.842 L 246.096 306.842 L 246.096 306.842 Q 245.683 306.31 244.752 306.31 L 244.752 306.31 L 244.752 306.31 Q 243.821 306.31 243.352 306.87 L 243.352 306.87 L 243.352 306.87 Q 242.883 307.43 242.869 308.662 L 242.869 308.662 L 242.869 308.662 Z  M 252.571 306.478 L 250.541 306.478 L 250.541 312.568 L 249.491 312.568 L 249.491 306.478 L 248.609 306.478 L 248.609 305.568 L 249.491 305.568 L 249.491 304.938 L 249.491 304.938 Q 249.491 303.454 249.911 302.915 L 249.911 302.915 L 249.911 302.915 Q 250.331 302.376 251.381 302.376 L 251.381 302.376 L 252.795 302.474 L 252.781 303.342 L 252.781 303.342 Q 251.997 303.314 251.486 303.314 L 251.486 303.314 L 251.486 303.314 Q 250.975 303.314 250.758 303.65 L 250.758 303.65 L 250.758 303.65 Q 250.541 303.986 250.541 304.952 L 250.541 304.952 L 250.541 305.568 L 252.571 305.568 L 252.571 306.478 L 252.571 306.478 Z  M 253.397 309.054 L 253.397 309.054 L 253.397 309.054 Q 253.397 307.136 254.083 306.282 L 254.083 306.282 L 254.083 306.282 Q 254.769 305.428 256.4 305.428 L 256.4 305.428 L 256.4 305.428 Q 258.031 305.428 258.71 306.282 L 258.71 306.282 L 258.71 306.282 Q 259.389 307.136 259.389 309.054 L 259.389 309.054 L 259.389 309.054 Q 259.389 310.972 258.745 311.84 L 258.745 311.84 L 258.745 311.84 Q 258.101 312.708 256.393 312.708 L 256.393 312.708 L 256.393 312.708 Q 254.685 312.708 254.041 311.84 L 254.041 311.84 L 254.041 311.84 Q 253.397 310.972 253.397 309.054 Z  M 254.475 309.033 L 254.475 309.033 L 254.475 309.033 Q 254.475 310.566 254.846 311.182 L 254.846 311.182 L 254.846 311.182 Q 255.217 311.798 256.4 311.798 L 256.4 311.798 L 256.4 311.798 Q 257.583 311.798 257.947 311.189 L 257.947 311.189 L 257.947 311.189 Q 258.311 310.58 258.311 309.04 L 258.311 309.04 L 258.311 309.04 Q 258.311 307.5 257.905 306.919 L 257.905 306.919 L 257.905 306.919 Q 257.499 306.338 256.4 306.338 L 256.4 306.338 L 256.4 306.338 Q 255.301 306.338 254.888 306.919 L 254.888 306.919 L 254.888 306.919 Q 254.475 307.5 254.475 309.033 Z  M 262.427 309.068 L 260.229 305.568 L 261.377 305.568 L 263.085 308.312 L 264.793 305.568 L 265.941 305.568 L 263.715 309.04 L 265.927 312.568 L 264.779 312.568 L 263.085 309.838 L 261.377 312.568 L 260.229 312.568 L 262.427 309.068 L 262.427 309.068 Z  M 216.731 311.7 L 216.731 311.7 L 217.137 311.658 L 217.165 312.484 L 217.165 312.484 Q 215.569 312.708 214.435 312.708 L 214.435 312.708 L 214.435 312.708 Q 212.923 312.708 212.293 311.833 L 212.293 311.833 L 212.293 311.833 Q 211.663 310.958 211.663 309.11 L 211.663 309.11 L 211.663 309.11 Q 211.663 305.428 214.589 305.428 L 214.589 305.428 L 214.589 305.428 Q 216.003 305.428 216.703 306.219 L 216.703 306.219 L 216.703 306.219 Q 217.403 307.01 217.403 308.704 L 217.403 308.704 L 217.347 309.502 L 212.727 309.502 L 212.727 309.502 Q 212.727 310.664 213.147 311.224 L 213.147 311.224 L 213.147 311.224 Q 213.567 311.784 214.61 311.784 L 214.61 311.784 L 214.61 311.784 Q 215.653 311.784 216.731 311.7 Z  M 212.713 308.662 L 216.353 308.662 L 216.353 308.662 Q 216.353 307.374 215.94 306.842 L 215.94 306.842 L 215.94 306.842 Q 215.527 306.31 214.596 306.31 L 214.596 306.31 L 214.596 306.31 Q 213.665 306.31 213.196 306.87 L 213.196 306.87 L 213.196 306.87 Q 212.727 307.43 212.713 308.662 L 212.713 308.662 L 212.713 308.662 Z  M 222.625 305.568 L 222.625 306.478 L 220.399 306.478 L 220.399 309.824 L 220.399 309.824 Q 220.399 311.028 220.574 311.406 L 220.574 311.406 L 220.574 311.406 Q 220.749 311.784 221.407 311.784 L 221.407 311.784 L 222.653 311.7 L 222.723 312.568 L 222.723 312.568 Q 221.785 312.722 221.295 312.722 L 221.295 312.722 L 221.295 312.722 Q 220.203 312.722 219.783 312.19 L 219.783 312.19 L 219.783 312.19 Q 219.363 311.658 219.363 310.16 L 219.363 310.16 L 219.363 306.478 L 218.369 306.478 L 218.369 305.568 L 219.363 305.568 L 219.363 303.426 L 220.399 303.426 L 220.399 305.568 L 222.625 305.568 L 222.625 305.568 Z  M 168.879 311.49 L 168.921 312.414 L 168.921 312.414 Q 167.479 312.708 166.331 312.708 L 166.331 312.708 L 166.331 312.708 Q 165.183 312.708 164.476 312.393 L 164.476 312.393 L 164.476 312.393 Q 163.769 312.078 163.384 311.413 L 163.384 311.413 L 163.384 311.413 Q 162.999 310.748 162.852 309.887 L 162.852 309.887 L 162.852 309.887 Q 162.705 309.026 162.705 307.738 L 162.705 307.738 L 162.705 307.738 Q 162.705 306.45 162.852 305.575 L 162.852 305.575 L 162.852 305.575 Q 162.999 304.7 163.384 304.028 L 163.384 304.028 L 163.384 304.028 Q 163.769 303.356 164.469 303.048 L 164.469 303.048 L 164.469 303.048 Q 165.169 302.74 166.289 302.74 L 166.289 302.74 L 166.289 302.74 Q 167.409 302.74 168.921 303.048 L 168.921 303.048 L 168.879 303.958 L 168.879 303.958 Q 167.465 303.706 166.359 303.706 L 166.359 303.706 L 166.359 303.706 Q 164.819 303.706 164.322 304.623 L 164.322 304.623 L 164.322 304.623 Q 163.825 305.54 163.825 307.752 L 163.825 307.752 L 163.825 307.752 Q 163.825 308.858 163.916 309.53 L 163.916 309.53 L 163.916 309.53 Q 164.007 310.202 164.273 310.741 L 164.273 310.741 L 164.273 310.741 Q 164.539 311.28 165.05 311.511 L 165.05 311.511 L 165.05 311.511 Q 165.561 311.742 166.548 311.742 L 166.548 311.742 L 166.548 311.742 Q 167.535 311.742 168.879 311.49 L 168.879 311.49 L 168.879 311.49 Z  M 171.553 306.786 L 171.553 312.568 L 170.503 312.568 L 170.503 302.516 L 171.553 302.516 L 171.553 305.96 L 171.553 305.96 Q 172.673 305.428 173.709 305.428 L 173.709 305.428 L 173.709 305.428 Q 175.109 305.428 175.592 306.184 L 175.592 306.184 L 175.592 306.184 Q 176.075 306.94 176.075 308.872 L 176.075 308.872 L 176.075 312.568 L 175.025 312.568 L 175.025 308.9 L 175.025 308.9 Q 175.025 307.444 174.738 306.905 L 174.738 306.905 L 174.738 306.905 Q 174.451 306.366 173.527 306.366 L 173.527 306.366 L 173.527 306.366 Q 172.645 306.366 171.819 306.688 L 171.819 306.688 L 171.553 306.786 L 171.553 306.786 Z  M 179.071 312.568 L 178.021 312.568 L 178.021 305.568 L 179.057 305.568 L 179.057 306.52 L 179.057 306.52 Q 180.275 305.68 181.619 305.414 L 181.619 305.414 L 181.619 306.478 L 181.619 306.478 Q 181.031 306.59 180.394 306.828 L 180.394 306.828 L 180.394 306.828 Q 179.757 307.066 179.421 307.248 L 179.421 307.248 L 179.071 307.43 L 179.071 312.568 L 179.071 312.568 Z  M 182.417 309.054 L 182.417 309.054 L 182.417 309.054 Q 182.417 307.136 183.103 306.282 L 183.103 306.282 L 183.103 306.282 Q 183.789 305.428 185.42 305.428 L 185.42 305.428 L 185.42 305.428 Q 187.051 305.428 187.73 306.282 L 187.73 306.282 L 187.73 306.282 Q 188.409 307.136 188.409 309.054 L 188.409 309.054 L 188.409 309.054 Q 188.409 310.972 187.765 311.84 L 187.765 311.84 L 187.765 311.84 Q 187.121 312.708 185.413 312.708 L 185.413 312.708 L 185.413 312.708 Q 183.705 312.708 183.061 311.84 L 183.061 311.84 L 183.061 311.84 Q 182.417 310.972 182.417 309.054 Z  M 183.495 309.033 L 183.495 309.033 L 183.495 309.033 Q 183.495 310.566 183.866 311.182 L 183.866 311.182 L 183.866 311.182 Q 184.237 311.798 185.42 311.798 L 185.42 311.798 L 185.42 311.798 Q 186.603 311.798 186.967 311.189 L 186.967 311.189 L 186.967 311.189 Q 187.331 310.58 187.331 309.04 L 187.331 309.04 L 187.331 309.04 Q 187.331 307.5 186.925 306.919 L 186.925 306.919 L 186.925 306.919 Q 186.519 306.338 185.42 306.338 L 185.42 306.338 L 185.42 306.338 Q 184.321 306.338 183.908 306.919 L 183.908 306.919 L 183.908 306.919 Q 183.495 307.5 183.495 309.033 Z  M 191.167 306.884 L 191.167 312.568 L 190.117 312.568 L 190.117 305.568 L 191.153 305.568 L 191.153 306.058 L 191.153 306.058 Q 192.203 305.428 193.197 305.428 L 193.197 305.428 L 193.197 305.428 Q 194.499 305.428 195.017 306.142 L 195.017 306.142 L 195.017 306.142 Q 195.479 305.862 196.214 305.645 L 196.214 305.645 L 196.214 305.645 Q 196.949 305.428 197.509 305.428 L 197.509 305.428 L 197.509 305.428 Q 198.909 305.428 199.392 306.177 L 199.392 306.177 L 199.392 306.177 Q 199.875 306.926 199.875 308.872 L 199.875 308.872 L 199.875 312.568 L 198.825 312.568 L 198.825 308.9 L 198.825 308.9 Q 198.825 307.444 198.545 306.905 L 198.545 306.905 L 198.545 306.905 Q 198.265 306.366 197.355 306.366 L 197.355 306.366 L 197.355 306.366 Q 196.893 306.366 196.403 306.499 L 196.403 306.499 L 196.403 306.499 Q 195.913 306.632 195.647 306.758 L 195.647 306.758 L 195.381 306.884 L 195.381 306.884 Q 195.563 307.346 195.563 308.928 L 195.563 308.928 L 195.563 312.568 L 194.513 312.568 L 194.513 308.956 L 194.513 308.956 Q 194.513 307.444 194.24 306.905 L 194.24 306.905 L 194.24 306.905 Q 193.967 306.366 193.043 306.366 L 193.043 306.366 L 193.043 306.366 Q 192.595 306.366 192.126 306.499 L 192.126 306.499 L 192.126 306.499 Q 191.657 306.632 191.405 306.758 L 191.405 306.758 L 191.167 306.884 L 191.167 306.884 Z  M 206.581 311.7 L 206.581 311.7 L 206.987 311.658 L 207.015 312.484 L 207.015 312.484 Q 205.419 312.708 204.285 312.708 L 204.285 312.708 L 204.285 312.708 Q 202.773 312.708 202.143 311.833 L 202.143 311.833 L 202.143 311.833 Q 201.513 310.958 201.513 309.11 L 201.513 309.11 L 201.513 309.11 Q 201.513 305.428 204.439 305.428 L 204.439 305.428 L 204.439 305.428 Q 205.853 305.428 206.553 306.219 L 206.553 306.219 L 206.553 306.219 Q 207.253 307.01 207.253 308.704 L 207.253 308.704 L 207.197 309.502 L 202.577 309.502 L 202.577 309.502 Q 202.577 310.664 202.997 311.224 L 202.997 311.224 L 202.997 311.224 Q 203.417 311.784 204.46 311.784 L 204.46 311.784 L 204.46 311.784 Q 205.503 311.784 206.581 311.7 Z  M 202.563 308.662 L 206.203 308.662 L 206.203 308.662 Q 206.203 307.374 205.79 306.842 L 205.79 306.842 L 205.79 306.842 Q 205.377 306.31 204.446 306.31 L 204.446 306.31 L 204.446 306.31 Q 203.515 306.31 203.046 306.87 L 203.046 306.87 L 203.046 306.87 Q 202.577 307.43 202.563 308.662 L 202.563 308.662 L 202.563 308.662 Z  M 133.809 315.676 L 132.759 315.676 L 132.759 305.568 L 133.795 305.568 L 133.795 306.072 L 133.795 306.072 Q 134.859 305.428 135.895 305.428 L 135.895 305.428 L 135.895 305.428 Q 137.225 305.428 137.827 306.275 L 137.827 306.275 L 137.827 306.275 Q 138.429 307.122 138.429 309.068 L 138.429 309.068 L 138.429 309.068 Q 138.429 311.014 137.722 311.861 L 137.722 311.861 L 137.722 311.861 Q 137.015 312.708 135.377 312.708 L 135.377 312.708 L 135.377 312.708 Q 134.523 312.708 133.809 312.554 L 133.809 312.554 L 133.809 315.676 L 133.809 315.676 Z  M 135.741 306.366 L 135.741 306.366 L 135.741 306.366 Q 135.321 306.366 134.838 306.506 L 134.838 306.506 L 134.838 306.506 Q 134.355 306.646 134.075 306.786 L 134.075 306.786 L 133.809 306.926 L 133.809 311.644 L 133.809 311.644 Q 134.803 311.798 135.321 311.798 L 135.321 311.798 L 135.321 311.798 Q 136.455 311.798 136.91 311.154 L 136.91 311.154 L 136.91 311.154 Q 137.365 310.51 137.365 309.054 L 137.365 309.054 L 137.365 309.054 Q 137.365 307.598 136.952 306.982 L 136.952 306.982 L 136.952 306.982 Q 136.539 306.366 135.741 306.366 Z  M 139.829 309.054 L 139.829 309.054 L 139.829 309.054 Q 139.829 307.136 140.515 306.282 L 140.515 306.282 L 140.515 306.282 Q 141.201 305.428 142.832 305.428 L 142.832 305.428 L 142.832 305.428 Q 144.463 305.428 145.142 306.282 L 145.142 306.282 L 145.142 306.282 Q 145.821 307.136 145.821 309.054 L 145.821 309.054 L 145.821 309.054 Q 145.821 310.972 145.177 311.84 L 145.177 311.84 L 145.177 311.84 Q 144.533 312.708 142.825 312.708 L 142.825 312.708 L 142.825 312.708 Q 141.117 312.708 140.473 311.84 L 140.473 311.84 L 140.473 311.84 Q 139.829 310.972 139.829 309.054 Z  M 140.907 309.033 L 140.907 309.033 L 140.907 309.033 Q 140.907 310.566 141.278 311.182 L 141.278 311.182 L 141.278 311.182 Q 141.649 311.798 142.832 311.798 L 142.832 311.798 L 142.832 311.798 Q 144.015 311.798 144.379 311.189 L 144.379 311.189 L 144.379 311.189 Q 144.743 310.58 144.743 309.04 L 144.743 309.04 L 144.743 309.04 Q 144.743 307.5 144.337 306.919 L 144.337 306.919 L 144.337 306.919 Q 143.931 306.338 142.832 306.338 L 142.832 306.338 L 142.832 306.338 Q 141.733 306.338 141.32 306.919 L 141.32 306.919 L 141.32 306.919 Q 140.907 307.5 140.907 309.033 Z  M 151.897 311.252 L 151.897 305.568 L 152.947 305.568 L 152.947 312.568 L 151.897 312.568 L 151.897 312.078 L 151.897 312.078 Q 150.847 312.708 149.825 312.708 L 149.825 312.708 L 149.825 312.708 Q 148.397 312.708 147.928 311.966 L 147.928 311.966 L 147.928 311.966 Q 147.459 311.224 147.459 309.222 L 147.459 309.222 L 147.459 305.568 L 148.509 305.568 L 148.509 309.208 L 148.509 309.208 Q 148.509 310.734 148.775 311.252 L 148.775 311.252 L 148.775 311.252 Q 149.041 311.77 149.979 311.77 L 149.979 311.77 L 149.979 311.77 Q 150.441 311.77 150.917 311.637 L 150.917 311.637 L 150.917 311.637 Q 151.393 311.504 151.645 311.378 L 151.645 311.378 L 151.897 311.252 L 151.897 311.252 Z  M 156.013 312.568 L 154.963 312.568 L 154.963 305.568 L 155.999 305.568 L 155.999 306.52 L 155.999 306.52 Q 157.217 305.68 158.561 305.414 L 158.561 305.414 L 158.561 306.478 L 158.561 306.478 Q 157.973 306.59 157.336 306.828 L 157.336 306.828 L 157.336 306.828 Q 156.699 307.066 156.363 307.248 L 156.363 307.248 L 156.013 307.43 L 156.013 312.568 L 156.013 312.568 Z  M 205.027 291.274 L 203.977 291.274 L 203.977 281.222 L 205.027 281.222 L 205.027 291.274 L 205.027 291.274 Z  M 208.037 284.694 L 207.099 284.694 L 207.057 281.586 L 208.107 281.586 L 208.037 284.694 L 208.037 284.694 Z  M 214.589 290.406 L 214.589 290.406 L 214.995 290.364 L 215.023 291.19 L 215.023 291.19 Q 213.427 291.414 212.293 291.414 L 212.293 291.414 L 212.293 291.414 Q 210.781 291.414 210.151 290.539 L 210.151 290.539 L 210.151 290.539 Q 209.521 289.664 209.521 287.816 L 209.521 287.816 L 209.521 287.816 Q 209.521 284.134 212.447 284.134 L 212.447 284.134 L 212.447 284.134 Q 213.861 284.134 214.561 284.925 L 214.561 284.925 L 214.561 284.925 Q 215.261 285.716 215.261 287.41 L 215.261 287.41 L 215.205 288.208 L 210.585 288.208 L 210.585 288.208 Q 210.585 289.37 211.005 289.93 L 211.005 289.93 L 211.005 289.93 Q 211.425 290.49 212.468 290.49 L 212.468 290.49 L 212.468 290.49 Q 213.511 290.49 214.589 290.406 Z  M 210.571 287.368 L 214.211 287.368 L 214.211 287.368 Q 214.211 286.08 213.798 285.548 L 213.798 285.548 L 213.798 285.548 Q 213.385 285.016 212.454 285.016 L 212.454 285.016 L 212.454 285.016 Q 211.523 285.016 211.054 285.576 L 211.054 285.576 L 211.054 285.576 Q 210.585 286.136 210.571 287.368 L 210.571 287.368 L 210.571 287.368 Z  M 218.341 287.774 L 216.143 284.274 L 217.291 284.274 L 218.999 287.018 L 220.707 284.274 L 221.855 284.274 L 219.629 287.746 L 221.841 291.274 L 220.693 291.274 L 218.999 288.544 L 217.291 291.274 L 216.143 291.274 L 218.341 287.774 L 218.341 287.774 Z  M 226.797 284.274 L 226.797 285.184 L 224.571 285.184 L 224.571 288.53 L 224.571 288.53 Q 224.571 289.734 224.746 290.112 L 224.746 290.112 L 224.746 290.112 Q 224.921 290.49 225.579 290.49 L 225.579 290.49 L 226.825 290.406 L 226.895 291.274 L 226.895 291.274 Q 225.957 291.428 225.467 291.428 L 225.467 291.428 L 225.467 291.428 Q 224.375 291.428 223.955 290.896 L 223.955 290.896 L 223.955 290.896 Q 223.535 290.364 223.535 288.866 L 223.535 288.866 L 223.535 285.184 L 222.541 285.184 L 222.541 284.274 L 223.535 284.274 L 223.535 282.132 L 224.571 282.132 L 224.571 284.274 L 226.797 284.274 L 226.797 284.274 Z  M 232.845 290.406 L 232.845 290.406 L 233.251 290.364 L 233.279 291.19 L 233.279 291.19 Q 231.683 291.414 230.549 291.414 L 230.549 291.414 L 230.549 291.414 Q 229.037 291.414 228.407 290.539 L 228.407 290.539 L 228.407 290.539 Q 227.777 289.664 227.777 287.816 L 227.777 287.816 L 227.777 287.816 Q 227.777 284.134 230.703 284.134 L 230.703 284.134 L 230.703 284.134 Q 232.117 284.134 232.817 284.925 L 232.817 284.925 L 232.817 284.925 Q 233.517 285.716 233.517 287.41 L 233.517 287.41 L 233.461 288.208 L 228.841 288.208 L 228.841 288.208 Q 228.841 289.37 229.261 289.93 L 229.261 289.93 L 229.261 289.93 Q 229.681 290.49 230.724 290.49 L 230.724 290.49 L 230.724 290.49 Q 231.767 290.49 232.845 290.406 Z  M 228.827 287.368 L 232.467 287.368 L 232.467 287.368 Q 232.467 286.08 232.054 285.548 L 232.054 285.548 L 232.054 285.548 Q 231.641 285.016 230.71 285.016 L 230.71 285.016 L 230.71 285.016 Q 229.779 285.016 229.31 285.576 L 229.31 285.576 L 229.31 285.576 Q 228.841 286.136 228.827 287.368 L 228.827 287.368 L 228.827 287.368 Z  M 236.205 285.59 L 236.205 291.274 L 235.155 291.274 L 235.155 284.274 L 236.191 284.274 L 236.191 284.764 L 236.191 284.764 Q 237.325 284.134 238.361 284.134 L 238.361 284.134 L 238.361 284.134 Q 239.761 284.134 240.244 284.89 L 240.244 284.89 L 240.244 284.89 Q 240.727 285.646 240.727 287.578 L 240.727 287.578 L 240.727 291.274 L 239.691 291.274 L 239.691 287.606 L 239.691 287.606 Q 239.691 286.15 239.404 285.611 L 239.404 285.611 L 239.404 285.611 Q 239.117 285.072 238.179 285.072 L 238.179 285.072 L 238.179 285.072 Q 237.731 285.072 237.234 285.205 L 237.234 285.205 L 237.234 285.205 Q 236.737 285.338 236.471 285.464 L 236.471 285.464 L 236.205 285.59 L 236.205 285.59 Z  M 244.871 285.072 L 244.871 285.072 L 244.871 285.072 Q 243.345 285.072 243.345 286.136 L 243.345 286.136 L 243.345 286.136 Q 243.345 286.626 243.695 286.829 L 243.695 286.829 L 243.695 286.829 Q 244.045 287.032 245.291 287.249 L 245.291 287.249 L 245.291 287.249 Q 246.537 287.466 247.055 287.858 L 247.055 287.858 L 247.055 287.858 Q 247.573 288.25 247.573 289.328 L 247.573 289.328 L 247.573 289.328 Q 247.573 290.406 246.88 290.91 L 246.88 290.91 L 246.88 290.91 Q 246.187 291.414 244.857 291.414 L 244.857 291.414 L 244.857 291.414 Q 243.989 291.414 242.813 291.218 L 242.813 291.218 L 242.393 291.148 L 242.449 290.238 L 242.449 290.238 Q 244.045 290.476 244.857 290.476 L 244.857 290.476 L 244.857 290.476 Q 245.669 290.476 246.096 290.217 L 246.096 290.217 L 246.096 290.217 Q 246.523 289.958 246.523 289.349 L 246.523 289.349 L 246.523 289.349 Q 246.523 288.74 246.159 288.523 L 246.159 288.523 L 246.159 288.523 Q 245.795 288.306 244.563 288.11 L 244.563 288.11 L 244.563 288.11 Q 243.331 287.914 242.813 287.536 L 242.813 287.536 L 242.813 287.536 Q 242.295 287.158 242.295 286.136 L 242.295 286.136 L 242.295 286.136 Q 242.295 285.114 243.016 284.624 L 243.016 284.624 L 243.016 284.624 Q 243.737 284.134 244.815 284.134 L 244.815 284.134 L 244.815 284.134 Q 245.669 284.134 246.957 284.33 L 246.957 284.33 L 247.349 284.4 L 247.321 285.296 L 247.321 285.296 Q 245.767 285.072 244.871 285.072 Z  M 250.233 291.274 L 249.183 291.274 L 249.183 284.274 L 250.233 284.274 L 250.233 291.274 L 250.233 291.274 Z  M 250.233 282.692 L 249.183 282.692 L 249.183 281.474 L 250.233 281.474 L 250.233 282.692 L 250.233 282.692 Z  M 251.941 287.76 L 251.941 287.76 L 251.941 287.76 Q 251.941 285.842 252.627 284.988 L 252.627 284.988 L 252.627 284.988 Q 253.313 284.134 254.944 284.134 L 254.944 284.134 L 254.944 284.134 Q 256.575 284.134 257.254 284.988 L 257.254 284.988 L 257.254 284.988 Q 257.933 285.842 257.933 287.76 L 257.933 287.76 L 257.933 287.76 Q 257.933 289.678 257.289 290.546 L 257.289 290.546 L 257.289 290.546 Q 256.645 291.414 254.937 291.414 L 254.937 291.414 L 254.937 291.414 Q 253.229 291.414 252.585 290.546 L 252.585 290.546 L 252.585 290.546 Q 251.941 289.678 251.941 287.76 Z  M 253.019 287.739 L 253.019 287.739 L 253.019 287.739 Q 253.019 289.272 253.39 289.888 L 253.39 289.888 L 253.39 289.888 Q 253.761 290.504 254.944 290.504 L 254.944 290.504 L 254.944 290.504 Q 256.127 290.504 256.491 289.895 L 256.491 289.895 L 256.491 289.895 Q 256.855 289.286 256.855 287.746 L 256.855 287.746 L 256.855 287.746 Q 256.855 286.206 256.449 285.625 L 256.449 285.625 L 256.449 285.625 Q 256.043 285.044 254.944 285.044 L 254.944 285.044 L 254.944 285.044 Q 253.845 285.044 253.432 285.625 L 253.432 285.625 L 253.432 285.625 Q 253.019 286.206 253.019 287.739 Z  M 260.691 285.59 L 260.691 291.274 L 259.641 291.274 L 259.641 284.274 L 260.677 284.274 L 260.677 284.764 L 260.677 284.764 Q 261.811 284.134 262.847 284.134 L 262.847 284.134 L 262.847 284.134 Q 264.247 284.134 264.73 284.89 L 264.73 284.89 L 264.73 284.89 Q 265.213 285.646 265.213 287.578 L 265.213 287.578 L 265.213 291.274 L 264.177 291.274 L 264.177 287.606 L 264.177 287.606 Q 264.177 286.15 263.89 285.611 L 263.89 285.611 L 263.89 285.611 Q 263.603 285.072 262.665 285.072 L 262.665 285.072 L 262.665 285.072 Q 262.217 285.072 261.72 285.205 L 261.72 285.205 L 261.72 285.205 Q 261.223 285.338 260.957 285.464 L 260.957 285.464 L 260.691 285.59 L 260.691 285.59 Z  M 135.013 282.552 L 132.031 282.552 L 132.031 281.586 L 139.031 281.586 L 139.031 282.552 L 136.077 282.552 L 136.077 291.274 L 135.013 291.274 L 135.013 282.552 L 135.013 282.552 Z  M 143.707 290.406 L 143.707 290.406 L 144.113 290.364 L 144.141 291.19 L 144.141 291.19 Q 142.545 291.414 141.411 291.414 L 141.411 291.414 L 141.411 291.414 Q 139.899 291.414 139.269 290.539 L 139.269 290.539 L 139.269 290.539 Q 138.639 289.664 138.639 287.816 L 138.639 287.816 L 138.639 287.816 Q 138.639 284.134 141.565 284.134 L 141.565 284.134 L 141.565 284.134 Q 142.979 284.134 143.679 284.925 L 143.679 284.925 L 143.679 284.925 Q 144.379 285.716 144.379 287.41 L 144.379 287.41 L 144.323 288.208 L 139.703 288.208 L 139.703 288.208 Q 139.703 289.37 140.123 289.93 L 140.123 289.93 L 140.123 289.93 Q 140.543 290.49 141.586 290.49 L 141.586 290.49 L 141.586 290.49 Q 142.629 290.49 143.707 290.406 Z  M 139.689 287.368 L 143.329 287.368 L 143.329 287.368 Q 143.329 286.08 142.916 285.548 L 142.916 285.548 L 142.916 285.548 Q 142.503 285.016 141.572 285.016 L 141.572 285.016 L 141.572 285.016 Q 140.641 285.016 140.172 285.576 L 140.172 285.576 L 140.172 285.576 Q 139.703 286.136 139.689 287.368 L 139.689 287.368 L 139.689 287.368 Z  M 140.263 283 L 139.969 282.286 L 142.993 280.914 L 143.357 281.81 L 140.263 283 L 140.263 283 Z  M 147.151 291.274 L 146.101 291.274 L 146.101 281.222 L 147.151 281.222 L 147.151 291.274 L 147.151 291.274 Z  M 154.011 290.406 L 154.011 290.406 L 154.417 290.364 L 154.445 291.19 L 154.445 291.19 Q 152.849 291.414 151.715 291.414 L 151.715 291.414 L 151.715 291.414 Q 150.203 291.414 149.573 290.539 L 149.573 290.539 L 149.573 290.539 Q 148.943 289.664 148.943 287.816 L 148.943 287.816 L 148.943 287.816 Q 148.943 284.134 151.869 284.134 L 151.869 284.134 L 151.869 284.134 Q 153.283 284.134 153.983 284.925 L 153.983 284.925 L 153.983 284.925 Q 154.683 285.716 154.683 287.41 L 154.683 287.41 L 154.627 288.208 L 150.007 288.208 L 150.007 288.208 Q 150.007 289.37 150.427 289.93 L 150.427 289.93 L 150.427 289.93 Q 150.847 290.49 151.89 290.49 L 151.89 290.49 L 151.89 290.49 Q 152.933 290.49 154.011 290.406 Z  M 149.993 287.368 L 153.633 287.368 L 153.633 287.368 Q 153.633 286.08 153.22 285.548 L 153.22 285.548 L 153.22 285.548 Q 152.807 285.016 151.876 285.016 L 151.876 285.016 L 151.876 285.016 Q 150.945 285.016 150.476 285.576 L 150.476 285.576 L 150.476 285.576 Q 150.007 286.136 149.993 287.368 L 149.993 287.368 L 149.993 287.368 Z  M 150.567 283 L 150.273 282.286 L 153.297 280.914 L 153.661 281.81 L 150.567 283 L 150.567 283 Z  M 158.939 284.134 L 158.939 284.134 L 158.939 284.134 Q 159.401 284.134 160.507 284.302 L 160.507 284.302 L 160.843 284.344 L 160.801 285.198 L 160.801 285.198 Q 159.681 285.072 159.149 285.072 L 159.149 285.072 L 159.149 285.072 Q 157.959 285.072 157.532 285.639 L 157.532 285.639 L 157.532 285.639 Q 157.105 286.206 157.105 287.739 L 157.105 287.739 L 157.105 287.739 Q 157.105 289.272 157.504 289.874 L 157.504 289.874 L 157.504 289.874 Q 157.903 290.476 159.163 290.476 L 159.163 290.476 L 160.815 290.35 L 160.857 291.218 L 160.857 291.218 Q 159.555 291.414 158.911 291.414 L 158.911 291.414 L 158.911 291.414 Q 157.273 291.414 156.65 290.574 L 156.65 290.574 L 156.65 290.574 Q 156.027 289.734 156.027 287.739 L 156.027 287.739 L 156.027 287.739 Q 156.027 285.744 156.699 284.939 L 156.699 284.939 L 156.699 284.939 Q 157.371 284.134 158.939 284.134 Z  M 163.475 285.492 L 163.475 291.274 L 162.425 291.274 L 162.425 281.222 L 163.475 281.222 L 163.475 284.666 L 163.475 284.666 Q 164.595 284.134 165.631 284.134 L 165.631 284.134 L 165.631 284.134 Q 167.031 284.134 167.514 284.89 L 167.514 284.89 L 167.514 284.89 Q 167.997 285.646 167.997 287.578 L 167.997 287.578 L 167.997 291.274 L 166.947 291.274 L 166.947 287.606 L 166.947 287.606 Q 166.947 286.15 166.66 285.611 L 166.66 285.611 L 166.66 285.611 Q 166.373 285.072 165.449 285.072 L 165.449 285.072 L 165.449 285.072 Q 164.567 285.072 163.741 285.394 L 163.741 285.394 L 163.475 285.492 L 163.475 285.492 Z  M 174.885 286.388 L 174.885 286.388 L 174.885 289.972 L 174.885 289.972 Q 174.927 290.49 175.697 290.588 L 175.697 290.588 L 175.655 291.414 L 175.655 291.414 Q 174.549 291.414 173.989 290.854 L 173.989 290.854 L 173.989 290.854 Q 172.729 291.414 171.469 291.414 L 171.469 291.414 L 171.469 291.414 Q 170.503 291.414 169.999 290.868 L 169.999 290.868 L 169.999 290.868 Q 169.495 290.322 169.495 289.3 L 169.495 289.3 L 169.495 289.3 Q 169.495 288.278 170.013 287.795 L 170.013 287.795 L 170.013 287.795 Q 170.531 287.312 171.637 287.2 L 171.637 287.2 L 173.835 286.99 L 173.835 286.388 L 173.835 286.388 Q 173.835 285.674 173.527 285.366 L 173.527 285.366 L 173.527 285.366 Q 173.219 285.058 172.687 285.058 L 172.687 285.058 L 172.687 285.058 Q 171.567 285.058 170.363 285.198 L 170.363 285.198 L 169.929 285.24 L 169.887 284.442 L 169.887 284.442 Q 171.427 284.134 172.617 284.134 L 172.617 284.134 L 172.617 284.134 Q 173.807 284.134 174.346 284.68 L 174.346 284.68 L 174.346 284.68 Q 174.885 285.226 174.885 286.388 Z  M 170.573 289.244 L 170.573 289.244 L 170.573 289.244 Q 170.573 290.532 171.637 290.532 L 171.637 290.532 L 171.637 290.532 Q 172.589 290.532 173.513 290.21 L 173.513 290.21 L 173.835 290.098 L 173.835 287.788 L 171.763 287.984 L 171.763 287.984 Q 171.133 288.04 170.853 288.348 L 170.853 288.348 L 170.853 288.348 Q 170.573 288.656 170.573 289.244 Z  M 178.007 291.274 L 176.957 291.274 L 176.957 284.274 L 177.993 284.274 L 177.993 285.226 L 177.993 285.226 Q 179.211 284.386 180.555 284.12 L 180.555 284.12 L 180.555 285.184 L 180.555 285.184 Q 179.967 285.296 179.33 285.534 L 179.33 285.534 L 179.33 285.534 Q 178.693 285.772 178.357 285.954 L 178.357 285.954 L 178.007 286.136 L 178.007 291.274 L 178.007 291.274 Z  M 184.405 294.564 L 184.405 294.564 L 184.405 294.564 Q 182.725 294.564 182.06 294.109 L 182.06 294.109 L 182.06 294.109 Q 181.395 293.654 181.395 292.45 L 181.395 292.45 L 181.395 292.45 Q 181.395 291.876 181.647 291.519 L 181.647 291.519 L 181.647 291.519 Q 181.899 291.162 182.501 290.714 L 182.501 290.714 L 182.501 290.714 Q 182.109 290.448 182.109 289.748 L 182.109 289.748 L 182.109 289.748 Q 182.109 289.51 182.459 288.866 L 182.459 288.866 L 182.585 288.642 L 182.585 288.642 Q 181.479 288.138 181.479 286.528 L 181.479 286.528 L 181.479 286.528 Q 181.479 284.134 184.097 284.134 L 184.097 284.134 L 184.097 284.134 Q 184.769 284.134 185.343 284.274 L 185.343 284.274 L 185.553 284.316 L 187.625 284.26 L 187.625 285.156 L 186.295 285.128 L 186.295 285.128 Q 186.757 285.59 186.757 286.528 L 186.757 286.528 L 186.757 286.528 Q 186.757 287.844 186.106 288.369 L 186.106 288.369 L 186.106 288.369 Q 185.455 288.894 184.055 288.894 L 184.055 288.894 L 184.055 288.894 Q 183.677 288.894 183.369 288.838 L 183.369 288.838 L 183.369 288.838 Q 183.117 289.454 183.117 289.636 L 183.117 289.636 L 183.117 289.636 Q 183.117 290.07 183.383 290.175 L 183.383 290.175 L 183.383 290.175 Q 183.649 290.28 184.993 290.28 L 184.993 290.28 L 184.993 290.28 Q 186.337 290.28 186.925 290.7 L 186.925 290.7 L 186.925 290.7 Q 187.513 291.12 187.513 292.338 L 187.513 292.338 L 187.513 292.338 Q 187.513 294.564 184.405 294.564 Z  M 182.431 292.366 L 182.431 292.366 L 182.431 292.366 Q 182.431 293.108 182.844 293.395 L 182.844 293.395 L 182.844 293.395 Q 183.257 293.682 184.37 293.682 L 184.37 293.682 L 184.37 293.682 Q 185.483 293.682 185.966 293.374 L 185.966 293.374 L 185.966 293.374 Q 186.449 293.066 186.449 292.345 L 186.449 292.345 L 186.449 292.345 Q 186.449 291.624 186.099 291.414 L 186.099 291.414 L 186.099 291.414 Q 185.749 291.204 184.727 291.204 L 184.727 291.204 L 183.215 291.134 L 183.215 291.134 Q 182.753 291.47 182.592 291.722 L 182.592 291.722 L 182.592 291.722 Q 182.431 291.974 182.431 292.366 Z  M 182.529 286.528 L 182.529 286.528 L 182.529 286.528 Q 182.529 287.354 182.9 287.704 L 182.9 287.704 L 182.9 287.704 Q 183.271 288.054 184.125 288.054 L 184.125 288.054 L 184.125 288.054 Q 184.979 288.054 185.343 287.704 L 185.343 287.704 L 185.343 287.704 Q 185.707 287.354 185.707 286.521 L 185.707 286.521 L 185.707 286.521 Q 185.707 285.688 185.343 285.338 L 185.343 285.338 L 185.343 285.338 Q 184.979 284.988 184.125 284.988 L 184.125 284.988 L 184.125 284.988 Q 183.271 284.988 182.9 285.345 L 182.9 285.345 L 182.9 285.345 Q 182.529 285.702 182.529 286.528 Z  M 193.659 290.406 L 193.659 290.406 L 194.065 290.364 L 194.093 291.19 L 194.093 291.19 Q 192.497 291.414 191.363 291.414 L 191.363 291.414 L 191.363 291.414 Q 189.851 291.414 189.221 290.539 L 189.221 290.539 L 189.221 290.539 Q 188.591 289.664 188.591 287.816 L 188.591 287.816 L 188.591 287.816 Q 188.591 284.134 191.517 284.134 L 191.517 284.134 L 191.517 284.134 Q 192.931 284.134 193.631 284.925 L 193.631 284.925 L 193.631 284.925 Q 194.331 285.716 194.331 287.41 L 194.331 287.41 L 194.275 288.208 L 189.655 288.208 L 189.655 288.208 Q 189.655 289.37 190.075 289.93 L 190.075 289.93 L 190.075 289.93 Q 190.495 290.49 191.538 290.49 L 191.538 290.49 L 191.538 290.49 Q 192.581 290.49 193.659 290.406 Z  M 189.641 287.368 L 193.281 287.368 L 193.281 287.368 Q 193.281 286.08 192.868 285.548 L 192.868 285.548 L 192.868 285.548 Q 192.455 285.016 191.524 285.016 L 191.524 285.016 L 191.524 285.016 Q 190.593 285.016 190.124 285.576 L 190.124 285.576 L 190.124 285.576 Q 189.655 286.136 189.641 287.368 L 189.641 287.368 L 189.641 287.368 Z  M 197.019 291.274 L 195.969 291.274 L 195.969 284.274 L 197.005 284.274 L 197.005 285.226 L 197.005 285.226 Q 198.223 284.386 199.567 284.12 L 199.567 284.12 L 199.567 285.184 L 199.567 285.184 Q 198.979 285.296 198.342 285.534 L 198.342 285.534 L 198.342 285.534 Q 197.705 285.772 197.369 285.954 L 197.369 285.954 L 197.019 286.136 L 197.019 291.274 L 197.019 291.274 Z " fill="rgb(255,255,255)"/><g><path d=" M 259.984 228.128 C 258.72 225.088 256.157 221.805 254.15 220.768 C 255.582 223.54 256.575 226.518 257.095 229.594 L 257.101 229.643 C 253.813 221.446 248.237 218.141 243.684 210.944 C 243.453 210.58 243.223 210.216 242.999 209.831 C 242.87 209.611 242.768 209.413 242.678 209.23 C 242.49 208.865 242.344 208.478 242.245 208.079 C 242.245 208.041 242.217 208.008 242.179 208.004 C 242.161 207.999 242.142 207.999 242.124 208.004 C 242.12 208.004 242.114 208.01 242.11 208.012 C 242.105 208.013 242.095 208.02 242.089 208.023 L 242.1 208.004 C 234.796 212.28 232.318 220.197 232.089 224.158 C 229.173 224.358 226.384 225.433 224.087 227.242 C 223.847 227.039 223.597 226.849 223.337 226.673 C 222.674 224.354 222.646 221.9 223.255 219.566 C 220.572 220.865 218.189 222.707 216.255 224.975 L 216.242 224.975 C 215.089 223.514 215.17 218.698 215.236 217.691 C 214.895 217.828 214.57 218.001 214.266 218.207 C 213.248 218.933 212.297 219.748 211.423 220.642 C 210.428 221.651 209.519 222.742 208.705 223.903 L 208.705 223.908 L 208.705 223.902 C 206.836 226.553 205.51 229.547 204.804 232.713 L 204.765 232.905 C 204.71 233.161 204.512 234.443 204.479 234.721 C 204.479 234.743 204.474 234.763 204.472 234.785 C 204.217 236.108 204.06 237.448 204 238.793 L 204 238.944 C 204.013 254.038 215.573 266.613 230.613 267.894 C 245.653 269.175 259.172 258.736 261.738 243.861 C 261.787 243.486 261.827 243.114 261.87 242.736 C 262.469 237.785 261.821 232.764 259.984 228.128 L 259.984 228.128 Z  M 226.468 250.89 C 226.604 250.956 226.732 251.026 226.871 251.089 L 226.891 251.101 Q 226.68 251 226.468 250.89 Z  M 257.103 229.65 L 257.103 229.622 L 257.108 229.653 L 257.103 229.65 Z " fill="rgb(0,0,0)"/><path d=" M 233.13 233.352 C 233.082 234.075 230.527 236.57 229.633 236.57 C 221.364 236.57 220.022 241.572 220.022 241.572 C 220.388 245.784 223.323 249.253 226.871 251.089 C 227.033 251.173 227.198 251.248 227.362 251.323 Q 227.789 251.512 228.216 251.672 C 229.433 252.103 230.709 252.349 231.999 252.402 C 246.493 253.082 249.3 235.071 238.841 229.844 C 241.309 229.523 243.807 230.13 245.853 231.546 C 243.252 226.956 238.387 224.115 233.111 224.106 C 232.766 224.106 232.429 224.134 232.089 224.158 C 229.173 224.358 226.384 225.433 224.087 227.242 C 224.53 227.617 225.031 228.118 226.085 229.157 C 228.058 231.101 233.119 233.115 233.13 233.352 Z " fill="rgb(255,255,255)"/></g><g><circle vector-effect="non-scaling-stroke" cx="165.99999999999997" cy="238.0210685049363" r="29.99999999999997" fill="rgb(235,235,235)"/><path d=" M 151.907 233.344 L 142.665 219.142 C 148.424 211.981 157.061 208.037 165.892 208.001 C 171.009 207.964 176.234 209.271 180.989 212.017 C 186.239 215.065 190.231 219.444 192.771 224.477 L 167.936 223.17 C 160.908 222.759 154.218 226.715 151.907 233.344 Z  M 155.887 238.001 C 155.887 243.59 160.412 248.114 166 248.114 C 171.589 248.114 176.113 243.59 176.113 238.001 C 176.113 232.412 171.589 227.888 166 227.888 C 160.412 227.888 155.887 232.4 155.887 238.001 L 155.887 238.001 Z  M 193.981 227.211 L 177.081 228.082 C 181.666 233.441 181.739 241.171 177.88 247.098 L 164.319 267.953 C 169.944 268.256 175.738 267.022 180.989 263.973 C 193.981 256.473 199.243 240.747 193.981 227.211 L 193.981 227.211 Z  M 152.174 243.759 L 140.887 221.561 C 137.802 226.279 136 231.941 136 238.001 C 136 253.001 146.984 265.425 161.343 267.627 L 169.049 252.53 C 162.081 253.836 155.355 250.013 152.174 243.759 L 152.174 243.759 Z " fill="rgb(0,0,0)"/></g></g><g><g><g><path d=" M 216.077 85.445 C 216.077 77.008 215.362 68.714 212.931 61.563 C 212.502 60.562 212.645 59.418 212.931 58.417 C 220.51 39.684 221.654 23.811 215.791 14.658 C 212.645 9.653 207.783 7.079 201.634 7.079 C 201.062 7.079 200.347 7.222 199.489 7.365 L 199.489 7.222 C 193.769 9.367 186.19 22.095 183.616 39.112 C 183.473 39.684 183.044 40.113 182.472 40.113 C 179.755 39.827 177.037 39.684 173.891 39.684 C 170.745 39.684 167.885 39.827 165.168 40.113 C 164.596 40.113 164.024 39.827 164.024 39.112 C 162.165 27.386 158.161 17.661 153.871 12.084 C 153.442 11.369 153.156 10.654 152.584 10.082 C 151.154 8.223 149.581 7.365 148.151 7.079 C 148.151 7.079 148.151 7.079 148.151 7.079 L 148.151 7.079 C 147.579 6.936 147.007 6.936 146.578 6.936 C 141.287 6.936 136.568 9.796 133.422 14.944 C 128.559 22.81 126.7 37.968 134.995 57.845 C 135.424 58.846 135.424 59.99 134.995 60.991 C 132.278 68.142 131.705 76.579 131.705 85.302 L 131.705 88.591 C 131.705 105.751 131.705 118.336 144.576 124.771 C 146.292 128.918 150.153 132.35 155.015 133.637 C 156.445 141.216 164.596 146.936 174.463 146.936 C 184.331 146.936 192.625 141.073 193.912 133.351 C 198.488 131.778 202.063 128.632 203.636 124.628 C 216.506 118.05 216.506 105.608 216.506 88.305 L 216.077 85.445 Z  M 191.338 30.532 C 191.338 33.821 191.624 37.11 192.053 40.399 C 192.196 41.257 191.481 41.829 190.623 41.686 C 190.337 41.686 190.194 41.543 189.908 41.543 C 189.336 41.4 188.907 40.828 189.05 40.256 C 189.765 36.681 190.48 33.392 191.338 30.532 Z  M 191.624 59.847 C 194.913 59.847 197.487 62.564 197.487 65.711 C 197.487 69 194.77 71.574 191.624 71.574 C 188.335 71.574 185.761 68.857 185.761 65.711 C 185.761 62.421 188.335 59.847 191.624 59.847 Z  M 156.588 32.534 C 157.16 34.822 157.732 37.396 158.161 40.256 C 158.304 40.828 157.875 41.4 157.303 41.543 C 157.303 41.543 157.303 41.543 157.303 41.543 C 156.588 41.686 155.873 41.114 155.873 40.256 C 156.302 37.682 156.445 35.108 156.588 32.534 Z  M 156.588 59.847 C 159.877 59.847 162.451 62.564 162.451 65.711 C 162.451 69 159.734 71.574 156.588 71.574 C 153.299 71.574 150.725 68.857 150.725 65.711 C 150.725 62.421 153.299 59.847 156.588 59.847 Z  M 143.575 48.121 C 141.144 50.123 137.569 48.979 136.711 45.976 C 133.279 32.963 134.852 23.096 137.998 18.09 C 139.428 15.659 142.002 12.942 146.149 12.942 C 146.864 13.371 147.722 14.086 148.58 15.373 C 150.868 20.236 151.726 31.247 149.438 43.831 C 149.438 44.117 149.152 44.403 148.866 44.546 C 147.007 45.69 145.148 46.834 143.575 48.121 Z  M 174.177 141.502 C 170.173 141.502 166.598 140.358 164.167 138.356 C 162.594 137.069 163.023 134.495 165.025 133.923 C 167.885 133.208 170.459 131.778 172.461 130.062 C 173.319 129.204 174.749 129.204 175.75 130.062 C 177.752 131.921 180.47 133.351 183.33 134.066 C 185.332 134.495 185.904 137.212 184.188 138.499 C 181.614 140.358 178.038 141.502 174.177 141.502 Z  M 198.488 120.481 C 198.488 125.2 193.626 129.061 187.763 129.061 C 181.9 129.061 177.037 125.2 177.037 120.481 L 177.037 120.481 L 177.037 120.481 L 177.037 118.336 C 177.037 115.905 178.467 113.76 180.613 112.759 C 184.045 111.185 186.619 108.182 187.62 104.607 C 188.192 102.748 186.762 101.032 184.903 101.032 L 184.903 101.032 C 183.616 101.032 182.472 101.89 182.186 103.177 C 181.185 106.323 178.038 108.468 174.034 108.468 C 169.887 108.468 166.741 106.323 165.883 103.034 C 165.597 101.89 164.453 101.032 163.309 101.032 L 163.166 101.032 C 161.307 101.032 159.877 102.891 160.449 104.75 C 161.593 108.468 164.167 111.471 167.885 113.045 C 170.173 114.046 171.603 116.191 171.603 118.765 L 171.603 120.767 C 171.46 125.343 166.598 129.061 160.592 129.061 C 154.586 129.061 149.581 125.2 149.581 120.481 L 149.581 107.753 C 149.581 94.025 160.878 82.156 174.606 82.442 C 188.049 82.728 198.774 93.596 198.774 107.038 L 198.774 120.481 L 198.488 120.481 Z  M 204.208 48.407 C 202.635 47.12 200.919 45.833 199.06 44.832 C 198.774 44.689 198.488 44.403 198.488 44.117 C 195.771 29.96 197.058 17.661 200.061 13.943 C 200.776 12.942 201.348 12.942 201.634 12.942 C 205.781 12.942 209.07 14.658 211.072 17.804 C 214.79 23.668 214.647 34.107 211.072 46.405 C 210.214 49.408 206.496 50.409 204.208 48.407 Z " fill="rgb(0,0,0)"/></g></g></g><g><g><g><path d=" M 307.207 59.847 C 303.918 59.847 301.344 62.564 301.344 65.711 C 301.344 69 304.061 71.574 307.207 71.574 C 310.496 71.574 313.07 68.857 313.07 65.711 C 313.213 62.421 310.496 59.847 307.207 59.847 Z " fill="rgb(255,255,255)"/><path d=" M 342.243 59.847 C 338.954 59.847 336.38 62.564 336.38 65.711 C 336.38 69 339.097 71.574 342.243 71.574 C 345.532 71.574 348.106 68.857 348.106 65.711 C 348.249 62.421 345.532 59.847 342.243 59.847 Z " fill="rgb(255,255,255)"/><path d=" M 366.696 85.445 C 366.696 76.293 365.981 67.427 362.978 59.99 C 362.978 59.99 362.978 59.99 362.978 59.99 C 371.129 40.542 372.559 24.097 366.553 14.658 C 363.407 9.653 358.545 7.079 352.396 7.079 C 351.824 7.079 351.109 7.222 350.251 7.365 L 350.251 7.222 C 344.388 9.367 336.666 22.667 334.234 40.113 C 334.234 40.113 334.234 40.113 334.234 40.113 C 331.374 39.684 328.085 39.541 324.653 39.541 C 321.078 39.541 317.932 39.684 314.929 40.113 C 314.929 40.113 314.929 40.113 314.929 40.113 C 313.213 27.958 308.923 17.804 304.633 12.084 C 304.204 11.369 303.918 10.654 303.346 10.082 C 301.916 8.223 300.343 7.365 298.913 7.079 C 298.913 7.079 298.913 7.079 298.913 7.079 L 298.913 7.079 C 298.341 6.936 297.769 6.936 297.34 6.936 C 292.049 6.936 287.329 9.796 284.183 14.944 C 279.178 22.953 277.319 38.826 286.328 59.418 C 286.328 59.418 286.328 59.418 286.328 59.418 C 283.182 66.998 282.324 76.007 282.324 85.302 L 282.324 88.591 C 282.324 105.751 282.324 118.336 295.052 124.771 C 295.052 124.771 295.052 124.771 295.052 124.771 C 296.768 128.918 300.629 132.207 305.491 133.637 C 305.491 133.637 305.491 133.637 305.491 133.637 C 306.921 141.216 315.072 146.936 324.939 146.936 C 334.806 146.936 343.101 141.073 344.388 133.494 C 344.388 133.494 344.388 133.494 344.388 133.494 C 348.964 131.921 352.396 128.775 353.969 124.771 C 353.969 124.771 353.969 124.771 353.969 124.771 C 366.839 118.193 366.839 105.751 366.696 88.448 L 366.696 85.445 Z  M 341.957 30.961 C 342.1 34.393 342.386 37.825 342.815 41.114 C 342.815 41.543 342.386 41.972 341.957 41.829 C 341.242 41.686 340.527 41.4 339.669 41.257 C 339.669 41.257 339.669 41.257 339.669 41.257 C 340.241 37.396 340.956 33.964 341.957 30.961 C 341.814 30.818 341.957 30.818 341.957 30.961 Z  M 308.923 41.257 C 308.494 41.4 308.065 41.4 307.636 41.543 C 307.064 41.686 306.349 41.114 306.492 40.542 C 306.778 37.968 307.064 35.251 307.207 32.534 C 307.922 35.108 308.494 37.968 308.923 41.257 C 308.923 41.114 308.923 41.257 308.923 41.257 Z  M 324.796 141.502 C 320.649 141.502 316.931 140.215 314.357 138.07 C 313.499 137.498 314.214 136.211 315.215 136.497 C 320.649 138.356 328.8 138.499 334.377 136.497 C 335.378 136.211 335.95 137.498 335.235 138.07 C 332.661 140.215 328.943 141.502 324.796 141.502 Z  M 338.239 128.918 C 332.232 128.918 327.513 125.057 327.513 120.338 L 327.513 120.338 L 327.513 120.338 L 327.513 114.189 C 327.513 113.903 327.656 113.617 327.942 113.617 C 332.947 112.473 336.666 109.04 337.953 104.464 C 338.525 102.605 337.095 100.889 335.235 100.889 L 335.235 100.889 C 333.948 100.889 332.804 101.747 332.518 103.034 C 331.517 106.18 328.371 108.468 324.367 108.468 C 320.22 108.468 317.074 106.323 316.216 103.034 C 315.787 101.747 314.786 100.889 313.499 100.889 L 313.356 100.889 C 311.497 100.889 310.067 102.748 310.639 104.464 C 312.069 109.326 316.216 112.902 321.793 113.76 C 321.793 113.76 321.793 113.76 321.793 113.76 C 321.793 114.332 321.793 120.338 321.793 120.338 C 321.65 124.914 316.788 128.632 310.782 128.632 C 304.776 128.632 299.771 124.771 299.771 120.052 L 299.771 107.467 C 299.771 92.738 311.783 81.012 326.369 82.156 C 339.097 83.157 349.107 93.739 349.107 106.752 L 349.107 120.052 C 349.107 125.2 344.245 128.918 338.239 128.918 Z  M 354.827 114.332 L 354.827 107.896 C 354.827 91.451 342.1 77.294 325.511 76.722 C 308.208 76.15 294.051 90.021 294.051 107.038 L 294.051 114.189 C 294.051 115.333 292.478 115.905 291.763 114.904 C 288.044 109.612 287.758 101.461 287.901 88.591 L 287.901 85.159 C 287.901 55.986 297.769 45.118 324.51 45.118 C 351.109 45.118 361.119 55.986 361.119 85.159 L 361.119 88.591 C 361.119 101.461 360.976 109.612 357.258 114.904 C 356.4 116.048 354.827 115.476 354.827 114.332 Z " fill="rgb(255,255,255)"/></g></g></g></g></svg>