<?xml version="1.0" encoding="UTF-8" standalone="no"?><!-- Generator: Gravit.io --><svg xmlns="http://www.w3.org/2000/svg" xmlns:xlink="http://www.w3.org/1999/xlink" style="isolation:isolate" viewBox="26 184.284 350 70" width="350pt" height="70pt"><defs><clipPath id="_clipPath_rffEcA6zz9QnSwufwwx9Ai6uZkjuMMEn"><rect width="560" height="315"/></clipPath></defs><g clip-path="url(#_clipPath_rffEcA6zz9QnSwufwwx9Ai6uZkjuMMEn)"><rect width="560" height="315" style="fill:rgb(255,0,0)" fill-opacity="0"/><g style="isolation:isolate"><g><path d=" M 261 -45 L 750.999 -45 L 750.999 75 L 261 75 L 261 -45 Z " fill="none"/><path d=" M 565.238 7.414 C 565.238 6.273 564.528 5.689 563.296 5.689 L 559.784 5.689 L 559.784 10.464 L 562.649 10.464 C 564.097 10.464 565.238 10.156 565.238 8.678 L 565.238 7.414 Z  M 564.498 -1.152 C 564.498 -2.045 563.943 -2.601 562.649 -2.601 L 559.784 -2.601 L 559.784 2.083 L 562.649 2.083 C 563.881 2.083 564.498 1.467 564.498 0.635 L 564.498 -1.152 Z  M 563.913 14.192 L 555.163 14.192 L 555.163 -6.329 L 563.266 -6.329 C 567.549 -6.329 569.12 -4.603 569.12 -1.831 L 569.12 0.264 C 569.12 1.745 568.474 2.792 566.84 3.5 C 568.534 3.901 569.86 5.38 569.86 7.29 L 569.86 9.293 C 569.86 12.191 568.01 14.192 563.913 14.192 Z " fill="rgb(55,53,53)"/><path d=" M 572.789 -0.814 L 577.225 -0.814 L 577.225 14.192 L 572.789 14.192 L 572.789 -0.814 Z  M 572.789 -7.406 L 577.225 -7.406 L 577.225 -2.691 L 572.789 -2.691 L 572.789 -7.406 Z " fill="rgb(55,53,53)"/><path d=" M 585.668 10.587 C 586.316 10.65 586.87 10.65 587.486 10.65 C 589.705 10.65 590.105 9.632 590.105 8.215 L 590.105 4.333 C 590.105 3.346 589.675 2.73 588.504 2.73 C 587.548 2.73 586.501 3.131 585.668 3.563 L 585.668 10.587 Z  M 587.332 14.501 C 585.731 14.501 583.297 14.346 581.232 14.009 L 581.232 -6.945 L 585.668 -7.562 L 585.668 -0.289 C 586.87 -0.751 588.287 -1.12 589.92 -1.12 C 593.248 -1.12 594.543 0.944 594.543 4.301 L 594.543 8.184 C 594.543 11.758 593.527 14.501 587.332 14.501 Z " fill="rgb(55,53,53)"/><path d=" M 597.78 14.192 L 597.78 -6.945 L 602.217 -7.562 L 602.217 14.192 L 597.78 14.192 Z " fill="rgb(55,53,53)"/><path d=" M 606.224 -0.814 L 610.66 -0.814 L 610.66 14.192 L 606.224 14.192 L 606.224 -0.814 Z  M 606.224 -7.406 L 610.66 -7.406 L 610.66 -2.691 L 606.224 -2.691 L 606.224 -7.406 Z " fill="rgb(55,53,53)"/><path d=" M 623.017 8.554 L 623.017 4.825 C 623.017 3.407 622.278 2.606 620.675 2.606 C 619.072 2.606 618.333 3.407 618.333 4.825 L 618.333 8.554 C 618.333 9.972 619.072 10.773 620.675 10.773 C 622.278 10.773 623.017 9.972 623.017 8.554 Z  M 613.896 8.431 L 613.896 4.948 C 613.896 1.868 615.345 -1.12 620.675 -1.12 C 626.005 -1.12 627.454 1.868 627.454 4.948 L 627.454 8.431 C 627.454 11.511 626.005 14.501 620.675 14.501 C 615.345 14.501 613.896 11.511 613.896 8.431 Z " fill="rgb(55,53,53)"/><path d=" M 638.983 13.946 C 638.059 14.285 636.949 14.5 635.84 14.5 C 633.314 14.5 632.112 13.577 632.112 11.08 L 632.112 1.345 L 629.462 1.345 L 629.462 -0.814 L 632.112 -0.814 L 632.112 -4.51 L 634.699 -4.881 L 634.699 -0.814 L 638.953 -0.814 L 638.736 1.345 L 634.699 1.345 L 634.699 10.649 C 634.699 11.758 634.854 12.314 636.24 12.314 C 636.949 12.314 637.689 12.191 638.644 11.944 L 638.983 13.946 Z " fill="rgb(55,53,53)"/><path d=" M 651.586 14.192 L 651.586 2.73 C 651.586 1.745 651.093 1.344 650.138 1.344 C 649.029 1.344 646.718 2.053 645.116 2.884 L 645.116 14.192 L 642.527 14.192 L 642.527 -6.945 L 645.116 -7.315 L 645.116 0.45 C 646.779 -0.35 649.153 -1.12 650.908 -1.12 C 653.312 -1.12 654.174 0.388 654.174 2.7 L 654.174 14.192 L 651.586 14.192 Z " fill="rgb(55,53,53)"/><path d=" M 660.77 5.535 L 667.21 5.535 L 667.21 4.301 C 667.21 2.205 666.502 1.035 664.067 1.035 C 661.633 1.035 660.77 2.205 660.77 4.301 L 660.77 5.535 Z  M 664.961 -2.631 C 663.389 -3.463 662.095 -4.264 660.678 -5.311 L 661.786 -7.038 C 662.866 -6.145 664.467 -5.127 666.008 -4.233 L 664.961 -2.631 Z  M 664.344 12.282 C 665.824 12.282 667.457 12.004 669.09 11.574 L 669.428 13.638 C 668.012 14.162 666.008 14.5 664.129 14.5 C 659.692 14.5 658.182 12.375 658.182 8.985 L 658.182 4.488 C 658.182 1.375 659.6 -1.121 664.067 -1.121 C 668.504 -1.121 669.706 1.435 669.706 4.548 L 669.706 7.69 L 660.77 7.69 L 660.77 8.955 C 660.77 11.327 661.417 12.282 664.344 12.282 Z " fill="rgb(55,53,53)"/><path d=" M 682.248 1.375 C 681.231 1.221 680.214 1.158 679.29 1.158 C 676.24 1.158 675.685 2.392 675.685 4.394 L 675.685 9.909 C 675.685 11.45 676.363 12.221 678.12 12.221 C 679.445 12.221 681.231 11.573 682.248 11.08 L 682.248 1.375 Z  M 673.097 4.488 C 673.097 1.066 674.329 -1.12 679.475 -1.12 C 680.862 -1.12 683.111 -0.937 684.837 -0.537 L 684.837 20.263 L 682.248 20.632 L 682.248 13.452 C 681.201 14.008 679.413 14.501 677.502 14.501 C 674.391 14.501 673.097 12.683 673.097 9.817 L 673.097 4.488 Z " fill="rgb(55,53,53)"/><path d=" M 692.202 -0.814 L 692.202 10.649 C 692.202 11.634 692.696 12.036 693.651 12.036 C 694.76 12.036 697.071 11.358 698.673 10.526 L 698.673 -0.814 L 701.262 -0.814 L 701.262 14.193 L 699.166 14.193 L 698.92 12.899 C 697.256 13.699 694.668 14.5 692.881 14.5 C 690.477 14.5 689.615 12.991 689.615 10.68 L 689.615 -0.814 L 692.202 -0.814 Z " fill="rgb(55,53,53)"/><path d=" M 708.011 5.535 L 714.451 5.535 L 714.451 4.301 C 714.451 2.205 713.743 1.035 711.309 1.035 C 708.874 1.035 708.011 2.205 708.011 4.301 L 708.011 5.535 Z  M 711.585 12.282 C 713.065 12.282 714.698 12.004 716.331 11.574 L 716.669 13.638 C 715.253 14.162 713.249 14.5 711.37 14.5 C 706.933 14.5 705.423 12.375 705.423 8.985 L 705.423 4.488 C 705.423 1.375 706.841 -1.121 711.309 -1.121 C 715.745 -1.121 716.947 1.435 716.947 4.548 L 716.947 7.69 L 708.011 7.69 L 708.011 8.955 C 708.011 11.327 708.658 12.282 711.585 12.282 Z " fill="rgb(55,53,53)"/><path d=" M 725.176 14.5 C 723.635 14.5 721.601 14.162 720.398 13.699 L 720.738 11.666 C 722.032 12.036 723.727 12.281 725.021 12.281 C 727.394 12.281 727.795 11.85 727.795 10.249 C 727.795 8.647 727.671 8.461 724.651 7.721 C 720.923 6.797 720.584 6.027 720.584 2.916 C 720.584 0.141 721.816 -1.121 725.76 -1.121 C 727.21 -1.121 728.78 -0.937 730.013 -0.596 L 729.829 1.529 C 728.565 1.282 726.901 1.098 725.669 1.098 C 723.451 1.098 723.141 1.622 723.141 2.977 C 723.141 4.641 723.173 4.948 725.699 5.565 C 730.013 6.643 730.352 7.166 730.352 10.156 C 730.352 13.083 729.458 14.5 725.176 14.5 Z " fill="rgb(55,53,53)"/><path d=" M 557.242 24.8 L 557.242 34.352 C 557.242 35.174 557.653 35.508 558.448 35.508 C 559.373 35.508 561.299 34.943 562.634 34.249 L 562.634 24.8 L 564.791 24.8 L 564.791 37.305 L 563.046 37.305 L 562.841 36.227 C 561.453 36.894 559.297 37.562 557.808 37.562 C 555.803 37.562 555.084 36.304 555.084 34.378 L 555.084 24.8 L 557.242 24.8 Z " fill="rgb(55,53,53)"/><path d=" M 576.45 37.305 L 576.45 27.752 C 576.45 26.93 576.04 26.597 575.244 26.597 C 574.319 26.597 572.393 27.161 571.057 27.855 L 571.057 37.305 L 568.901 37.305 L 568.901 24.8 L 570.646 24.8 L 570.852 25.878 C 572.239 25.21 574.396 24.542 575.885 24.542 C 577.889 24.542 578.607 25.8 578.607 27.726 L 578.607 37.305 L 576.45 37.305 Z " fill="rgb(55,53,53)"/><path d=" M 582.588 24.8 L 584.745 24.8 L 584.745 37.305 L 582.588 37.305 L 582.588 24.8 Z  M 582.588 19.689 L 584.745 19.689 L 584.745 22.795 L 582.588 22.795 L 582.588 19.689 Z " fill="rgb(55,53,53)"/><path d=" M 596.018 24.8 L 598.149 24.8 L 594.015 37.305 L 591.14 37.305 L 587.005 24.8 L 589.137 24.8 L 592.577 35.533 L 596.018 24.8 Z " fill="rgb(55,53,53)"/><path d=" M 601.925 30.089 L 607.291 30.089 L 607.291 29.062 C 607.291 27.315 606.701 26.34 604.673 26.34 C 602.644 26.34 601.925 27.315 601.925 29.062 L 601.925 30.089 Z  M 604.904 35.713 C 606.137 35.713 607.496 35.483 608.858 35.123 L 609.141 36.843 C 607.961 37.279 606.291 37.562 604.724 37.562 C 601.027 37.562 599.767 35.79 599.767 32.965 L 599.767 29.216 C 599.767 26.622 600.949 24.542 604.673 24.542 C 608.371 24.542 609.372 26.674 609.372 29.268 L 609.372 31.887 L 601.925 31.887 L 601.925 32.939 C 601.925 34.918 602.464 35.713 604.904 35.713 Z " fill="rgb(55,53,53)"/><path d=" M 618.489 26.52 C 617.307 27.085 615.946 27.958 614.919 28.677 L 614.919 37.305 L 612.762 37.305 L 612.762 24.8 L 614.636 24.8 L 614.765 26.545 C 615.689 25.826 616.975 25.056 618.206 24.542 L 618.489 26.52 Z " fill="rgb(55,53,53)"/><path d=" M 624.139 37.562 C 622.855 37.562 621.159 37.28 620.158 36.894 L 620.441 35.198 C 621.519 35.508 622.931 35.713 624.01 35.713 C 625.988 35.713 626.321 35.353 626.321 34.019 C 626.321 32.683 626.219 32.528 623.702 31.912 C 620.595 31.142 620.312 30.499 620.312 27.906 C 620.312 25.595 621.339 24.542 624.626 24.542 C 625.833 24.542 627.144 24.697 628.17 24.979 L 628.016 26.751 C 626.964 26.545 625.577 26.391 624.549 26.391 C 622.701 26.391 622.445 26.828 622.445 27.959 C 622.445 29.344 622.469 29.601 624.575 30.115 C 628.17 31.014 628.453 31.45 628.453 33.941 C 628.453 36.38 627.709 37.562 624.139 37.562 Z " fill="rgb(55,53,53)"/><path d=" M 631.945 24.8 L 634.103 24.8 L 634.103 37.305 L 631.945 37.305 L 631.945 24.8 Z  M 631.945 19.689 L 634.103 19.689 L 634.103 22.795 L 631.945 22.795 L 631.945 19.689 Z " fill="rgb(55,53,53)"/><path d=" M 644.733 37.099 C 643.963 37.382 643.039 37.562 642.114 37.562 C 640.009 37.562 639.008 36.791 639.008 34.711 L 639.008 26.597 L 636.798 26.597 L 636.798 24.8 L 639.008 24.8 L 639.008 21.717 L 641.163 21.41 L 641.163 24.8 L 644.708 24.8 L 644.528 26.597 L 641.163 26.597 L 641.163 34.352 C 641.163 35.276 641.292 35.738 642.448 35.738 C 643.039 35.738 643.655 35.636 644.451 35.431 L 644.733 37.099 Z " fill="rgb(55,53,53)"/><path d=" M 654.389 32.246 L 651.204 32.246 C 649.87 32.246 649.381 32.657 649.381 33.915 C 649.381 35.199 649.613 35.713 651.153 35.713 C 652.232 35.713 653.439 35.302 654.389 34.685 L 654.389 32.246 Z  M 656.547 37.305 L 654.723 37.305 L 654.595 36.38 C 653.49 37.151 652.052 37.562 650.538 37.562 C 648.201 37.562 647.225 36.175 647.225 33.966 C 647.225 31.374 648.534 30.449 651.051 30.449 L 654.389 30.449 L 654.389 28.497 C 654.389 26.93 653.696 26.391 651.668 26.391 C 650.46 26.391 648.894 26.597 647.918 26.802 L 647.687 25.081 C 648.868 24.774 650.46 24.542 651.795 24.542 C 655.365 24.542 656.547 25.929 656.547 28.6 L 656.547 37.305 Z " fill="rgb(55,53,53)"/><path d=" M 660.347 24.8 L 662.504 24.8 L 662.504 37.305 L 660.347 37.305 L 660.347 24.8 Z  M 660.347 19.689 L 662.504 19.689 L 662.504 22.795 L 660.347 22.795 L 660.347 19.689 Z " fill="rgb(55,53,53)"/><path d=" M 672.34 26.52 C 671.157 27.085 669.797 27.958 668.77 28.677 L 668.77 37.305 L 666.613 37.305 L 666.613 24.8 L 668.487 24.8 L 668.616 26.545 C 669.54 25.826 670.825 25.056 672.057 24.542 L 672.34 26.52 Z " fill="rgb(55,53,53)"/><path d=" M 676.089 30.089 L 681.456 30.089 L 681.456 29.062 C 681.456 27.315 680.865 26.34 678.837 26.34 C 676.808 26.34 676.089 27.315 676.089 29.062 L 676.089 30.089 Z  M 679.067 35.713 C 680.301 35.713 681.661 35.483 683.022 35.123 L 683.305 36.843 C 682.124 37.279 680.454 37.562 678.888 37.562 C 675.19 37.562 673.932 35.79 673.932 32.965 L 673.932 29.216 C 673.932 26.622 675.112 24.542 678.837 24.542 C 682.535 24.542 683.536 26.674 683.536 29.268 L 683.536 31.887 L 676.089 31.887 L 676.089 32.939 C 676.089 34.918 676.628 35.713 679.067 35.713 Z " fill="rgb(55,53,53)"/><path d=" M 690.393 37.562 C 689.109 37.562 687.414 37.28 686.411 36.894 L 686.695 35.198 C 687.773 35.508 689.185 35.713 690.264 35.713 C 692.242 35.713 692.576 35.353 692.576 34.019 C 692.576 32.683 692.472 32.528 689.956 31.912 C 686.849 31.142 686.566 30.499 686.566 27.906 C 686.566 25.595 687.593 24.542 690.879 24.542 C 692.087 24.542 693.397 24.697 694.425 24.979 L 694.27 26.751 C 693.217 26.545 691.831 26.391 690.803 26.391 C 688.955 26.391 688.697 26.828 688.697 27.959 C 688.697 29.344 688.724 29.601 690.829 30.115 C 694.425 31.014 694.706 31.45 694.706 33.941 C 694.706 36.38 693.962 37.562 690.393 37.562 Z " fill="rgb(55,53,53)"/><line x1="535.084" y1="-25" x2="535.084" y2="55" vector-effect="non-scaling-stroke" stroke-width="0.856" stroke="rgb(0,125,195)" stroke-linejoin="miter" stroke-linecap="square" stroke-miterlimit="3"/><g><path d=" M 317.753 -10.21 L 313.111 4.183 L 322.394 4.183 L 317.753 -10.21 L 317.753 -10.21 Z  M 328.79 13.347 L 325.396 13.347 L 323.251 7.107 L 312.214 7.107 L 310.108 13.347 L 306.717 13.347 L 315.491 -12.625 L 320.014 -12.625 L 328.79 13.347" fill="rgb(35,31,32)"/><path d=" M 333.001 13.347 L 333.001 -5.645 L 336.276 -5.645 L 336.276 13.347 L 333.001 13.347 Z  M 333.001 -8.689 L 333.001 -13.407 L 336.276 -13.407 L 336.276 -8.689 L 333.001 -8.689 Z " fill="rgb(35,31,32)"/><path d=" M 340.098 13.347 L 346.338 3.791 L 340.214 -5.645 L 343.609 -5.645 L 348.131 1.336 L 352.656 -5.645 L 356.048 -5.645 L 349.887 3.791 L 356.165 13.347 L 352.734 13.347 L 348.131 6.288 L 343.57 13.347 L 340.098 13.347 Z " fill="rgb(35,31,32)"/><path d=" M 382.739 -7.713 L 382.233 13.347 L 378.997 13.347 L 379.893 -12.625 L 384.145 -12.625 L 391.631 7.458 L 399.12 -12.625 L 403.37 -12.625 L 404.267 13.347 L 401.031 13.347 L 400.523 -7.713 L 393.895 9.991 L 389.37 9.991 L 382.739 -7.713" fill="rgb(35,31,32)"/><path d=" M 418.827 5.663 L 413.989 5.663 C 411.963 5.663 411.22 6.288 411.22 8.198 C 411.22 10.149 411.573 10.928 413.912 10.928 C 415.551 10.928 417.383 10.305 418.827 9.369 L 418.827 5.663 L 418.827 5.663 Z  M 422.101 13.347 L 419.332 13.347 L 419.137 11.941 C 417.461 13.112 415.277 13.736 412.977 13.736 C 409.428 13.736 407.946 11.63 407.946 8.276 C 407.946 4.338 409.934 2.933 413.758 2.933 L 418.827 2.933 L 418.827 -0.03 C 418.827 -2.41 417.774 -3.229 414.692 -3.229 C 412.861 -3.229 411.084 -3.044 409.604 -2.734 L 409.252 -5.346 C 411.044 -5.815 412.861 -6.036 414.887 -6.036 C 420.308 -6.036 422.101 -3.931 422.101 0.125 L 422.101 13.347" fill="rgb(35,31,32)"/><path d=" M 435.9 -3.033 C 434.104 -2.176 432.039 -0.848 430.479 0.244 L 430.479 13.347 L 427.203 13.347 L 427.203 -5.645 L 430.052 -5.645 L 430.245 -2.994 C 431.65 -4.086 433.599 -5.255 435.472 -6.036 L 435.9 -3.033 Z " fill="rgb(35,31,32)"/><path d=" M 444.481 13.736 C 442.53 13.736 439.956 13.307 438.435 12.723 L 438.865 10.149 C 440.501 10.616 442.647 10.928 444.285 10.928 C 447.288 10.928 447.794 10.383 447.794 8.355 C 447.794 6.328 447.639 6.092 443.816 5.156 C 439.099 3.986 438.67 3.011 438.67 -0.927 C 438.67 -4.437 440.23 -6.036 445.221 -6.036 C 447.054 -6.036 449.043 -5.802 450.603 -5.373 L 450.368 -2.681 C 448.772 -2.994 446.665 -3.229 445.103 -3.229 C 442.297 -3.229 441.906 -2.565 441.906 -0.848 C 441.906 1.258 441.945 1.646 445.143 2.427 C 450.603 3.791 451.031 4.455 451.031 8.238 C 451.031 11.941 449.901 13.736 444.481 13.736 Z " fill="rgb(35,31,32)"/><path d=" M 458.189 2.387 L 466.341 2.387 L 466.341 0.827 C 466.341 -1.824 465.444 -3.307 462.363 -3.307 C 459.281 -3.307 458.189 -1.824 458.189 0.827 L 458.189 2.387 Z  M 462.714 10.928 C 464.584 10.928 466.651 10.578 468.719 10.031 L 469.148 12.645 C 467.355 13.307 464.82 13.736 462.441 13.736 C 456.826 13.736 454.913 11.045 454.913 6.756 L 454.913 1.062 C 454.913 -2.877 456.709 -6.036 462.363 -6.036 C 467.978 -6.036 469.5 -2.799 469.5 1.14 L 469.5 5.118 L 458.189 5.118 L 458.189 6.716 C 458.189 9.72 459.007 10.928 462.714 10.928 Z " fill="rgb(35,31,32)"/><path d=" M 473.791 13.347 L 473.791 -5.645 L 477.069 -5.645 L 477.069 13.347 L 473.791 13.347 Z  M 473.791 -8.689 L 473.791 -13.407 L 477.069 -13.407 L 477.069 -8.689 L 473.791 -8.689 Z " fill="rgb(35,31,32)"/><path d=" M 483.308 13.347 L 483.308 -13.407 L 486.581 -13.875 L 486.581 13.347 L 483.308 13.347 Z " fill="rgb(35,31,32)"/><path d=" M 492.822 13.347 L 492.822 -13.407 L 496.1 -13.875 L 496.1 13.347 L 492.822 13.347 Z " fill="rgb(35,31,32)"/><path d=" M 503.337 2.387 L 511.489 2.387 L 511.489 0.827 C 511.489 -1.824 510.592 -3.307 507.511 -3.307 C 504.429 -3.307 503.337 -1.824 503.337 0.827 L 503.337 2.387 Z  M 507.863 10.928 C 509.733 10.928 511.8 10.578 513.867 10.031 L 514.294 12.645 C 512.502 13.307 509.967 13.736 507.588 13.736 C 501.972 13.736 500.063 11.045 500.063 6.756 L 500.063 1.062 C 500.063 -2.877 501.856 -6.036 507.511 -6.036 C 513.127 -6.036 514.647 -2.799 514.647 1.14 L 514.647 5.118 L 503.337 5.118 L 503.337 6.716 C 503.337 9.72 504.156 10.928 507.863 10.928" fill="rgb(35,31,32)"/><path d=" M 351.661 20.731 L 351.661 35.93 C 351.661 37.319 352.395 37.821 353.707 37.821 C 355.248 37.821 358.567 36.895 360.921 35.66 L 360.921 20.731 L 363.158 20.731 L 363.158 39.518 L 361.191 39.518 L 361.036 37.821 C 359.03 38.783 355.672 39.903 353.398 39.903 C 350.466 39.903 349.424 38.244 349.424 35.66 L 349.424 20.731 L 351.661 20.731" fill="rgb(77,198,244)"/><path d=" M 381.701 39.518 L 381.701 24.318 C 381.701 22.93 380.967 22.427 379.656 22.427 C 378.114 22.427 374.796 23.356 372.444 24.59 L 372.444 39.518 L 370.203 39.518 L 370.203 20.731 L 372.173 20.731 L 372.326 22.427 C 374.332 21.465 377.689 20.346 379.964 20.346 C 382.897 20.346 383.939 22.006 383.939 24.59 L 383.939 39.518 L 381.701 39.518" fill="rgb(77,198,244)"/><path d=" M 389.801 39.518 L 389.801 26.988 L 392.039 26.988 L 392.039 39.518 L 389.801 39.518 L 389.801 39.518 Z  M 389.801 24.772 L 389.801 20.645 L 392.039 20.645 L 392.039 24.772 L 389.801 24.772 Z " fill="rgb(77,198,244)"/><path d=" M 406.344 39.518 L 402.912 39.518 L 396.544 20.731 L 398.822 20.731 L 404.607 37.936 L 410.434 20.731 L 412.708 20.731 L 406.344 39.518" fill="rgb(77,198,244)"/><path d=" M 417.856 28.795 L 427.266 28.795 L 427.266 27.096 C 427.266 23.933 426.148 22.274 422.637 22.274 C 419.128 22.274 417.856 23.933 417.856 27.096 L 417.856 28.795 Z  M 422.754 37.936 C 424.681 37.936 426.844 37.551 428.694 37.049 L 429.081 38.861 C 427.345 39.478 424.874 39.903 422.598 39.903 C 417.312 39.903 415.619 37.164 415.619 33.076 L 415.619 27.174 C 415.619 23.316 417.353 20.346 422.637 20.346 C 427.922 20.346 429.468 23.316 429.468 27.174 L 429.468 30.799 L 417.856 30.799 L 417.856 33.152 C 417.856 36.507 419.012 37.936 422.754 37.936" fill="rgb(77,198,244)"/><path d=" M 443.203 22.545 C 441.236 23.395 439.075 24.821 437.261 26.017 L 437.261 39.518 L 435.026 39.518 L 435.026 20.731 L 437.032 20.731 L 437.146 23.587 C 439.151 22.274 441.157 21.001 442.933 20.346 L 443.203 22.545" fill="rgb(77,198,244)"/><path d=" M 452.51 39.903 C 450.618 39.903 448.383 39.518 446.993 38.939 L 447.378 37.126 C 448.997 37.626 450.965 37.898 452.354 37.898 C 455.825 37.898 456.521 37.241 456.521 34.85 C 456.521 32.149 456.445 31.88 452.163 30.876 C 447.456 29.757 447.071 28.601 447.071 25.169 C 447.071 22.045 448.574 20.346 453.202 20.346 C 454.939 20.346 457.059 20.577 458.526 21.001 L 458.294 22.891 C 456.791 22.584 454.593 22.351 453.048 22.351 C 449.769 22.351 449.308 23.202 449.308 25.244 C 449.308 27.828 449.461 28.098 452.931 28.987 C 458.448 30.375 458.758 31.261 458.758 34.773 C 458.758 38.167 457.524 39.903 452.51 39.903" fill="rgb(77,198,244)"/><path d=" M 464.187 39.518 L 464.187 26.988 L 466.426 26.988 L 466.426 39.518 L 464.187 39.518 L 464.187 39.518 Z  M 464.187 24.772 L 464.187 20.645 L 466.426 20.645 L 466.426 24.772 L 464.187 24.772 Z " fill="rgb(77,198,244)"/><path d=" M 482.591 39.317 C 481.513 39.744 480.452 39.903 479.1 39.903 C 476.131 39.903 474.856 38.822 474.856 35.853 L 474.856 22.66 L 471.231 22.66 L 471.231 20.731 L 474.856 20.731 L 474.856 16.939 L 477.096 16.632 L 477.096 20.731 L 482.213 20.731 L 481.981 22.66 L 477.096 22.66 L 477.096 35.62 C 477.096 37.28 477.325 37.976 479.255 37.976 C 480.294 37.976 481.048 37.928 482.167 37.583 L 482.591 39.317" fill="rgb(77,198,244)"/><path d=" M 487.995 28.795 L 497.41 28.795 L 497.41 27.096 C 497.41 23.933 496.289 22.274 492.779 22.274 C 489.269 22.274 487.995 23.933 487.995 27.096 L 487.995 28.795 Z  M 492.896 37.936 C 494.823 37.936 496.985 37.551 498.835 37.049 L 499.222 38.861 C 497.485 39.478 495.016 39.903 492.742 39.903 C 487.454 39.903 485.758 37.164 485.758 33.076 L 485.758 27.174 C 485.758 23.316 487.496 20.346 492.779 20.346 C 498.062 20.346 499.608 23.316 499.608 27.174 L 499.608 30.799 L 487.995 30.799 L 487.995 33.152 C 487.995 36.507 489.153 37.936 492.896 37.936" fill="rgb(77,198,244)"/><path d=" M 490.341 17.274 C 492.072 16.715 494.113 16.039 496.052 15.295 L 496.72 17.215 C 494.821 17.969 492.71 18.588 490.96 19.062 L 490.341 17.274 Z " fill="rgb(77,198,244)"/><path d=" M 366.687 -9.624 C 366.687 -9.624 365.828 -9.261 365.828 -8.872 L 365.828 1.913 C 365.828 4.31 365.828 6.519 365.828 6.519 L 365.828 12.458 C 365.828 12.844 366.696 13.208 366.696 13.208 C 366.696 13.208 367.556 12.845 367.556 12.458 L 367.556 6.519 C 367.556 6.519 367.556 4.31 367.556 1.913 L 367.556 -8.872 C 367.556 -9.258 366.687 -9.624 366.687 -9.624 Z " fill="rgb(250,178,11)"/><path d=" M 366.567 -9.341 L 366.687 -9.624 L 366.567 -9.341 L 366.567 -9.341 Z  M 366.14 12.463 C 366.145 12.475 366.163 12.5 366.188 12.53 L 366.188 12.53 C 366.243 12.587 366.332 12.658 366.429 12.72 L 366.429 12.72 C 366.525 12.782 366.622 12.834 366.694 12.87 L 366.694 12.87 C 366.75 12.843 366.817 12.808 366.888 12.765 L 366.888 12.765 C 367.055 12.672 367.224 12.521 367.243 12.464 L 367.243 12.464 C 367.251 12.459 367.248 12.458 367.248 12.458 L 367.248 6.519 C 367.248 6.519 367.248 4.31 367.248 1.913 L 367.248 -8.868 C 367.248 -8.87 367.247 -8.873 367.244 -8.878 L 367.244 -8.878 C 367.238 -8.891 367.221 -8.916 367.194 -8.944 L 367.194 -8.944 C 367.14 -9.004 367.05 -9.074 366.956 -9.134 L 366.956 -9.134 C 366.858 -9.196 366.761 -9.249 366.688 -9.286 L 366.688 -9.286 C 366.633 -9.258 366.566 -9.223 366.494 -9.18 L 366.494 -9.18 C 366.328 -9.087 366.158 -8.936 366.14 -8.88 L 366.14 -8.88 C 366.133 -8.873 366.134 -8.873 366.134 -8.873 L 366.135 -8.873 L 366.135 1.913 C 366.134 4.31 366.134 6.519 366.134 6.519 L 366.135 6.519 L 366.134 12.451 C 366.135 12.453 366.136 12.457 366.14 12.463 L 366.14 12.463 L 366.14 12.463 Z  M 366.578 13.492 C 366.568 13.487 366.339 13.393 366.096 13.236 L 366.096 13.236 C 365.866 13.07 365.553 12.89 365.52 12.458 L 365.52 6.519 C 365.52 6.519 365.52 4.31 365.52 1.913 L 365.52 -8.873 C 365.551 -9.303 365.863 -9.486 366.09 -9.651 L 366.09 -9.651 C 366.33 -9.807 366.557 -9.902 366.566 -9.907 L 366.566 -9.907 L 366.685 -9.959 L 366.805 -9.907 C 366.815 -9.904 367.043 -9.807 367.287 -9.651 L 367.287 -9.651 C 367.518 -9.485 367.829 -9.305 367.863 -8.873 L 367.863 1.913 C 367.862 4.31 367.862 6.519 367.862 6.519 L 367.863 6.519 L 367.862 12.458 C 367.831 12.888 367.521 13.07 367.293 13.236 L 367.293 13.236 C 367.052 13.393 366.825 13.487 366.816 13.492 L 366.816 13.492 L 366.696 13.542 L 366.578 13.492 L 366.578 13.492" fill="rgb(250,178,11)"/><path d=" M 358.902 -0.275 C 358.902 -0.275 358.787 0.65 359.123 0.844 L 364.265 3.813 C 366.341 5.012 368.254 6.116 368.254 6.116 L 373.397 9.085 C 373.731 9.278 374.482 8.708 374.482 8.708 C 374.482 8.708 374.597 7.782 374.261 7.588 L 369.117 4.619 C 369.117 4.619 367.205 3.514 365.129 2.317 L 359.987 -0.653 C 359.652 -0.847 358.902 -0.275 358.902 -0.275" fill="rgb(250,178,11)"/><path d=" M 373.565 8.817 C 373.637 8.824 373.849 8.746 374.008 8.649 L 374.008 8.649 C 374.078 8.611 374.139 8.571 374.187 8.54 L 374.187 8.54 C 374.191 8.489 374.194 8.428 374.194 8.361 L 374.194 8.361 C 374.204 8.149 374.141 7.881 374.107 7.854 L 374.107 7.854 L 374.103 7.852 L 374.103 7.852 L 368.964 4.885 C 368.96 4.882 367.051 3.781 364.976 2.583 L 364.976 2.583 L 359.838 -0.384 C 359.838 -0.384 359.83 -0.386 359.819 -0.386 L 359.819 -0.386 C 359.746 -0.392 359.535 -0.313 359.374 -0.217 L 359.374 -0.217 C 359.305 -0.18 359.243 -0.139 359.195 -0.107 L 359.195 -0.107 C 359.19 -0.058 359.188 0.004 359.188 0.07 L 359.188 0.07 C 359.178 0.284 359.243 0.553 359.275 0.578 L 359.275 0.578 L 364.419 3.546 C 366.494 4.745 368.402 5.847 368.407 5.85 L 368.407 5.85 L 373.545 8.817 C 373.548 8.817 373.555 8.817 373.565 8.817 L 373.565 8.817 L 373.565 8.817 Z  M 373.243 9.351 L 368.1 6.382 C 368.1 6.382 366.187 5.278 364.111 4.079 L 364.111 4.079 L 358.969 1.11 C 358.749 0.976 358.675 0.77 358.629 0.594 L 358.629 0.594 C 358.584 0.412 358.576 0.227 358.575 0.07 L 358.575 0.07 C 358.575 -0.143 358.595 -0.305 358.597 -0.315 L 358.597 -0.315 L 358.613 -0.443 L 358.715 -0.521 C 358.746 -0.526 359.255 -0.975 359.819 -1 L 359.819 -1 C 359.919 -1 360.034 -0.981 360.14 -0.919 L 360.14 -0.919 L 365.283 2.051 C 367.359 3.248 369.271 4.353 369.271 4.353 L 369.271 4.353 L 374.414 7.322 C 374.634 7.457 374.708 7.661 374.754 7.839 L 374.754 7.839 C 374.798 8.02 374.807 8.204 374.809 8.361 L 374.809 8.361 C 374.809 8.575 374.788 8.738 374.786 8.746 L 374.786 8.746 L 374.771 8.874 L 374.668 8.952 C 374.637 8.958 374.128 9.406 373.565 9.432 L 373.565 9.432 C 373.464 9.432 373.351 9.413 373.243 9.351 L 373.243 9.351" fill="rgb(250,178,11)"/><path d=" M 374.482 -0.275 C 374.482 -0.275 374.597 0.65 374.261 0.844 L 369.117 3.813 C 367.043 5.012 365.129 6.116 365.129 6.116 L 359.987 9.085 C 359.652 9.278 358.902 8.708 358.902 8.708 C 358.902 8.708 358.787 7.782 359.123 7.588 L 364.265 4.619 C 364.265 4.619 366.179 3.514 368.254 2.317 L 373.397 -0.653 C 373.731 -0.847 374.482 -0.275 374.482 -0.275" fill="rgb(250,178,11)"/><path d=" M 373.545 -0.385 M 359.374 8.649 C 359.535 8.746 359.745 8.824 359.819 8.818 L 359.819 8.818 L 359.838 8.817 L 359.838 8.817 L 364.976 5.85 C 364.98 5.847 366.889 4.746 368.965 3.548 L 368.965 3.548 L 374.103 0.581 L 374.103 0.58 C 374.103 0.58 374.109 0.573 374.114 0.562 L 374.114 0.562 C 374.128 0.541 374.144 0.499 374.158 0.448 L 374.158 0.448 C 374.183 0.343 374.194 0.198 374.194 0.072 L 374.194 0.072 C 374.194 0.004 374.191 -0.057 374.189 -0.106 L 374.189 -0.106 C 374.141 -0.138 374.078 -0.178 374.008 -0.217 L 374.008 -0.217 C 373.848 -0.313 373.636 -0.392 373.564 -0.386 L 373.564 -0.386 C 373.555 -0.386 373.548 -0.386 373.547 -0.385 L 373.547 -0.385 L 368.407 2.583 C 366.33 3.78 364.423 4.882 364.419 4.885 L 364.419 4.885 L 359.28 7.852 L 359.28 7.852 C 359.277 7.854 359.273 7.859 359.268 7.87 L 359.268 7.87 C 359.255 7.891 359.238 7.932 359.226 7.984 L 359.226 7.984 C 359.199 8.088 359.188 8.234 359.189 8.361 L 359.189 8.361 C 359.189 8.428 359.19 8.489 359.195 8.538 L 359.195 8.538 C 359.243 8.57 359.304 8.611 359.374 8.649 L 359.374 8.649 L 359.374 8.649 Z  M 359.819 9.431 C 359.255 9.406 358.746 8.958 358.715 8.953 L 358.715 8.953 L 358.613 8.874 L 358.597 8.747 C 358.595 8.738 358.575 8.575 358.575 8.361 L 358.575 8.361 C 358.575 8.204 358.585 8.02 358.629 7.839 L 358.629 7.839 C 358.675 7.661 358.749 7.455 358.968 7.322 L 358.968 7.322 L 364.111 4.353 C 364.111 4.353 366.024 3.248 368.1 2.05 L 368.1 2.05 L 373.243 -0.919 C 373.35 -0.981 373.463 -1.001 373.564 -1.001 L 373.564 -1.001 C 374.128 -0.975 374.637 -0.526 374.668 -0.52 L 374.668 -0.52 L 374.482 -0.275 L 374.668 -0.52 L 374.771 -0.443 L 374.787 -0.313 C 374.788 -0.305 374.809 -0.143 374.809 0.072 L 374.809 0.072 C 374.809 0.229 374.797 0.411 374.754 0.594 L 374.754 0.594 C 374.708 0.77 374.633 0.976 374.414 1.11 L 374.414 1.11 L 369.271 4.079 C 367.196 5.278 365.283 6.383 365.283 6.383 L 365.283 6.383 L 360.14 9.351 C 360.034 9.412 359.922 9.431 359.823 9.431 L 359.819 9.431 L 359.819 9.431" fill="rgb(250,178,11)"/><path d=" M 281.647 14.946 C 281.647 10.763 282.007 6.847 282.729 3.203 C 283.45 -0.441 284.542 -4.03 286.013 -7.563 C 287.481 -11.096 289.297 -14.634 291.459 -18.184 C 292.76 -20.345 293.914 -21.852 294.742 -22.859 C 295.597 -23.9 296.502 -25 297.749 -25 C 299.108 -25 299.787 -24.627 299.787 -23.878 C 299.787 -23.627 299.15 -22.126 297.874 -19.368 C 296.599 -16.61 295.401 -13.721 294.279 -10.703 C 293.156 -7.68 292.117 -3.911 291.164 0.606 C 290.205 5.122 289.728 9.903 289.728 14.946 C 289.728 19.934 290.198 24.659 291.141 29.123 C 292.083 33.582 293.417 37.449 294.624 40.718 C 295.83 43.988 296.773 46.919 297.977 49.509 C 299.184 52.1 299.787 53.507 299.787 53.728 C 299.787 54.476 299.108 54.85 297.749 54.85 C 296.475 54.85 295.601 53.577 294.742 52.607 C 293.883 51.635 292.789 50.086 291.459 47.95 C 289.268 44.294 287.46 40.767 286.033 37.373 C 284.605 33.977 283.52 30.451 282.772 26.791 C 282.021 23.135 281.647 19.185 281.647 14.946 Z " fill="rgb(20,118,198)"/><path d=" M 350.462 47.691 L 351.376 47.691 L 350.102 54.939 L 349.189 54.939 L 350.462 47.691 Z " fill="rgb(20,118,198)"/><path d=" M 359.364 50.467 C 359.364 50.586 359.353 50.75 359.321 50.925 L 358.613 54.939 L 357.721 54.939 L 358.438 50.858 C 358.45 50.793 358.461 50.717 358.461 50.674 C 358.461 50.456 358.351 50.38 358.091 50.38 C 357.557 50.38 356.741 50.772 356.089 51.175 L 355.424 54.939 L 354.533 54.939 L 355.456 49.705 L 356.241 49.575 L 356.176 50.325 C 356.699 49.955 357.786 49.531 358.418 49.531 C 359.081 49.531 359.364 49.889 359.364 50.467" fill="rgb(20,118,198)"/><path d=" M 364.196 47.475 L 365.111 47.344 L 364.87 48.703 L 363.957 48.824 L 364.196 47.475 Z  M 363.805 49.705 L 364.719 49.575 L 363.772 54.939 L 362.88 54.939 L 363.805 49.705" fill="rgb(20,118,198)"/><path d=" M 368.549 54.199 C 368.549 54.155 368.549 54.078 368.572 53.96 L 369.202 50.38 L 368.267 50.38 L 368.397 49.64 L 369.332 49.64 L 369.562 48.334 L 370.476 48.214 L 370.224 49.64 L 371.683 49.64 L 371.531 50.38 L 370.095 50.38 L 369.463 53.949 C 369.452 54.014 369.452 54.036 369.452 54.068 C 369.452 54.22 369.539 54.297 369.757 54.297 C 370.05 54.297 370.366 54.231 370.737 54.068 L 370.944 54.688 C 370.486 54.917 370.03 55.048 369.507 55.048 C 368.854 55.048 368.549 54.678 368.549 54.199 Z " fill="rgb(20,118,198)"/><path d=" M 375.94 47.475 L 376.853 47.344 L 376.615 48.703 L 375.7 48.824 L 375.94 47.475 Z  M 375.548 49.705 L 376.461 49.575 L 375.514 54.939 L 374.622 54.939 L 375.548 49.705" fill="rgb(20,118,198)"/><path d=" M 383.578 50.434 C 383.296 50.359 382.925 50.303 382.556 50.303 C 381.739 50.303 381.337 50.555 381.152 51.598 L 380.815 53.514 C 380.793 53.644 380.772 53.785 380.772 53.884 C 380.772 54.134 380.881 54.276 381.205 54.276 C 381.871 54.276 382.457 53.905 383.067 53.351 L 383.578 50.434 L 383.578 50.434 Z  M 383.677 54.939 L 382.937 54.939 L 382.968 54.297 C 382.382 54.819 381.664 55.048 380.988 55.048 C 380.172 55.048 379.868 54.601 379.868 53.992 C 379.868 53.861 379.89 53.721 379.912 53.579 L 380.282 51.478 C 380.51 50.194 380.988 49.531 382.664 49.531 C 383.318 49.531 384.047 49.694 384.568 49.889 L 383.677 54.939 Z " fill="rgb(20,118,198)"/><path d=" M 388.454 54.199 C 388.454 54.155 388.454 54.078 388.477 53.96 L 389.106 50.38 L 388.172 50.38 L 388.302 49.64 L 389.238 49.64 L 389.467 48.334 L 390.381 48.214 L 390.13 49.64 L 391.589 49.64 L 391.435 50.38 L 389.998 50.38 L 389.368 53.949 C 389.358 54.014 389.358 54.036 389.358 54.068 C 389.358 54.22 389.444 54.297 389.663 54.297 C 389.955 54.297 390.272 54.231 390.641 54.068 L 390.849 54.688 C 390.391 54.917 389.934 55.048 389.411 55.048 C 388.759 55.048 388.454 54.678 388.454 54.199 Z " fill="rgb(20,118,198)"/><path d=" M 395.844 47.475 L 396.757 47.344 L 396.518 48.703 L 395.604 48.824 L 395.844 47.475 Z  M 395.452 49.705 L 396.365 49.575 L 395.419 54.939 L 394.527 54.939 L 395.452 49.705" fill="rgb(20,118,198)"/><path d=" M 400.773 54.939 L 399.947 49.716 L 400.806 49.596 L 401.481 54.231 L 402.982 51.098 C 403.145 50.761 403.179 50.575 403.179 50.292 C 403.179 50.14 403.145 49.889 403.091 49.705 L 403.951 49.575 C 403.994 49.76 404.038 50.01 404.038 50.27 C 404.038 50.555 404.028 50.848 403.853 51.195 L 402.014 54.939 L 400.773 54.939" fill="rgb(20,118,198)"/><path d=" M 410.491 50.826 C 410.491 50.478 410.231 50.26 409.751 50.26 C 408.925 50.26 408.544 50.565 408.392 51.424 L 408.261 52.153 C 408.554 52.066 408.729 52.012 409.241 51.86 C 410.122 51.598 410.491 51.26 410.491 50.826 L 410.491 50.826 Z  M 408.021 53.525 C 408 53.644 408 53.721 408 53.763 C 408 54.101 408.162 54.297 408.729 54.297 C 409.283 54.297 409.948 54.09 410.666 53.743 L 410.861 54.406 C 410.188 54.775 409.491 55.048 408.61 55.048 C 407.544 55.048 407.119 54.547 407.119 53.819 C 407.119 53.688 407.129 53.514 407.162 53.329 L 407.477 51.545 C 407.716 50.205 408.316 49.531 409.817 49.531 C 410.699 49.531 411.33 49.945 411.33 50.727 C 411.33 51.62 410.916 52.066 409.425 52.567 C 408.784 52.784 408.578 52.839 408.119 52.981 L 408.021 53.525" fill="rgb(20,118,198)"/><path d=" M 423.257 50.434 C 422.974 50.359 422.483 50.303 422.19 50.303 C 421.243 50.303 420.973 50.565 420.787 51.61 L 420.45 53.535 C 420.427 53.666 420.417 53.775 420.417 53.872 C 420.417 54.134 420.514 54.276 420.841 54.276 C 421.472 54.276 422.135 53.884 422.736 53.393 L 423.257 50.434 L 423.257 50.434 Z  M 423.356 54.939 L 422.571 54.939 L 422.626 54.297 C 422.017 54.819 421.298 55.048 420.624 55.048 C 419.807 55.048 419.513 54.601 419.513 53.992 C 419.513 53.894 419.525 53.709 419.547 53.579 L 419.916 51.489 C 420.146 50.185 420.613 49.531 422.288 49.531 C 422.648 49.531 423.029 49.584 423.388 49.672 L 423.778 47.475 L 424.693 47.344 L 423.356 54.939" fill="rgb(20,118,198)"/><path d=" M 428.798 47.475 L 429.483 47.475 L 429.015 50.14 L 428.33 50.14 L 428.798 47.475" fill="rgb(20,118,198)"/><path d=" M 435.892 50.826 C 435.892 50.478 435.63 50.26 435.153 50.26 C 434.326 50.26 433.945 50.565 433.792 51.424 L 433.662 52.153 C 433.955 52.066 434.129 52.012 434.64 51.86 C 435.523 51.598 435.892 51.26 435.892 50.826 L 435.892 50.826 Z  M 433.421 53.525 C 433.401 53.644 433.401 53.721 433.401 53.763 C 433.401 54.101 433.563 54.297 434.129 54.297 C 434.684 54.297 435.349 54.09 436.067 53.743 L 436.262 54.406 C 435.587 54.775 434.892 55.048 434.01 55.048 C 432.943 55.048 432.519 54.547 432.519 53.819 C 432.519 53.688 432.529 53.514 432.563 53.329 L 432.878 51.545 C 433.117 50.205 433.717 49.531 435.218 49.531 C 436.099 49.531 436.731 49.945 436.731 50.727 C 436.731 51.62 436.316 52.066 434.826 52.567 C 434.184 52.784 433.978 52.839 433.52 52.981 L 433.421 53.525" fill="rgb(20,118,198)"/><path d=" M 441.584 52.272 L 440.377 49.705 L 441.214 49.575 L 442.183 51.675 L 443.749 49.64 L 444.783 49.64 L 442.564 52.371 L 443.804 54.939 L 442.879 54.939 L 441.966 53.056 L 440.388 54.939 L 439.385 54.939 L 441.584 52.272 Z " fill="rgb(20,118,198)"/><path d=" M 451.303 50.488 C 450.933 50.37 450.519 50.303 450.172 50.303 C 449.311 50.303 448.984 50.597 448.8 51.598 L 448.453 53.579 C 448.441 53.655 448.429 53.731 448.429 53.808 C 448.429 54.145 448.604 54.276 449.061 54.276 C 449.54 54.276 450.172 54.123 450.704 53.916 L 450.824 54.646 C 450.291 54.884 449.649 55.048 448.963 55.048 C 447.962 55.048 447.538 54.581 447.538 53.861 C 447.538 53.785 447.548 53.634 447.582 53.448 L 447.93 51.478 C 448.191 50.01 448.81 49.531 450.215 49.531 C 450.606 49.531 451.118 49.618 451.499 49.771 L 451.303 50.488" fill="rgb(20,118,198)"/><path d=" M 457.962 50.826 C 457.962 50.478 457.701 50.26 457.223 50.26 C 456.396 50.26 456.015 50.565 455.863 51.424 L 455.733 52.153 C 456.025 52.066 456.2 52.012 456.711 51.86 C 457.593 51.598 457.962 51.26 457.962 50.826 L 457.962 50.826 Z  M 455.493 53.525 C 455.471 53.644 455.471 53.721 455.471 53.763 C 455.471 54.101 455.634 54.297 456.2 54.297 C 456.755 54.297 457.419 54.09 458.136 53.743 L 458.332 54.406 C 457.657 54.775 456.961 55.048 456.08 55.048 C 455.014 55.048 454.589 54.547 454.589 53.819 C 454.589 53.688 454.6 53.514 454.633 53.329 L 454.948 51.545 C 455.186 50.205 455.787 49.531 457.288 49.531 C 458.17 49.531 458.801 49.945 458.801 50.727 C 458.801 51.62 458.388 52.066 456.896 52.567 C 456.255 52.784 456.049 52.839 455.59 52.981 L 455.493 53.525" fill="rgb(20,118,198)"/><path d=" M 463.34 47.475 L 464.254 47.344 L 462.915 54.939 L 462.023 54.939 L 463.34 47.475 Z " fill="rgb(20,118,198)"/><path d=" M 468.552 47.475 L 469.466 47.344 L 468.127 54.939 L 467.236 54.939 L 468.552 47.475" fill="rgb(20,118,198)"/><path d=" M 475.897 50.826 C 475.897 50.478 475.637 50.26 475.157 50.26 C 474.329 50.26 473.949 50.565 473.799 51.424 L 473.667 52.153 C 473.961 52.066 474.135 52.012 474.646 51.86 C 475.527 51.598 475.897 51.26 475.897 50.826 L 475.897 50.826 Z  M 473.427 53.525 C 473.406 53.644 473.406 53.721 473.406 53.763 C 473.406 54.101 473.569 54.297 474.135 54.297 C 474.69 54.297 475.353 54.09 476.072 53.743 L 476.267 54.406 C 475.593 54.775 474.896 55.048 474.016 55.048 C 472.949 55.048 472.525 54.547 472.525 53.819 C 472.525 53.688 472.535 53.514 472.567 53.329 L 472.884 51.545 C 473.122 50.205 473.721 49.531 475.223 49.531 C 476.104 49.531 476.736 49.945 476.736 50.727 C 476.736 51.62 476.322 52.066 474.832 52.567 C 474.189 52.784 473.982 52.839 473.525 52.981 L 473.427 53.525" fill="rgb(20,118,198)"/><path d=" M 484.788 50.467 C 484.788 50.586 484.777 50.75 484.745 50.925 L 484.037 54.939 L 483.145 54.939 L 483.864 50.858 C 483.874 50.793 483.886 50.717 483.886 50.674 C 483.886 50.456 483.777 50.38 483.517 50.38 C 482.983 50.38 482.167 50.772 481.513 51.175 L 480.848 54.939 L 479.957 54.939 L 480.883 49.705 L 481.666 49.575 L 481.601 50.325 C 482.123 49.955 483.212 49.531 483.842 49.531 C 484.507 49.531 484.788 49.889 484.788 50.467" fill="rgb(20,118,198)"/><path d=" M 492.069 50.488 C 491.699 50.37 491.285 50.303 490.938 50.303 C 490.079 50.303 489.751 50.597 489.567 51.598 L 489.219 53.579 C 489.208 53.655 489.197 53.731 489.197 53.808 C 489.197 54.145 489.37 54.276 489.826 54.276 C 490.307 54.276 490.938 54.123 491.471 53.916 L 491.59 54.646 C 491.058 54.884 490.416 55.048 489.731 55.048 C 488.728 55.048 488.304 54.581 488.304 53.861 C 488.304 53.785 488.315 53.634 488.348 53.448 L 488.697 51.478 C 488.958 50.01 489.578 49.531 490.982 49.531 C 491.373 49.531 491.885 49.618 492.265 49.771 L 492.069 50.488" fill="rgb(20,118,198)"/><path d=" M 498.73 50.826 C 498.73 50.478 498.469 50.26 497.991 50.26 C 497.163 50.26 496.783 50.565 496.629 51.424 L 496.499 52.153 C 496.792 52.066 496.966 52.012 497.479 51.86 C 498.36 51.598 498.73 51.26 498.73 50.826 L 498.73 50.826 Z  M 496.261 53.525 C 496.238 53.644 496.238 53.721 496.238 53.763 C 496.238 54.101 496.4 54.297 496.966 54.297 C 497.523 54.297 498.186 54.09 498.903 53.743 L 499.1 54.406 C 498.425 54.775 497.73 55.048 496.847 55.048 C 495.782 55.048 495.358 54.547 495.358 53.819 C 495.358 53.688 495.368 53.514 495.401 53.329 L 495.715 51.545 C 495.956 50.205 496.554 49.531 498.055 49.531 C 498.938 49.531 499.568 49.945 499.568 50.727 C 499.568 51.62 499.154 52.066 497.663 52.567 C 497.022 52.784 496.815 52.839 496.358 52.981 L 496.261 53.525" fill="rgb(20,118,198)"/></g></g><g><g><g><g><clipPath id="_clipPath_jcJpJbGDuV97YSf2DOCMoSFRUgirdrHz"><path d=" M 26 254.284 L 229.738 254.284 L 229.738 184.284 L 26 184.284 L 26 254.284 Z " fill="rgb(255,255,255)"/></clipPath><g clip-path="url(#_clipPath_jcJpJbGDuV97YSf2DOCMoSFRUgirdrHz)"><g><path d=" M 53.514 209.804 L 57.574 197.218 L 61.632 209.804 L 53.514 209.804 Z  M 55.596 195.106 L 47.923 217.819 L 50.888 217.819 L 52.73 212.362 L 62.382 212.362 L 64.257 217.819 L 67.225 217.819 L 59.551 195.106 L 55.596 195.106" fill="rgb(255,255,255)"/><path d=" M 70.908 198.548 L 73.772 198.548 L 73.772 194.422 L 70.908 194.422 L 70.908 198.548 Z " fill="rgb(255,255,255)"/><path d=" M 70.908 217.819 L 73.772 217.819 L 73.772 201.21 L 70.908 201.21 L 70.908 217.819 Z " fill="rgb(255,255,255)"/><path d=" M 91.164 217.819 L 85.674 209.461 L 91.061 201.21 L 88.095 201.21 L 84.139 207.314 L 80.184 201.21 L 77.216 201.21 L 82.571 209.461 L 77.114 217.819 L 80.15 217.819 L 84.139 211.645 L 88.164 217.819 L 91.164 217.819 Z " fill="rgb(255,255,255)"/><path d=" M 130.398 217.819 L 133.229 217.819 L 132.444 195.106 L 128.727 195.106 L 122.178 212.668 L 115.632 195.106 L 111.914 195.106 L 111.13 217.819 L 113.96 217.819 L 114.403 199.402 L 120.201 214.884 L 124.158 214.884 L 129.954 199.402 L 130.398 217.819" fill="rgb(255,255,255)"/><path d=" M 145.961 214.34 C 144.698 215.157 143.096 215.703 141.663 215.703 C 139.617 215.703 139.309 215.021 139.309 213.315 C 139.309 211.645 139.958 211.099 141.73 211.099 L 145.961 211.099 L 145.961 214.34 Z  M 146.403 217.819 L 148.823 217.819 L 148.823 206.256 C 148.823 202.71 147.255 200.868 142.515 200.868 C 140.743 200.868 139.154 201.062 137.588 201.472 L 137.895 203.756 C 139.19 203.484 140.743 203.323 142.345 203.323 C 145.039 203.323 145.961 204.039 145.961 206.12 L 145.961 208.711 L 141.527 208.711 C 138.184 208.711 136.445 209.941 136.445 213.384 C 136.445 216.317 137.741 218.158 140.845 218.158 C 142.856 218.158 144.766 217.613 146.231 216.589 L 146.403 217.819" fill="rgb(255,255,255)"/><path d=" M 160.516 200.868 C 158.879 201.551 157.174 202.573 155.946 203.528 L 155.777 201.21 L 153.285 201.21 L 153.285 217.819 L 156.15 217.819 L 156.15 206.359 C 157.514 205.404 159.32 204.243 160.891 203.494 L 160.516 200.868" fill="rgb(255,255,255)"/><path d=" M 168.223 215.703 C 166.791 215.703 164.914 215.43 163.483 215.021 L 163.107 217.272 C 164.438 217.784 166.688 218.158 168.394 218.158 C 173.134 218.158 174.123 216.589 174.123 213.351 C 174.123 210.042 173.748 209.461 168.973 208.268 C 166.177 207.586 166.143 207.246 166.143 205.404 C 166.143 203.903 166.485 203.323 168.939 203.323 C 170.304 203.323 172.146 203.528 173.542 203.802 L 173.748 201.447 C 172.383 201.073 170.645 200.868 169.041 200.868 C 164.677 200.868 163.313 202.267 163.313 205.336 C 163.313 208.78 163.688 209.632 167.813 210.656 C 171.156 211.474 171.292 211.68 171.292 213.453 C 171.292 215.225 170.849 215.703 168.223 215.703 Z " fill="rgb(255,255,255)"/><path d=" M 187.511 208.235 L 180.382 208.235 L 180.382 206.869 C 180.382 204.552 181.337 203.255 184.032 203.255 C 186.726 203.255 187.511 204.552 187.511 206.869 L 187.511 208.235 Z  M 184.032 200.868 C 179.087 200.868 177.517 203.631 177.517 207.075 L 177.517 212.055 C 177.517 215.805 179.19 218.158 184.1 218.158 C 186.18 218.158 188.397 217.784 189.965 217.204 L 189.59 214.918 C 187.782 215.397 185.974 215.703 184.338 215.703 C 181.097 215.703 180.382 214.646 180.382 212.02 L 180.382 210.621 L 190.273 210.621 L 190.273 207.143 C 190.273 203.699 188.942 200.868 184.032 200.868" fill="rgb(255,255,255)"/><path d=" M 194.025 198.548 L 196.891 198.548 L 196.891 194.422 L 194.025 194.422 L 194.025 198.548 Z " fill="rgb(255,255,255)"/><path d=" M 194.025 217.819 L 196.891 217.819 L 196.891 201.21 L 194.025 201.21 L 194.025 217.819 Z " fill="rgb(255,255,255)"/><path d=" M 205.21 194.014 L 202.348 194.422 L 202.348 217.819 L 205.21 217.819 L 205.21 194.014 Z " fill="rgb(255,255,255)"/><path d=" M 213.534 194.014 L 210.668 194.422 L 210.668 217.819 L 213.534 217.819 L 213.534 194.014 Z " fill="rgb(255,255,255)"/><path d=" M 219.863 206.869 C 219.863 204.552 220.818 203.255 223.513 203.255 C 226.207 203.255 226.991 204.552 226.991 206.869 L 226.991 208.235 L 219.863 208.235 L 219.863 206.869 Z  M 229.753 210.621 L 229.753 207.143 C 229.753 203.699 228.424 200.868 223.513 200.868 C 218.567 200.868 216.999 203.631 216.999 207.075 L 216.999 212.055 C 216.999 215.805 218.669 218.158 223.58 218.158 C 225.66 218.158 227.877 217.784 229.445 217.204 L 229.071 214.918 C 227.263 215.397 225.456 215.703 223.82 215.703 C 220.579 215.703 219.863 214.646 219.863 212.02 L 219.863 210.621 L 229.753 210.621" fill="rgb(255,255,255)"/><path d=" M 97.279 224.276 L 95.323 224.276 L 95.323 237.331 C 93.264 238.41 90.362 239.22 89.014 239.22 C 87.867 239.22 87.225 238.781 87.225 237.566 L 87.225 224.276 L 85.269 224.276 L 85.269 237.331 C 85.269 239.589 86.18 241.041 88.745 241.041 C 90.733 241.041 93.67 240.062 95.423 239.22 L 95.56 240.704 L 97.279 240.704 L 97.279 224.276" fill="rgb(255,255,255)"/><path d=" M 113.495 227.412 L 113.495 240.704 L 115.452 240.704 L 115.452 227.65 C 115.452 225.39 114.541 223.939 111.976 223.939 C 109.987 223.939 107.051 224.917 105.297 225.758 L 105.162 224.276 L 103.44 224.276 L 103.44 240.704 L 105.4 240.704 L 105.4 227.65 C 107.457 226.57 110.358 225.758 111.706 225.758 C 112.853 225.758 113.495 226.199 113.495 227.412" fill="rgb(255,255,255)"/><path d=" M 120.578 227.809 L 122.535 227.809 L 122.535 224.2 L 120.578 224.2 L 120.578 227.809 Z " fill="rgb(255,255,255)"/><path d=" M 120.578 240.704 L 122.535 240.704 L 122.535 229.747 L 120.578 229.747 L 120.578 240.704 Z " fill="rgb(255,255,255)"/><path d=" M 133.526 239.32 L 128.467 224.276 L 126.475 224.276 L 132.043 240.704 L 135.044 240.704 L 140.609 224.276 L 138.621 224.276 L 133.526 239.32 Z " fill="rgb(255,255,255)"/><path d=" M 145.111 229.841 C 145.111 227.076 146.224 225.624 149.292 225.624 C 152.363 225.624 153.34 227.076 153.34 229.841 L 153.34 231.327 L 145.111 231.327 L 145.111 229.841 Z  M 154.927 240.13 L 154.589 238.545 C 152.971 238.984 151.08 239.32 149.395 239.32 C 146.122 239.32 145.111 238.072 145.111 235.137 L 145.111 233.079 L 155.265 233.079 L 155.265 229.91 C 155.265 226.536 153.914 223.939 149.292 223.939 C 144.671 223.939 143.155 226.536 143.155 229.91 L 143.155 235.071 C 143.155 238.645 144.636 241.041 149.258 241.041 C 151.248 241.041 153.409 240.669 154.927 240.13" fill="rgb(255,255,255)"/><path d=" M 167.041 223.939 C 165.488 224.511 163.734 225.624 161.98 226.773 L 161.88 224.276 L 160.126 224.276 L 160.126 240.704 L 162.08 240.704 L 162.08 228.898 C 163.667 227.852 165.557 226.605 167.277 225.862 L 167.041 223.939 Z " fill="rgb(255,255,255)"/><path d=" M 180.879 236.554 C 180.879 233.483 180.608 232.709 175.784 231.495 C 172.749 230.718 172.615 230.482 172.615 228.222 C 172.615 226.436 173.019 225.693 175.886 225.693 C 177.237 225.693 179.159 225.896 180.474 226.164 L 180.676 224.511 C 179.394 224.14 177.54 223.939 176.021 223.939 C 171.974 223.939 170.659 225.424 170.659 228.155 C 170.659 231.158 170.996 232.168 175.112 233.147 C 178.857 234.025 178.923 234.26 178.923 236.622 C 178.923 238.713 178.315 239.287 175.279 239.287 C 174.064 239.287 172.344 239.05 170.928 238.613 L 170.591 240.198 C 171.807 240.704 173.761 241.041 175.415 241.041 C 179.8 241.041 180.879 239.523 180.879 236.554" fill="rgb(255,255,255)"/><path d=" M 185.627 227.809 L 187.585 227.809 L 187.585 224.2 L 185.627 224.2 L 185.627 227.809 Z " fill="rgb(255,255,255)"/><path d=" M 185.627 240.704 L 187.585 240.704 L 187.585 229.747 L 185.627 229.747 L 185.627 240.704 Z " fill="rgb(255,255,255)"/><path d=" M 201.35 239.012 C 200.372 239.314 199.712 239.355 198.804 239.355 C 197.116 239.355 196.916 238.747 196.916 237.296 L 196.916 225.962 L 201.187 225.962 L 201.39 224.276 L 196.916 224.276 L 196.916 220.691 L 194.957 220.959 L 194.957 224.276 L 191.787 224.276 L 191.787 225.962 L 194.957 225.962 L 194.957 237.499 C 194.957 240.096 196.071 241.041 198.668 241.041 C 199.85 241.041 200.778 240.901 201.72 240.529 L 201.35 239.012 Z " fill="rgb(255,255,255)"/><path d=" M 214.679 231.327 L 206.446 231.327 L 206.446 229.841 C 206.446 227.076 207.561 225.624 210.63 225.624 C 213.699 225.624 214.679 227.076 214.679 229.841 L 214.679 231.327 Z  M 210.63 223.939 C 206.01 223.939 204.49 226.536 204.49 229.91 L 204.49 235.071 C 204.49 238.645 205.974 241.041 210.598 241.041 C 212.586 241.041 214.745 240.669 216.264 240.13 L 215.925 238.545 C 214.308 238.984 212.417 239.32 210.732 239.32 C 207.459 239.32 206.446 238.072 206.446 235.137 L 206.446 233.079 L 216.602 233.079 L 216.602 229.91 C 216.602 226.536 215.25 223.939 210.63 223.939" fill="rgb(255,255,255)"/><path d=" M 214.076 221.2 L 213.492 219.522 C 211.796 220.172 210.011 220.764 208.497 221.253 L 209.039 222.816 C 210.57 222.401 212.415 221.86 214.076 221.2 Z " fill="rgb(255,255,255)"/><path d=" M 101.601 211.727 L 106.098 214.324 C 106.193 214.378 106.292 214.395 106.38 214.395 C 106.873 214.372 107.317 213.98 107.344 213.975 L 107.435 213.907 L 107.448 213.794 C 107.45 213.787 107.467 213.645 107.467 213.458 C 107.466 213.32 107.459 213.16 107.42 213.001 C 107.379 212.846 107.315 212.667 107.122 212.55 L 102.625 209.953 C 102.625 209.953 102.549 209.909 102.418 209.833 C 102.487 209.794 102.555 209.754 102.625 209.713 L 107.122 207.117 C 107.314 207 107.379 206.821 107.42 206.666 C 107.457 206.506 107.467 206.346 107.467 206.209 C 107.467 206.022 107.45 205.879 107.448 205.872 L 107.435 205.759 L 107.344 205.692 C 107.317 205.687 106.873 205.294 106.379 205.271 C 106.291 205.271 106.192 205.289 106.098 205.343 L 101.601 207.939 C 101.531 207.979 101.463 208.019 101.394 208.058 C 101.394 207.978 101.394 207.899 101.394 207.819 L 101.394 198.387 C 101.364 198.009 101.092 197.852 100.89 197.706 C 100.677 197.57 100.478 197.486 100.468 197.483 L 100.364 197.438 L 100.259 197.483 C 100.252 197.487 100.053 197.57 99.843 197.706 C 99.645 197.851 99.372 198.011 99.345 198.387 L 99.345 207.819 C 99.345 207.9 99.345 207.98 99.345 208.06 C 99.276 208.02 99.207 207.98 99.137 207.94 L 94.64 205.343 C 94.547 205.289 94.447 205.272 94.359 205.272 C 93.866 205.294 93.421 205.687 93.394 205.691 L 93.304 205.759 L 93.291 205.871 C 93.289 205.879 93.271 206.022 93.271 206.208 C 93.273 206.345 93.28 206.507 93.319 206.666 C 93.359 206.821 93.424 207 93.616 207.117 L 98.113 209.713 C 98.183 209.754 98.251 209.794 98.321 209.833 C 98.189 209.909 98.113 209.953 98.113 209.953 L 93.615 212.55 C 93.424 212.666 93.359 212.846 93.319 213.001 C 93.28 213.16 93.271 213.32 93.271 213.458 C 93.271 213.645 93.289 213.787 93.291 213.796 L 93.304 213.907 L 93.394 213.976 C 93.421 213.98 93.866 214.372 94.359 214.394 L 94.363 214.394 C 94.45 214.394 94.547 214.377 94.64 214.324 L 99.137 211.728 L 99.138 211.728 C 99.138 211.728 99.214 211.684 99.345 211.609 C 99.345 211.76 99.345 211.847 99.345 211.847 L 99.345 217.041 C 99.373 217.418 99.647 217.576 99.849 217.721 C 100.061 217.858 100.261 217.941 100.27 217.944 L 100.374 217.988 L 100.478 217.944 C 100.486 217.941 100.684 217.858 100.895 217.721 C 101.094 217.576 101.366 217.416 101.393 217.041 L 101.394 211.847 L 101.393 211.847 C 101.393 211.847 101.393 211.759 101.393 211.607 C 101.525 211.683 101.601 211.727 101.601 211.727" fill="rgb(255,255,255)"/><path d=" M 37.046 196.788 C 38.027 194.148 39.075 191.622 40.19 189.21 C 41.305 186.798 41.863 185.485 41.863 185.266 C 41.863 184.611 41.269 184.284 40.081 184.284 C 38.991 184.284 38.199 185.246 37.451 186.156 C 36.727 187.037 35.718 188.355 34.58 190.245 C 32.69 193.349 31.101 196.444 29.818 199.533 C 28.532 202.622 27.577 205.761 26.946 208.947 C 26.315 212.134 26 215.558 26 219.217 C 26 222.923 26.327 226.377 26.983 229.575 C 27.638 232.775 28.587 235.859 29.835 238.828 C 31.083 241.797 32.665 244.88 34.58 248.077 C 35.744 249.945 36.7 251.3 37.451 252.15 C 38.203 252.998 38.966 254.111 40.081 254.111 C 41.269 254.111 41.863 253.784 41.863 253.13 C 41.863 252.937 41.336 251.707 40.28 249.441 C 39.227 247.176 38.402 244.613 37.348 241.753 C 36.293 238.895 35.126 235.513 34.302 231.613 C 33.477 227.71 33.067 223.578 33.067 219.217 C 33.067 214.807 33.483 210.625 34.322 206.676 C 35.155 202.726 36.064 199.43 37.046 196.788" fill="rgb(255,255,255)"/><path d=" M 85.064 254.19 L 85.862 254.19 L 86.976 247.851 L 86.177 247.851 L 85.064 254.19 Z " fill="rgb(255,255,255)"/><path d=" M 93.134 249.46 C 92.582 249.46 91.631 249.831 91.174 250.155 L 91.23 249.498 L 90.544 249.613 L 89.737 254.19 L 90.516 254.19 L 91.098 250.897 C 91.668 250.546 92.382 250.203 92.848 250.203 C 93.076 250.203 93.172 250.269 93.172 250.46 C 93.172 250.497 93.162 250.563 93.152 250.62 L 92.525 254.19 L 93.304 254.19 L 93.924 250.679 C 93.952 250.526 93.962 250.383 93.962 250.279 C 93.962 249.774 93.714 249.46 93.134 249.46" fill="rgb(255,255,255)"/><path d=" M 97.036 254.19 L 97.816 254.19 L 98.644 249.498 L 97.845 249.613 L 97.036 254.19 Z " fill="rgb(255,255,255)"/><path d=" M 97.978 248.842 L 98.777 248.737 L 98.987 247.548 L 98.187 247.662 L 97.978 248.842" fill="rgb(255,255,255)"/><path d=" M 103.679 248.309 L 102.879 248.414 L 102.679 249.556 L 101.861 249.556 L 101.747 250.203 L 102.565 250.203 L 102.014 253.334 C 101.993 253.437 101.993 253.504 101.993 253.542 C 101.993 253.961 102.26 254.284 102.831 254.284 C 103.288 254.284 103.688 254.17 104.088 253.97 L 103.907 253.428 C 103.583 253.57 103.306 253.628 103.05 253.628 C 102.859 253.628 102.783 253.561 102.783 253.428 C 102.783 253.4 102.783 253.381 102.793 253.324 L 103.346 250.203 L 104.602 250.203 L 104.734 249.556 L 103.458 249.556 L 103.679 248.309 Z " fill="rgb(255,255,255)"/><path d=" M 107.305 254.19 L 108.084 254.19 L 108.913 249.498 L 108.114 249.613 L 107.305 254.19 Z " fill="rgb(255,255,255)"/><path d=" M 108.247 248.842 L 109.047 248.737 L 109.255 247.548 L 108.457 247.662 L 108.247 248.842" fill="rgb(255,255,255)"/><path d=" M 114.689 252.8 C 114.156 253.285 113.643 253.609 113.061 253.609 C 112.777 253.609 112.682 253.485 112.682 253.266 C 112.682 253.18 112.701 253.057 112.72 252.942 L 113.015 251.268 C 113.176 250.355 113.528 250.136 114.242 250.136 C 114.565 250.136 114.89 250.184 115.136 250.25 L 114.689 252.8 Z  M 112.254 251.163 L 111.93 253 C 111.911 253.124 111.892 253.247 111.892 253.362 C 111.892 253.894 112.158 254.284 112.871 254.284 C 113.462 254.284 114.09 254.084 114.603 253.628 L 114.575 254.19 L 115.222 254.19 L 116.002 249.774 C 115.546 249.603 114.909 249.46 114.337 249.46 C 112.871 249.46 112.453 250.041 112.254 251.163" fill="rgb(255,255,255)"/><path d=" M 121.085 248.309 L 120.286 248.414 L 120.086 249.556 L 119.267 249.556 L 119.153 250.203 L 119.97 250.203 L 119.42 253.334 C 119.4 253.437 119.4 253.504 119.4 253.542 C 119.4 253.961 119.667 254.284 120.237 254.284 C 120.694 254.284 121.094 254.17 121.494 253.97 L 121.312 253.428 C 120.99 253.57 120.713 253.628 120.457 253.628 C 120.266 253.628 120.19 253.561 120.19 253.428 C 120.19 253.4 120.19 253.381 120.199 253.324 L 120.75 250.203 L 122.007 250.203 L 122.141 249.556 L 120.865 249.556 L 121.085 248.309" fill="rgb(255,255,255)"/><path d=" M 124.711 254.19 L 125.491 254.19 L 126.318 249.498 L 125.52 249.613 L 124.711 254.19 Z " fill="rgb(255,255,255)"/><path d=" M 125.653 248.842 L 126.452 248.737 L 126.661 247.548 L 125.862 247.662 L 125.653 248.842" fill="rgb(255,255,255)"/><path d=" M 132.2 249.613 C 132.247 249.774 132.276 249.993 132.276 250.126 C 132.276 250.373 132.247 250.535 132.104 250.83 L 130.792 253.57 L 130.201 249.517 L 129.45 249.622 L 130.173 254.19 L 131.258 254.19 L 132.867 250.916 C 133.019 250.612 133.028 250.355 133.028 250.107 C 133.028 249.879 132.99 249.66 132.952 249.498 L 132.2 249.613" fill="rgb(255,255,255)"/><path d=" M 137.578 251.497 C 137.13 251.63 136.977 251.677 136.721 251.753 L 136.835 251.116 C 136.969 250.364 137.301 250.098 138.024 250.098 C 138.443 250.098 138.671 250.288 138.671 250.593 C 138.671 250.973 138.348 251.268 137.578 251.497 L 137.578 251.497 Z  M 138.081 249.46 C 136.769 249.46 136.244 250.05 136.035 251.221 L 135.759 252.782 C 135.731 252.942 135.723 253.095 135.723 253.209 C 135.723 253.847 136.093 254.284 137.026 254.284 C 137.796 254.284 138.406 254.046 138.995 253.724 L 138.824 253.143 C 138.196 253.447 137.614 253.628 137.13 253.628 C 136.634 253.628 136.492 253.457 136.492 253.161 C 136.492 253.124 136.492 253.057 136.511 252.953 L 136.597 252.477 C 136.998 252.352 137.178 252.306 137.739 252.115 C 139.043 251.677 139.405 251.287 139.405 250.506 C 139.405 249.822 138.853 249.46 138.081 249.46" fill="rgb(255,255,255)"/><path d=" M 149.378 252.837 C 148.853 253.266 148.274 253.609 147.722 253.609 C 147.436 253.609 147.351 253.485 147.351 253.256 C 147.351 253.172 147.36 253.076 147.38 252.962 L 147.675 251.278 C 147.837 250.364 148.073 250.136 148.901 250.136 C 149.158 250.136 149.587 250.184 149.834 250.25 L 149.378 252.837 Z  M 149.949 249.583 C 149.635 249.507 149.302 249.46 148.987 249.46 C 147.522 249.46 147.114 250.032 146.913 251.173 L 146.59 253 C 146.571 253.114 146.56 253.275 146.56 253.362 C 146.56 253.894 146.818 254.284 147.532 254.284 C 148.121 254.284 148.75 254.084 149.282 253.628 L 149.235 254.19 L 149.921 254.19 L 151.09 247.548 L 150.29 247.662 L 149.949 249.583 Z " fill="rgb(255,255,255)"/><path d=" M 154.271 249.993 L 154.87 249.993 L 155.279 247.662 L 154.68 247.662 L 154.271 249.993" fill="rgb(255,255,255)"/><path d=" M 159.789 251.497 C 159.342 251.63 159.189 251.677 158.933 251.753 L 159.047 251.116 C 159.181 250.364 159.514 250.098 160.237 250.098 C 160.655 250.098 160.884 250.288 160.884 250.593 C 160.884 250.973 160.561 251.268 159.789 251.497 L 159.789 251.497 Z  M 160.294 249.46 C 158.981 249.46 158.457 250.05 158.248 251.221 L 157.972 252.782 C 157.943 252.942 157.934 253.095 157.934 253.209 C 157.934 253.847 158.305 254.284 159.238 254.284 C 160.009 254.284 160.617 254.046 161.207 253.724 L 161.036 253.143 C 160.408 253.447 159.827 253.628 159.342 253.628 C 158.847 253.628 158.705 253.457 158.705 253.161 C 158.705 253.124 158.705 253.057 158.723 252.953 L 158.809 252.477 C 159.21 252.352 159.39 252.306 159.952 252.115 C 161.254 251.677 161.617 251.287 161.617 250.506 C 161.617 249.822 161.064 249.46 160.294 249.46" fill="rgb(255,255,255)"/><path d=" M 167.754 249.556 L 166.385 251.335 L 165.537 249.498 L 164.805 249.613 L 165.861 251.857 L 163.938 254.19 L 164.815 254.19 L 166.195 252.543 L 166.994 254.19 L 167.803 254.19 L 166.718 251.943 L 168.659 249.556 L 167.754 249.556" fill="rgb(255,255,255)"/><path d=" M 171.41 251.163 L 171.106 252.885 C 171.077 253.048 171.068 253.18 171.068 253.247 C 171.068 253.876 171.439 254.284 172.314 254.284 C 172.913 254.284 173.475 254.141 173.941 253.933 L 173.836 253.295 C 173.371 253.476 172.818 253.609 172.399 253.609 C 172 253.609 171.847 253.495 171.847 253.2 C 171.847 253.133 171.857 253.067 171.867 253 L 172.171 251.268 C 172.332 250.392 172.618 250.136 173.371 250.136 C 173.674 250.136 174.036 250.194 174.36 250.297 L 174.531 249.67 C 174.198 249.537 173.75 249.46 173.408 249.46 C 172.18 249.46 171.639 249.879 171.41 251.163" fill="rgb(255,255,255)"/><path d=" M 179.089 251.497 C 178.642 251.63 178.49 251.677 178.234 251.753 L 178.348 251.116 C 178.481 250.364 178.813 250.098 179.537 250.098 C 179.955 250.098 180.183 250.288 180.183 250.593 C 180.183 250.973 179.861 251.268 179.089 251.497 L 179.089 251.497 Z  M 179.594 249.46 C 178.281 249.46 177.756 250.05 177.548 251.221 L 177.272 252.782 C 177.243 252.942 177.234 253.095 177.234 253.209 C 177.234 253.847 177.606 254.284 178.538 254.284 C 179.308 254.284 179.917 254.046 180.507 253.724 L 180.336 253.143 C 179.708 253.447 179.127 253.628 178.642 253.628 C 178.147 253.628 178.004 253.457 178.004 253.161 C 178.004 253.124 178.004 253.057 178.024 252.953 L 178.109 252.477 C 178.51 252.352 178.69 252.306 179.251 252.115 C 180.556 251.677 180.917 251.287 180.917 250.506 C 180.917 249.822 180.365 249.46 179.594 249.46" fill="rgb(255,255,255)"/><path d=" M 183.734 254.19 L 184.515 254.19 L 185.685 247.548 L 184.886 247.662 L 183.734 254.19 Z " fill="rgb(255,255,255)"/><path d=" M 188.293 254.19 L 189.072 254.19 L 190.243 247.548 L 189.444 247.662 L 188.293 254.19 Z " fill="rgb(255,255,255)"/><path d=" M 194.773 251.497 C 194.326 251.63 194.174 251.677 193.917 251.753 L 194.032 251.116 C 194.163 250.364 194.496 250.098 195.22 250.098 C 195.639 250.098 195.867 250.288 195.867 250.593 C 195.867 250.973 195.543 251.268 194.773 251.497 L 194.773 251.497 Z  M 195.277 249.46 C 193.964 249.46 193.44 250.05 193.232 251.221 L 192.955 252.782 C 192.927 252.942 192.918 253.095 192.918 253.209 C 192.918 253.847 193.289 254.284 194.222 254.284 C 194.992 254.284 195.601 254.046 196.19 253.724 L 196.02 253.143 C 195.391 253.447 194.812 253.628 194.326 253.628 C 193.831 253.628 193.689 253.457 193.689 253.161 C 193.689 253.124 193.689 253.057 193.707 252.953 L 193.793 252.477 C 194.193 252.352 194.373 252.306 194.936 252.115 C 196.239 251.677 196.6 251.287 196.6 250.506 C 196.6 249.822 196.048 249.46 195.277 249.46" fill="rgb(255,255,255)"/><path d=" M 202.815 249.46 C 202.263 249.46 201.311 249.831 200.855 250.155 L 200.912 249.498 L 200.227 249.613 L 199.417 254.19 L 200.197 254.19 L 200.778 250.897 C 201.35 250.546 202.063 250.203 202.53 250.203 C 202.758 250.203 202.853 250.269 202.853 250.46 C 202.853 250.497 202.843 250.563 202.834 250.62 L 202.205 254.19 L 202.985 254.19 L 203.604 250.679 C 203.633 250.526 203.642 250.383 203.642 250.279 C 203.642 249.774 203.396 249.46 202.815 249.46" fill="rgb(255,255,255)"/><path d=" M 207.06 251.163 L 206.755 252.885 C 206.726 253.048 206.717 253.18 206.717 253.247 C 206.717 253.876 207.088 254.284 207.964 254.284 C 208.564 254.284 209.124 254.141 209.59 253.933 L 209.486 253.295 C 209.02 253.476 208.468 253.609 208.048 253.609 C 207.649 253.609 207.497 253.495 207.497 253.2 C 207.497 253.133 207.507 253.067 207.516 253 L 207.821 251.268 C 207.982 250.392 208.268 250.136 209.02 250.136 C 209.324 250.136 209.686 250.194 210.009 250.297 L 210.181 249.67 C 209.848 249.537 209.401 249.46 209.058 249.46 C 207.831 249.46 207.288 249.879 207.06 251.163" fill="rgb(255,255,255)"/><path d=" M 214.739 251.497 C 214.291 251.63 214.139 251.677 213.883 251.753 L 213.997 251.116 C 214.131 250.364 214.464 250.098 215.188 250.098 C 215.606 250.098 215.834 250.288 215.834 250.593 C 215.834 250.973 215.51 251.268 214.739 251.497 L 214.739 251.497 Z  M 215.244 249.46 C 213.931 249.46 213.408 250.05 213.197 251.221 L 212.923 252.782 C 212.894 252.942 212.885 253.095 212.885 253.209 C 212.885 253.847 213.256 254.284 214.188 254.284 C 214.959 254.284 215.567 254.046 216.158 253.724 L 215.985 253.143 C 215.358 253.447 214.778 253.628 214.291 253.628 C 213.797 253.628 213.655 253.457 213.655 253.161 C 213.655 253.124 213.655 253.057 213.674 252.953 L 213.759 252.477 C 214.159 252.352 214.34 252.306 214.901 252.115 C 216.205 251.677 216.567 251.287 216.567 250.506 C 216.567 249.822 216.015 249.46 215.244 249.46" fill="rgb(255,255,255)"/></g></g></g></g></g><path d=" M 262.14 221.781 L 262.14 231.461 L 262.14 231.461 Q 262.14 234.461 265.38 234.461 L 265.38 234.461 L 265.38 234.461 Q 267.06 234.461 267.91 233.751 L 267.91 233.751 L 267.91 233.751 Q 268.76 233.041 268.76 231.461 L 268.76 231.461 L 268.76 221.781 L 270.28 221.781 L 270.28 231.421 L 270.28 231.421 Q 270.28 233.741 269.05 234.781 L 269.05 234.781 L 269.05 234.781 Q 267.82 235.821 265.42 235.821 L 265.42 235.821 L 265.42 235.821 Q 263.02 235.821 261.81 234.781 L 261.81 234.781 L 261.81 234.781 Q 260.6 233.741 260.6 231.421 L 260.6 231.421 L 260.6 221.781 L 262.14 221.781 L 262.14 221.781 Z  M 274.82 227.501 L 274.82 235.621 L 273.32 235.621 L 273.32 225.621 L 274.8 225.621 L 274.8 226.321 L 274.8 226.321 Q 276.42 225.421 277.9 225.421 L 277.9 225.421 L 277.9 225.421 Q 279.9 225.421 280.59 226.501 L 280.59 226.501 L 280.59 226.501 Q 281.28 227.581 281.28 230.341 L 281.28 230.341 L 281.28 235.621 L 279.8 235.621 L 279.8 230.381 L 279.8 230.381 Q 279.8 228.301 279.39 227.531 L 279.39 227.531 L 279.39 227.531 Q 278.98 226.761 277.64 226.761 L 277.64 226.761 L 277.64 226.761 Q 277 226.761 276.29 226.951 L 276.29 226.951 L 276.29 226.951 Q 275.58 227.141 275.2 227.321 L 275.2 227.321 L 274.82 227.501 L 274.82 227.501 Z  M 285.56 235.621 L 284.06 235.621 L 284.06 225.621 L 285.56 225.621 L 285.56 235.621 L 285.56 235.621 Z  M 285.56 223.361 L 284.06 223.361 L 284.06 221.621 L 285.56 221.621 L 285.56 223.361 L 285.56 223.361 Z  M 290.32 235.621 L 287.5 225.621 L 289.1 225.621 L 291.44 234.321 L 292.18 234.321 L 294.6 225.621 L 296.14 225.621 L 293.32 235.621 L 290.32 235.621 L 290.32 235.621 Z  M 304.68 234.381 L 304.68 234.381 L 305.26 234.321 L 305.3 235.501 L 305.3 235.501 Q 303.02 235.821 301.4 235.821 L 301.4 235.821 L 301.4 235.821 Q 299.24 235.821 298.34 234.571 L 298.34 234.571 L 298.34 234.571 Q 297.44 233.321 297.44 230.681 L 297.44 230.681 L 297.44 230.681 Q 297.44 225.421 301.62 225.421 L 301.62 225.421 L 301.62 225.421 Q 303.64 225.421 304.64 226.551 L 304.64 226.551 L 304.64 226.551 Q 305.64 227.681 305.64 230.101 L 305.64 230.101 L 305.56 231.241 L 298.96 231.241 L 298.96 231.241 Q 298.96 232.901 299.56 233.701 L 299.56 233.701 L 299.56 233.701 Q 300.16 234.501 301.65 234.501 L 301.65 234.501 L 301.65 234.501 Q 303.14 234.501 304.68 234.381 Z  M 298.94 230.041 L 304.14 230.041 L 304.14 230.041 Q 304.14 228.201 303.55 227.441 L 303.55 227.441 L 303.55 227.441 Q 302.96 226.681 301.63 226.681 L 301.63 226.681 L 301.63 226.681 Q 300.3 226.681 299.63 227.481 L 299.63 227.481 L 299.63 227.481 Q 298.96 228.281 298.94 230.041 L 298.94 230.041 L 298.94 230.041 Z  M 309.48 235.621 L 307.98 235.621 L 307.98 225.621 L 309.46 225.621 L 309.46 226.981 L 309.46 226.981 Q 311.2 225.781 313.12 225.401 L 313.12 225.401 L 313.12 226.921 L 313.12 226.921 Q 312.28 227.081 311.37 227.421 L 311.37 227.421 L 311.37 227.421 Q 310.46 227.761 309.98 228.021 L 309.98 228.021 L 309.48 228.281 L 309.48 235.621 L 309.48 235.621 Z  M 318.04 226.761 L 318.04 226.761 L 318.04 226.761 Q 315.86 226.761 315.86 228.281 L 315.86 228.281 L 315.86 228.281 Q 315.86 228.981 316.36 229.271 L 316.36 229.271 L 316.36 229.271 Q 316.86 229.561 318.64 229.871 L 318.64 229.871 L 318.64 229.871 Q 320.42 230.181 321.16 230.741 L 321.16 230.741 L 321.16 230.741 Q 321.9 231.301 321.9 232.841 L 321.9 232.841 L 321.9 232.841 Q 321.9 234.381 320.91 235.101 L 320.91 235.101 L 320.91 235.101 Q 319.92 235.821 318.02 235.821 L 318.02 235.821 L 318.02 235.821 Q 316.78 235.821 315.1 235.541 L 315.1 235.541 L 314.5 235.441 L 314.58 234.141 L 314.58 234.141 Q 316.86 234.481 318.02 234.481 L 318.02 234.481 L 318.02 234.481 Q 319.18 234.481 319.79 234.111 L 319.79 234.111 L 319.79 234.111 Q 320.4 233.741 320.4 232.871 L 320.4 232.871 L 320.4 232.871 Q 320.4 232.001 319.88 231.691 L 319.88 231.691 L 319.88 231.691 Q 319.36 231.381 317.6 231.101 L 317.6 231.101 L 317.6 231.101 Q 315.84 230.821 315.1 230.281 L 315.1 230.281 L 315.1 230.281 Q 314.36 229.741 314.36 228.281 L 314.36 228.281 L 314.36 228.281 Q 314.36 226.821 315.39 226.121 L 315.39 226.121 L 315.39 226.121 Q 316.42 225.421 317.96 225.421 L 317.96 225.421 L 317.96 225.421 Q 319.18 225.421 321.02 225.701 L 321.02 225.701 L 321.58 225.801 L 321.54 227.081 L 321.54 227.081 Q 319.32 226.761 318.04 226.761 Z  M 325.7 235.621 L 324.2 235.621 L 324.2 225.621 L 325.7 225.621 L 325.7 235.621 L 325.7 235.621 Z  M 325.7 223.361 L 324.2 223.361 L 324.2 221.621 L 325.7 221.621 L 325.7 223.361 L 325.7 223.361 Z  M 333.76 225.621 L 333.76 226.921 L 330.58 226.921 L 330.58 231.701 L 330.58 231.701 Q 330.58 233.421 330.83 233.961 L 330.83 233.961 L 330.83 233.961 Q 331.08 234.501 332.02 234.501 L 332.02 234.501 L 333.8 234.381 L 333.9 235.621 L 333.9 235.621 Q 332.56 235.841 331.86 235.841 L 331.86 235.841 L 331.86 235.841 Q 330.3 235.841 329.7 235.081 L 329.7 235.081 L 329.7 235.081 Q 329.1 234.321 329.1 232.181 L 329.1 232.181 L 329.1 226.921 L 327.68 226.921 L 327.68 225.621 L 329.1 225.621 L 329.1 222.561 L 330.58 222.561 L 330.58 225.621 L 333.76 225.621 L 333.76 225.621 Z  M 342.66 228.641 L 342.66 228.641 L 342.66 233.761 L 342.66 233.761 Q 342.72 234.501 343.82 234.641 L 343.82 234.641 L 343.76 235.821 L 343.76 235.821 Q 342.18 235.821 341.38 235.021 L 341.38 235.021 L 341.38 235.021 Q 339.58 235.821 337.78 235.821 L 337.78 235.821 L 337.78 235.821 Q 336.4 235.821 335.68 235.041 L 335.68 235.041 L 335.68 235.041 Q 334.96 234.261 334.96 232.801 L 334.96 232.801 L 334.96 232.801 Q 334.96 231.341 335.7 230.651 L 335.7 230.651 L 335.7 230.651 Q 336.44 229.961 338.02 229.801 L 338.02 229.801 L 341.16 229.501 L 341.16 228.641 L 341.16 228.641 Q 341.16 227.621 340.72 227.181 L 340.72 227.181 L 340.72 227.181 Q 340.28 226.741 339.52 226.741 L 339.52 226.741 L 339.52 226.741 Q 337.92 226.741 336.2 226.941 L 336.2 226.941 L 335.58 227.001 L 335.52 225.861 L 335.52 225.861 Q 337.72 225.421 339.42 225.421 L 339.42 225.421 L 339.42 225.421 Q 341.12 225.421 341.89 226.201 L 341.89 226.201 L 341.89 226.201 Q 342.66 226.981 342.66 228.641 Z  M 336.5 232.721 L 336.5 232.721 L 336.5 232.721 Q 336.5 234.561 338.02 234.561 L 338.02 234.561 L 338.02 234.561 Q 339.38 234.561 340.7 234.101 L 340.7 234.101 L 341.16 233.941 L 341.16 230.641 L 338.2 230.921 L 338.2 230.921 Q 337.3 231.001 336.9 231.441 L 336.9 231.441 L 336.9 231.441 Q 336.5 231.881 336.5 232.721 Z  M 347.12 235.621 L 345.62 235.621 L 345.62 225.621 L 347.12 225.621 L 347.12 235.621 L 347.12 235.621 Z  M 347.12 223.361 L 345.62 223.361 L 345.62 221.621 L 347.12 221.621 L 347.12 223.361 L 347.12 223.361 Z  M 351.5 235.621 L 350 235.621 L 350 225.621 L 351.48 225.621 L 351.48 226.981 L 351.48 226.981 Q 353.22 225.781 355.14 225.401 L 355.14 225.401 L 355.14 226.921 L 355.14 226.921 Q 354.3 227.081 353.39 227.421 L 353.39 227.421 L 353.39 227.421 Q 352.48 227.761 352 228.021 L 352 228.021 L 351.5 228.281 L 351.5 235.621 L 351.5 235.621 Z  M 363.52 234.381 L 363.52 234.381 L 364.1 234.321 L 364.14 235.501 L 364.14 235.501 Q 361.86 235.821 360.24 235.821 L 360.24 235.821 L 360.24 235.821 Q 358.08 235.821 357.18 234.571 L 357.18 234.571 L 357.18 234.571 Q 356.28 233.321 356.28 230.681 L 356.28 230.681 L 356.28 230.681 Q 356.28 225.421 360.46 225.421 L 360.46 225.421 L 360.46 225.421 Q 362.48 225.421 363.48 226.551 L 363.48 226.551 L 363.48 226.551 Q 364.48 227.681 364.48 230.101 L 364.48 230.101 L 364.4 231.241 L 357.8 231.241 L 357.8 231.241 Q 357.8 232.901 358.4 233.701 L 358.4 233.701 L 358.4 233.701 Q 359 234.501 360.49 234.501 L 360.49 234.501 L 360.49 234.501 Q 361.98 234.501 363.52 234.381 Z  M 357.78 230.041 L 362.98 230.041 L 362.98 230.041 Q 362.98 228.201 362.39 227.441 L 362.39 227.441 L 362.39 227.441 Q 361.8 226.681 360.47 226.681 L 360.47 226.681 L 360.47 226.681 Q 359.14 226.681 358.47 227.481 L 358.47 227.481 L 358.47 227.481 Q 357.8 228.281 357.78 230.041 L 357.78 230.041 L 357.78 230.041 Z  M 369.96 226.761 L 369.96 226.761 L 369.96 226.761 Q 367.78 226.761 367.78 228.281 L 367.78 228.281 L 367.78 228.281 Q 367.78 228.981 368.28 229.271 L 368.28 229.271 L 368.28 229.271 Q 368.78 229.561 370.56 229.871 L 370.56 229.871 L 370.56 229.871 Q 372.34 230.181 373.08 230.741 L 373.08 230.741 L 373.08 230.741 Q 373.82 231.301 373.82 232.841 L 373.82 232.841 L 373.82 232.841 Q 373.82 234.381 372.83 235.101 L 372.83 235.101 L 372.83 235.101 Q 371.84 235.821 369.94 235.821 L 369.94 235.821 L 369.94 235.821 Q 368.7 235.821 367.02 235.541 L 367.02 235.541 L 366.42 235.441 L 366.5 234.141 L 366.5 234.141 Q 368.78 234.481 369.94 234.481 L 369.94 234.481 L 369.94 234.481 Q 371.1 234.481 371.71 234.111 L 371.71 234.111 L 371.71 234.111 Q 372.32 233.741 372.32 232.871 L 372.32 232.871 L 372.32 232.871 Q 372.32 232.001 371.8 231.691 L 371.8 231.691 L 371.8 231.691 Q 371.28 231.381 369.52 231.101 L 369.52 231.101 L 369.52 231.101 Q 367.76 230.821 367.02 230.281 L 367.02 230.281 L 367.02 230.281 Q 366.28 229.741 366.28 228.281 L 366.28 228.281 L 366.28 228.281 Q 366.28 226.821 367.31 226.121 L 367.31 226.121 L 367.31 226.121 Q 368.34 225.421 369.88 225.421 L 369.88 225.421 L 369.88 225.421 Q 371.1 225.421 372.94 225.701 L 372.94 225.701 L 373.5 225.801 L 373.46 227.081 L 373.46 227.081 Q 371.24 226.761 369.96 226.761 Z  M 315.04 205.848 L 315.04 207.148 L 311.86 207.148 L 311.86 211.928 L 311.86 211.928 Q 311.86 213.648 312.11 214.188 L 312.11 214.188 L 312.11 214.188 Q 312.36 214.728 313.3 214.728 L 313.3 214.728 L 315.08 214.608 L 315.18 215.848 L 315.18 215.848 Q 313.84 216.068 313.14 216.068 L 313.14 216.068 L 313.14 216.068 Q 311.58 216.068 310.98 215.308 L 310.98 215.308 L 310.98 215.308 Q 310.38 214.548 310.38 212.408 L 310.38 212.408 L 310.38 207.148 L 308.96 207.148 L 308.96 205.848 L 310.38 205.848 L 310.38 202.788 L 311.86 202.788 L 311.86 205.848 L 315.04 205.848 L 315.04 205.848 Z  M 318.38 207.588 L 318.38 215.848 L 316.88 215.848 L 316.88 201.488 L 318.38 201.488 L 318.38 206.408 L 318.38 206.408 Q 319.98 205.648 321.46 205.648 L 321.46 205.648 L 321.46 205.648 Q 323.46 205.648 324.15 206.728 L 324.15 206.728 L 324.15 206.728 Q 324.84 207.808 324.84 210.568 L 324.84 210.568 L 324.84 215.848 L 323.34 215.848 L 323.34 210.608 L 323.34 210.608 Q 323.34 208.528 322.93 207.758 L 322.93 207.758 L 322.93 207.758 Q 322.52 206.988 321.2 206.988 L 321.2 206.988 L 321.2 206.988 Q 319.94 206.988 318.76 207.448 L 318.76 207.448 L 318.38 207.588 L 318.38 207.588 Z  M 334.42 214.608 L 334.42 214.608 L 335 214.548 L 335.04 215.728 L 335.04 215.728 Q 332.76 216.048 331.14 216.048 L 331.14 216.048 L 331.14 216.048 Q 328.98 216.048 328.08 214.798 L 328.08 214.798 L 328.08 214.798 Q 327.18 213.548 327.18 210.908 L 327.18 210.908 L 327.18 210.908 Q 327.18 205.648 331.36 205.648 L 331.36 205.648 L 331.36 205.648 Q 333.38 205.648 334.38 206.778 L 334.38 206.778 L 334.38 206.778 Q 335.38 207.908 335.38 210.328 L 335.38 210.328 L 335.3 211.468 L 328.7 211.468 L 328.7 211.468 Q 328.7 213.128 329.3 213.928 L 329.3 213.928 L 329.3 213.928 Q 329.9 214.728 331.39 214.728 L 331.39 214.728 L 331.39 214.728 Q 332.88 214.728 334.42 214.608 Z  M 328.68 210.268 L 333.88 210.268 L 333.88 210.268 Q 333.88 208.428 333.29 207.668 L 333.29 207.668 L 333.29 207.668 Q 332.7 206.908 331.37 206.908 L 331.37 206.908 L 331.37 206.908 Q 330.04 206.908 329.37 207.708 L 329.37 207.708 L 329.37 207.708 Q 328.7 208.508 328.68 210.268 L 328.68 210.268 L 328.68 210.268 Z  M 328.6 202.308 L 329.12 201.028 L 333.44 202.988 L 333.02 204.008 L 328.6 202.308 L 328.6 202.308 Z  M 341.04 216.048 L 341.04 216.048 L 341.04 216.048 Q 339.02 216.048 338.15 214.868 L 338.15 214.868 L 338.15 214.868 Q 337.28 213.688 337.28 210.868 L 337.28 210.868 L 337.28 210.868 Q 337.28 208.048 338.32 206.848 L 338.32 206.848 L 338.32 206.848 Q 339.36 205.648 342 205.648 L 342 205.648 L 345.34 205.848 L 345.34 220.288 L 343.86 220.288 L 343.86 215.388 L 343.86 215.388 Q 342.46 216.048 341.04 216.048 Z  M 342.02 206.948 L 342.02 206.948 L 342.02 206.948 Q 340.14 206.948 339.47 207.888 L 339.47 207.888 L 339.47 207.888 Q 338.8 208.828 338.8 210.878 L 338.8 210.878 L 338.8 210.878 Q 338.8 212.928 339.35 213.818 L 339.35 213.818 L 339.35 213.818 Q 339.9 214.708 341.2 214.708 L 341.2 214.708 L 341.2 214.708 Q 342.36 214.708 343.5 214.268 L 343.5 214.268 L 343.86 214.128 L 343.86 207.068 L 343.86 207.068 Q 342.62 206.948 342.02 206.948 Z  M 354.48 213.968 L 354.48 205.848 L 355.98 205.848 L 355.98 215.848 L 354.48 215.848 L 354.48 215.148 L 354.48 215.148 Q 352.98 216.048 351.52 216.048 L 351.52 216.048 L 351.52 216.048 Q 349.48 216.048 348.81 214.988 L 348.81 214.988 L 348.81 214.988 Q 348.14 213.928 348.14 211.068 L 348.14 211.068 L 348.14 205.848 L 349.64 205.848 L 349.64 211.048 L 349.64 211.048 Q 349.64 213.228 350.02 213.968 L 350.02 213.968 L 350.02 213.968 Q 350.4 214.708 351.74 214.708 L 351.74 214.708 L 351.74 214.708 Q 352.4 214.708 353.08 214.518 L 353.08 214.518 L 353.08 214.518 Q 353.76 214.328 354.12 214.148 L 354.12 214.148 L 354.48 213.968 L 354.48 213.968 Z  M 365.66 214.608 L 365.66 214.608 L 366.24 214.548 L 366.28 215.728 L 366.28 215.728 Q 364 216.048 362.38 216.048 L 362.38 216.048 L 362.38 216.048 Q 360.22 216.048 359.32 214.798 L 359.32 214.798 L 359.32 214.798 Q 358.42 213.548 358.42 210.908 L 358.42 210.908 L 358.42 210.908 Q 358.42 205.648 362.6 205.648 L 362.6 205.648 L 362.6 205.648 Q 364.62 205.648 365.62 206.778 L 365.62 206.778 L 365.62 206.778 Q 366.62 207.908 366.62 210.328 L 366.62 210.328 L 366.54 211.468 L 359.94 211.468 L 359.94 211.468 Q 359.94 213.128 360.54 213.928 L 360.54 213.928 L 360.54 213.928 Q 361.14 214.728 362.63 214.728 L 362.63 214.728 L 362.63 214.728 Q 364.12 214.728 365.66 214.608 Z  M 359.92 210.268 L 365.12 210.268 L 365.12 210.268 Q 365.12 208.428 364.53 207.668 L 364.53 207.668 L 364.53 207.668 Q 363.94 206.908 362.61 206.908 L 362.61 206.908 L 362.61 206.908 Q 361.28 206.908 360.61 207.708 L 360.61 207.708 L 360.61 207.708 Q 359.94 208.508 359.92 210.268 L 359.92 210.268 L 359.92 210.268 Z  M 372.1 206.988 L 372.1 206.988 L 372.1 206.988 Q 369.92 206.988 369.92 208.508 L 369.92 208.508 L 369.92 208.508 Q 369.92 209.208 370.42 209.498 L 370.42 209.498 L 370.42 209.498 Q 370.92 209.788 372.7 210.098 L 372.7 210.098 L 372.7 210.098 Q 374.48 210.408 375.22 210.968 L 375.22 210.968 L 375.22 210.968 Q 375.96 211.528 375.96 213.068 L 375.96 213.068 L 375.96 213.068 Q 375.96 214.608 374.97 215.328 L 374.97 215.328 L 374.97 215.328 Q 373.98 216.048 372.08 216.048 L 372.08 216.048 L 372.08 216.048 Q 370.84 216.048 369.16 215.768 L 369.16 215.768 L 368.56 215.668 L 368.64 214.368 L 368.64 214.368 Q 370.92 214.708 372.08 214.708 L 372.08 214.708 L 372.08 214.708 Q 373.24 214.708 373.85 214.338 L 373.85 214.338 L 373.85 214.338 Q 374.46 213.968 374.46 213.098 L 374.46 213.098 L 374.46 213.098 Q 374.46 212.228 373.94 211.918 L 373.94 211.918 L 373.94 211.918 Q 373.42 211.608 371.66 211.328 L 371.66 211.328 L 371.66 211.328 Q 369.9 211.048 369.16 210.508 L 369.16 210.508 L 369.16 210.508 Q 368.42 209.968 368.42 208.508 L 368.42 208.508 L 368.42 208.508 Q 368.42 207.048 369.45 206.348 L 369.45 206.348 L 369.45 206.348 Q 370.48 205.648 372.02 205.648 L 372.02 205.648 L 372.02 205.648 Q 373.24 205.648 375.08 205.928 L 375.08 205.928 L 375.64 206.028 L 375.6 207.308 L 375.6 207.308 Q 373.38 206.988 372.1 206.988 Z  M 260.48 215.848 L 260.48 202.248 L 265.82 202.248 L 265.82 202.248 Q 267.94 202.248 269 203.098 L 269 203.098 L 269 203.098 Q 270.06 203.948 270.06 205.848 L 270.06 205.848 L 270.06 205.848 Q 270.06 206.988 269.72 207.658 L 269.72 207.658 L 269.72 207.658 Q 269.38 208.328 268.56 208.848 L 268.56 208.848 L 268.56 208.848 Q 269.46 209.228 269.89 209.948 L 269.89 209.948 L 269.89 209.948 Q 270.32 210.668 270.32 211.948 L 270.32 211.948 L 270.32 211.948 Q 270.32 213.928 269.16 214.888 L 269.16 214.888 L 269.16 214.888 Q 268 215.848 265.9 215.848 L 265.9 215.848 L 260.48 215.848 L 260.48 215.848 Z  M 265.76 210.168 L 265.76 210.168 L 263.24 210.168 L 263.24 213.488 L 265.76 213.488 L 265.76 213.488 Q 266.66 213.488 267.09 213.128 L 267.09 213.128 L 267.09 213.128 Q 267.52 212.768 267.52 211.808 L 267.52 211.808 L 267.52 211.808 Q 267.52 210.168 265.76 210.168 Z  M 265.68 204.608 L 265.68 204.608 L 263.24 204.608 L 263.24 207.848 L 265.7 207.848 L 265.7 207.848 Q 267.26 207.848 267.26 206.228 L 267.26 206.228 L 267.26 206.228 Q 267.26 204.608 265.68 204.608 Z  M 275.1 215.848 L 272.42 215.848 L 272.42 205.848 L 275.1 205.848 L 275.1 215.848 L 275.1 215.848 Z  M 275.1 204.568 L 272.42 204.568 L 272.42 201.848 L 275.1 201.848 L 275.1 204.568 L 275.1 204.568 Z  M 282.42 205.608 L 282.42 205.608 L 282.42 205.608 Q 284.52 205.608 285.49 206.758 L 285.49 206.758 L 285.49 206.758 Q 286.46 207.908 286.46 210.868 L 286.46 210.868 L 286.46 210.868 Q 286.46 213.828 285.34 214.958 L 285.34 214.958 L 285.34 214.958 Q 284.22 216.088 281.48 216.088 L 281.48 216.088 L 281.48 216.088 Q 280.62 216.088 278.34 215.888 L 278.34 215.888 L 277.58 215.808 L 277.58 201.848 L 280.26 201.848 L 280.26 206.148 L 280.26 206.148 Q 281.54 205.608 282.42 205.608 Z  M 281.48 213.688 L 281.48 213.688 L 281.48 213.688 Q 282.82 213.688 283.28 213.038 L 283.28 213.038 L 283.28 213.038 Q 283.74 212.388 283.74 210.708 L 283.74 210.708 L 283.74 210.708 Q 283.74 208.008 282.06 208.008 L 282.06 208.008 L 282.06 208.008 Q 281.26 208.008 280.54 208.208 L 280.54 208.208 L 280.26 208.268 L 280.26 213.608 L 280.26 213.608 Q 281.18 213.688 281.48 213.688 Z  M 291.26 215.848 L 288.58 215.848 L 288.58 201.848 L 291.26 201.848 L 291.26 215.848 L 291.26 215.848 Z  M 296.54 215.848 L 293.86 215.848 L 293.86 205.848 L 296.54 205.848 L 296.54 215.848 L 296.54 215.848 Z  M 296.54 204.568 L 293.86 204.568 L 293.86 201.848 L 296.54 201.848 L 296.54 204.568 L 296.54 204.568 Z  M 299.56 206.978 L 299.56 206.978 L 299.56 206.978 Q 300.62 205.608 303.1 205.608 L 303.1 205.608 L 303.1 205.608 Q 305.58 205.608 306.64 206.978 L 306.64 206.978 L 306.64 206.978 Q 307.7 208.348 307.7 210.828 L 307.7 210.828 L 307.7 210.828 Q 307.7 216.088 303.1 216.088 L 303.1 216.088 L 303.1 216.088 Q 298.5 216.088 298.5 210.828 L 298.5 210.828 L 298.5 210.828 Q 298.5 208.348 299.56 206.978 Z  M 301.63 213.088 L 301.63 213.088 L 301.63 213.088 Q 302.04 213.808 303.1 213.808 L 303.1 213.808 L 303.1 213.808 Q 304.16 213.808 304.57 213.088 L 304.57 213.088 L 304.57 213.088 Q 304.98 212.368 304.98 210.828 L 304.98 210.828 L 304.98 210.828 Q 304.98 209.288 304.57 208.588 L 304.57 208.588 L 304.57 208.588 Q 304.16 207.888 303.1 207.888 L 303.1 207.888 L 303.1 207.888 Q 302.04 207.888 301.63 208.588 L 301.63 208.588 L 301.63 208.588 Q 301.22 209.288 301.22 210.828 L 301.22 210.828 L 301.22 210.828 Q 301.22 212.368 301.63 213.088 Z " fill="rgb(255,255,255)"/></g><line x1="245" y1="184.284" x2="245" y2="254.284" vector-effect="non-scaling-stroke" stroke-width="1" stroke="rgb(255,255,255)" stroke-linejoin="miter" stroke-linecap="square" stroke-miterlimit="3"/></g><g style="isolation:isolate"><g><rect x="110.886" y="0" width="1.927" height="53" transform="matrix(1,0,0,1,0,0)" fill="rgb(20,118,198)"/><path d=" M 19.581 20.513 L 15.945 18.414 C 15.945 18.414 15.884 18.377 15.778 18.317 C 15.834 18.285 15.89 18.252 15.945 18.22 L 19.581 16.121 C 19.737 16.026 19.788 15.881 19.821 15.757 C 19.853 15.626 19.86 15.497 19.86 15.387 C 19.86 15.235 19.845 15.12 19.845 15.115 L 19.834 15.023 L 19.761 14.969 C 19.739 14.964 19.379 14.648 18.98 14.629 C 18.909 14.629 18.829 14.643 18.753 14.687 L 15.118 16.786 C 15.061 16.819 15.006 16.85 14.95 16.883 L 14.95 16.689 L 14.95 9.062 C 14.926 8.758 14.705 8.63 14.543 8.513 C 14.37 8.403 14.209 8.336 14.202 8.331 L 14.118 8.297 L 14.033 8.331 C 14.027 8.336 13.867 8.403 13.697 8.513 C 13.535 8.63 13.317 8.759 13.294 9.062 L 13.294 16.689 L 13.294 16.883 C 13.239 16.85 13.182 16.819 13.126 16.786 L 9.49 14.687 C 9.414 14.642 9.334 14.63 9.263 14.63 C 8.864 14.648 8.504 14.965 8.483 14.969 L 8.41 15.023 L 8.398 15.114 C 8.398 15.12 8.384 15.234 8.384 15.387 C 8.384 15.497 8.39 15.627 8.422 15.757 C 8.455 15.882 8.507 16.027 8.662 16.121 L 12.299 18.22 C 12.354 18.253 12.41 18.285 12.465 18.317 C 12.36 18.377 12.299 18.414 12.299 18.414 L 8.662 20.513 C 8.506 20.607 8.454 20.752 8.422 20.877 C 8.39 21.007 8.384 21.136 8.384 21.247 C 8.384 21.399 8.398 21.514 8.399 21.52 L 8.41 21.611 L 8.483 21.665 C 8.504 21.669 8.864 21.986 9.263 22.003 L 9.266 22.003 C 9.336 22.003 9.415 21.991 9.49 21.947 L 13.126 19.849 C 13.126 19.849 13.187 19.813 13.294 19.752 L 13.294 19.944 L 13.294 24.143 C 13.317 24.449 13.538 24.577 13.7 24.694 C 13.873 24.804 14.035 24.871 14.041 24.874 L 14.125 24.91 L 14.21 24.874 C 14.217 24.871 14.377 24.804 14.547 24.694 C 14.708 24.577 14.927 24.448 14.95 24.143 L 14.95 19.944 C 14.95 19.944 14.95 19.874 14.95 19.751 C 15.056 19.812 15.118 19.848 15.118 19.848 L 18.753 21.947 C 18.83 21.991 18.91 22.003 18.98 22.003 C 19.379 21.986 19.738 21.669 19.761 21.665 L 19.834 21.611 L 19.845 21.519 C 19.845 21.514 19.86 21.399 19.86 21.247 C 19.86 21.136 19.853 21.007 19.821 20.877 C 19.789 20.752 19.737 20.608 19.581 20.513 Z " fill="rgb(250,178,11)"/><path d=" M 0 26.514 C 0 23.737 0.239 21.138 0.718 18.719 C 1.197 16.3 1.923 13.919 2.897 11.574 C 3.872 9.229 5.077 6.881 6.512 4.525 C 7.376 3.089 8.143 2.089 8.691 1.421 C 9.259 0.73 9.86 0 10.688 0 C 11.59 0 12.041 0.248 12.041 0.746 C 12.041 0.911 11.616 1.908 10.771 3.739 C 9.924 5.569 9.128 7.486 8.384 9.49 C 7.639 11.496 6.948 13.997 6.316 16.996 C 5.68 19.993 5.364 23.167 5.364 26.514 C 5.364 29.825 5.676 32.96 6.3 35.923 C 6.927 38.884 7.813 41.45 8.612 43.621 C 9.414 45.79 10.04 47.736 10.838 49.455 C 11.639 51.175 12.041 52.108 12.041 52.256 C 12.041 52.752 11.59 53 10.688 53 C 9.842 53 9.261 52.155 8.691 51.511 C 8.122 50.866 7.395 49.838 6.512 48.42 C 5.059 45.994 3.859 43.653 2.912 41.4 C 1.963 39.146 1.242 36.805 0.746 34.377 C 0.248 31.949 0 29.328 0 26.514 Z " fill="rgb(20,118,198)"/></g></g></g></svg>