<?xml version="1.0" encoding="UTF-8" standalone="no"?><!-- Generator: Gravit.io --><svg xmlns="http://www.w3.org/2000/svg" xmlns:xlink="http://www.w3.org/1999/xlink" style="isolation:isolate" viewBox="0 199.572 600 109" width="600pt" height="109pt"><defs><clipPath id="_clipPath_9X4L9ShAgM95W2ow37fP7AqfMh6iVzJX"><rect width="1000" height="600"/></clipPath></defs><g clip-path="url(#_clipPath_9X4L9ShAgM95W2ow37fP7AqfMh6iVzJX)"><rect width="1000" height="600" style="fill:rgb(255,0,0)" fill-opacity="0"/><g><g><path d=" M 379.067 243.372 C 379.067 241.845 378.118 241.063 376.469 241.063 L 371.77 241.063 L 371.77 247.453 L 375.604 247.453 C 377.541 247.453 379.067 247.041 379.067 245.062 L 379.067 243.372 Z  M 378.077 231.91 C 378.077 230.715 377.335 229.97 375.604 229.97 L 371.77 229.97 L 371.77 236.238 L 375.604 236.238 C 377.252 236.238 378.077 235.415 378.077 234.301 L 378.077 231.91 Z  M 377.294 252.441 L 365.586 252.441 L 365.586 224.983 L 376.429 224.983 C 382.159 224.983 384.262 227.292 384.262 231.001 L 384.262 233.805 C 384.262 235.787 383.397 237.188 381.21 238.135 C 383.478 238.671 385.252 240.65 385.252 243.206 L 385.252 245.887 C 385.252 249.764 382.777 252.441 377.294 252.441 Z " fill="rgb(51,51,51)"/><path d=" M 389.171 232.362 L 395.107 232.362 L 395.107 252.442 L 389.171 252.442 L 389.171 232.362 Z  M 389.171 223.542 L 395.107 223.542 L 395.107 229.85 L 389.171 229.85 L 389.171 223.542 Z " fill="rgb(51,51,51)"/><path d=" M 406.404 247.617 C 407.271 247.701 408.013 247.701 408.837 247.701 C 411.806 247.701 412.341 246.34 412.341 244.443 L 412.341 239.249 C 412.341 237.929 411.765 237.104 410.199 237.104 C 408.92 237.104 407.519 237.64 406.404 238.219 L 406.404 247.617 Z  M 408.631 252.854 C 406.488 252.854 403.231 252.647 400.468 252.196 L 400.468 224.158 L 406.404 223.333 L 406.404 233.064 C 408.013 232.447 409.908 231.952 412.094 231.952 C 416.546 231.952 418.279 234.715 418.279 239.206 L 418.279 244.403 C 418.279 249.184 416.919 252.854 408.631 252.854 Z " fill="rgb(51,51,51)"/><path d=" M 422.61 252.442 L 422.61 224.158 L 428.547 223.333 L 428.547 252.442 L 422.61 252.442 Z " fill="rgb(51,51,51)"/><path d=" M 433.909 232.362 L 439.845 232.362 L 439.845 252.442 L 433.909 252.442 L 433.909 232.362 Z  M 433.909 223.542 L 439.845 223.542 L 439.845 229.85 L 433.909 229.85 L 433.909 223.542 Z " fill="rgb(51,51,51)"/><path d=" M 456.379 244.897 L 456.379 239.908 C 456.379 238.01 455.39 236.939 453.246 236.939 C 451.101 236.939 450.111 238.01 450.111 239.908 L 450.111 244.897 C 450.111 246.795 451.101 247.867 453.246 247.867 C 455.39 247.867 456.379 246.795 456.379 244.897 Z  M 444.174 244.732 L 444.174 240.072 C 444.174 235.95 446.113 231.952 453.246 231.952 C 460.377 231.952 462.315 235.95 462.315 240.072 L 462.315 244.732 C 462.315 248.854 460.377 252.854 453.246 252.854 C 446.113 252.854 444.174 248.854 444.174 244.732 Z " fill="rgb(51,51,51)"/><path d=" M 477.742 252.112 C 476.506 252.566 475.022 252.854 473.538 252.854 C 470.157 252.854 468.549 251.618 468.549 248.277 L 468.549 235.25 L 465.003 235.25 L 465.003 232.363 L 468.549 232.363 L 468.549 227.417 L 472.011 226.921 L 472.011 232.363 L 477.702 232.363 L 477.412 235.25 L 472.011 235.25 L 472.011 247.701 C 472.011 249.184 472.218 249.928 474.073 249.928 C 475.022 249.928 476.011 249.764 477.289 249.433 L 477.742 252.112 Z " fill="rgb(51,51,51)"/><path d=" M 494.607 252.442 L 494.607 237.104 C 494.607 235.786 493.947 235.25 492.668 235.25 C 491.184 235.25 488.093 236.198 485.949 237.31 L 485.949 252.442 L 482.485 252.442 L 482.485 224.158 L 485.949 223.663 L 485.949 234.054 C 488.175 232.983 491.351 231.952 493.699 231.952 C 496.915 231.952 498.07 233.971 498.07 237.064 L 498.07 252.442 L 494.607 252.442 Z " fill="rgb(51,51,51)"/><path d=" M 506.895 240.857 L 515.512 240.857 L 515.512 239.206 C 515.512 236.402 514.564 234.836 511.307 234.836 C 508.05 234.836 506.895 236.402 506.895 239.206 L 506.895 240.857 Z  M 512.502 229.931 C 510.4 228.818 508.668 227.746 506.772 226.345 L 508.255 224.034 C 509.699 225.229 511.842 226.592 513.904 227.787 L 512.502 229.931 Z  M 511.677 249.886 C 513.657 249.886 515.842 249.514 518.027 248.938 L 518.48 251.7 C 516.585 252.402 513.904 252.854 511.389 252.854 C 505.452 252.854 503.431 250.009 503.431 245.474 L 503.431 239.456 C 503.431 235.291 505.329 231.952 511.307 231.952 C 517.243 231.952 518.852 235.371 518.852 239.537 L 518.852 243.742 L 506.895 243.742 L 506.895 245.433 C 506.895 248.607 507.761 249.886 511.677 249.886 Z " fill="rgb(51,51,51)"/><path d=" M 535.633 235.291 C 534.273 235.085 532.912 235.001 531.676 235.001 C 527.594 235.001 526.852 236.652 526.852 239.33 L 526.852 246.71 C 526.852 248.772 527.76 249.804 530.11 249.804 C 531.882 249.804 534.273 248.937 535.633 248.277 L 535.633 235.291 Z  M 523.389 239.456 C 523.389 234.878 525.037 231.952 531.923 231.952 C 533.779 231.952 536.789 232.198 539.098 232.733 L 539.098 260.565 L 535.633 261.058 L 535.633 251.451 C 534.232 252.195 531.84 252.854 529.283 252.854 C 525.12 252.854 523.389 250.421 523.389 246.587 L 523.389 239.456 Z " fill="rgb(51,51,51)"/><path d=" M 548.953 232.363 L 548.953 247.701 C 548.953 249.019 549.613 249.556 550.892 249.556 C 552.376 249.556 555.468 248.649 557.612 247.536 L 557.612 232.363 L 561.076 232.363 L 561.076 252.442 L 558.272 252.442 L 557.941 250.711 C 555.715 251.781 552.252 252.854 549.861 252.854 C 546.644 252.854 545.491 250.834 545.491 247.742 L 545.491 232.363 L 548.953 232.363 Z " fill="rgb(51,51,51)"/><path d=" M 570.107 240.857 L 578.723 240.857 L 578.723 239.206 C 578.723 236.402 577.775 234.836 574.518 234.836 C 571.261 234.836 570.107 236.402 570.107 239.206 L 570.107 240.857 Z  M 574.888 249.886 C 576.868 249.886 579.054 249.514 581.238 248.938 L 581.691 251.7 C 579.796 252.402 577.115 252.854 574.6 252.854 C 568.664 252.854 566.644 250.009 566.644 245.474 L 566.644 239.456 C 566.644 235.291 568.54 231.952 574.518 231.952 C 580.455 231.952 582.062 235.371 582.062 239.537 L 582.062 243.742 L 570.107 243.742 L 570.107 245.433 C 570.107 248.607 570.971 249.886 574.888 249.886 Z " fill="rgb(51,51,51)"/><path d=" M 593.073 252.854 C 591.011 252.854 588.291 252.402 586.681 251.781 L 587.136 249.061 C 588.867 249.556 591.135 249.885 592.867 249.885 C 596.042 249.885 596.578 249.308 596.578 247.166 C 596.578 245.022 596.413 244.773 592.372 243.783 C 587.382 242.546 586.929 241.516 586.929 237.353 C 586.929 233.64 588.579 231.952 593.856 231.952 C 595.795 231.952 597.897 232.197 599.546 232.653 L 599.3 235.497 C 597.609 235.167 595.382 234.921 593.733 234.921 C 590.765 234.921 590.352 235.622 590.352 237.434 C 590.352 239.661 590.393 240.072 593.774 240.898 C 599.546 242.34 600 243.04 600 247.041 C 600 250.957 598.804 252.854 593.073 252.854 Z " fill="rgb(51,51,51)"/><path d=" M 368.368 266.635 L 368.368 279.417 C 368.368 280.516 368.918 280.963 369.982 280.963 C 371.22 280.963 373.797 280.207 375.584 279.279 L 375.584 266.635 L 378.469 266.635 L 378.469 283.368 L 376.134 283.368 L 375.859 281.925 C 374.003 282.817 371.117 283.711 369.125 283.711 C 366.443 283.711 365.481 282.028 365.481 279.451 L 365.481 266.635 L 368.368 266.635 Z " fill="rgb(51,51,51)"/><path d=" M 394.07 283.367 L 394.07 270.586 C 394.07 269.486 393.521 269.039 392.456 269.039 C 391.218 269.039 388.641 269.795 386.854 270.723 L 386.854 283.367 L 383.969 283.367 L 383.969 266.635 L 386.304 266.635 L 386.579 268.077 C 388.435 267.183 391.321 266.29 393.314 266.29 C 395.995 266.29 396.956 267.973 396.956 270.551 L 396.956 283.367 L 394.07 283.367 Z " fill="rgb(51,51,51)"/><path d=" M 402.283 266.635 L 405.169 266.635 L 405.169 283.368 L 402.283 283.368 L 402.283 266.635 Z  M 402.283 259.797 L 405.169 259.797 L 405.169 263.953 L 402.283 263.953 L 402.283 259.797 Z " fill="rgb(51,51,51)"/><path d=" M 420.253 266.635 L 423.105 266.635 L 417.573 283.368 L 413.725 283.368 L 408.193 266.635 L 411.045 266.635 L 415.648 280.997 L 420.253 266.635 Z " fill="rgb(51,51,51)"/><path d=" M 428.157 273.712 L 435.337 273.712 L 435.337 272.338 C 435.337 270.001 434.548 268.696 431.833 268.696 C 429.119 268.696 428.157 270.001 428.157 272.338 L 428.157 273.712 Z  M 432.143 281.238 C 433.792 281.238 435.612 280.929 437.434 280.448 L 437.812 282.75 C 436.233 283.333 433.998 283.712 431.902 283.712 C 426.955 283.712 425.269 281.34 425.269 277.56 L 425.269 272.544 C 425.269 269.074 426.851 266.291 431.833 266.291 C 436.781 266.291 438.121 269.143 438.121 272.613 L 438.121 276.118 L 428.157 276.118 L 428.157 277.526 C 428.157 280.173 428.879 281.238 432.143 281.238 Z " fill="rgb(51,51,51)"/><path d=" M 450.321 268.936 C 448.739 269.692 446.918 270.861 445.544 271.823 L 445.544 283.367 L 442.657 283.367 L 442.657 266.635 L 445.164 266.635 L 445.337 268.97 C 446.574 268.008 448.294 266.977 449.941 266.29 L 450.321 268.936 Z " fill="rgb(51,51,51)"/><path d=" M 457.881 283.711 C 456.162 283.711 453.893 283.334 452.553 282.817 L 452.932 280.549 C 454.375 280.963 456.265 281.238 457.707 281.238 C 460.354 281.238 460.8 280.756 460.8 278.971 C 460.8 277.183 460.664 276.976 457.296 276.152 C 453.139 275.121 452.759 274.261 452.759 270.791 C 452.759 267.699 454.134 266.29 458.532 266.29 C 460.148 266.29 461.901 266.497 463.274 266.875 L 463.068 269.245 C 461.66 268.971 459.804 268.764 458.429 268.764 C 455.956 268.764 455.613 269.349 455.613 270.862 C 455.613 272.716 455.646 273.059 458.464 273.747 C 463.274 274.95 463.653 275.533 463.653 278.866 C 463.653 282.13 462.657 283.711 457.881 283.711 Z " fill="rgb(51,51,51)"/><path d=" M 468.325 266.635 L 471.213 266.635 L 471.213 283.368 L 468.325 283.368 L 468.325 266.635 Z  M 468.325 259.797 L 471.213 259.797 L 471.213 263.953 L 468.325 263.953 L 468.325 259.797 Z " fill="rgb(51,51,51)"/><path d=" M 485.437 283.092 C 484.406 283.47 483.169 283.711 481.932 283.711 C 479.115 283.711 477.776 282.68 477.776 279.897 L 477.776 269.039 L 474.819 269.039 L 474.819 266.635 L 477.776 266.635 L 477.776 262.51 L 480.66 262.099 L 480.66 266.635 L 485.403 266.635 L 485.162 269.039 L 480.66 269.039 L 480.66 279.417 C 480.66 280.653 480.833 281.271 482.379 281.271 C 483.169 281.271 483.994 281.135 485.058 280.86 L 485.437 283.092 Z " fill="rgb(51,51,51)"/><path d=" M 498.357 276.599 L 494.096 276.599 C 492.309 276.599 491.656 277.149 491.656 278.831 C 491.656 280.55 491.966 281.238 494.027 281.238 C 495.47 281.238 497.085 280.687 498.357 279.862 L 498.357 276.599 Z  M 501.244 283.368 L 498.804 283.368 L 498.632 282.13 C 497.154 283.162 495.229 283.711 493.203 283.711 C 490.077 283.711 488.771 281.855 488.771 278.9 C 488.771 275.432 490.522 274.194 493.89 274.194 L 498.357 274.194 L 498.357 271.583 C 498.357 269.486 497.429 268.764 494.716 268.764 C 493.1 268.764 491.004 269.039 489.698 269.314 L 489.388 267.011 C 490.97 266.6 493.1 266.29 494.886 266.29 C 499.663 266.29 501.244 268.146 501.244 271.72 L 501.244 283.368 Z " fill="rgb(51,51,51)"/><path d=" M 506.328 266.635 L 509.215 266.635 L 509.215 283.368 L 506.328 283.368 L 506.328 266.635 Z  M 506.328 259.797 L 509.215 259.797 L 509.215 263.953 L 506.328 263.953 L 506.328 259.797 Z " fill="rgb(51,51,51)"/><path d=" M 522.376 268.936 C 520.793 269.692 518.973 270.861 517.599 271.823 L 517.599 283.367 L 514.714 283.367 L 514.714 266.635 L 517.221 266.635 L 517.393 268.97 C 518.63 268.008 520.349 266.977 521.998 266.29 L 522.376 268.936 Z " fill="rgb(51,51,51)"/><path d=" M 527.392 273.712 L 534.574 273.712 L 534.574 272.338 C 534.574 270.001 533.783 268.696 531.07 268.696 C 528.354 268.696 527.392 270.001 527.392 272.338 L 527.392 273.712 Z  M 531.378 281.238 C 533.028 281.238 534.848 280.929 536.669 280.448 L 537.048 282.75 C 535.468 283.333 533.233 283.712 531.138 283.712 C 526.189 283.712 524.506 281.34 524.506 277.56 L 524.506 272.544 C 524.506 269.074 526.085 266.291 531.07 266.291 C 536.018 266.291 537.358 269.143 537.358 272.613 L 537.358 276.118 L 527.392 276.118 L 527.392 277.526 C 527.392 280.173 528.113 281.238 531.378 281.238 Z " fill="rgb(51,51,51)"/><path d=" M 546.532 283.711 C 544.813 283.711 542.546 283.334 541.204 282.817 L 541.584 280.549 C 543.026 280.963 544.916 281.238 546.36 281.238 C 549.006 281.238 549.453 280.756 549.453 278.971 C 549.453 277.183 549.314 276.976 545.947 276.152 C 541.791 275.121 541.411 274.261 541.411 270.791 C 541.411 267.699 542.786 266.29 547.183 266.29 C 548.798 266.29 550.552 266.497 551.927 266.875 L 551.719 269.245 C 550.311 268.971 548.457 268.764 547.081 268.764 C 544.608 268.764 544.263 269.349 544.263 270.862 C 544.263 272.716 544.299 273.059 547.115 273.747 C 551.927 274.95 552.304 275.533 552.304 278.866 C 552.304 282.13 551.308 283.711 546.532 283.711 Z " fill="rgb(51,51,51)"/><rect x="338.22" y="200" width="1" height="108" transform="matrix(1,0,0,1,0,0)" fill="rgb(51,51,51)" vector-effect="non-scaling-stroke" stroke-width="0.856" stroke="rgb(51,51,51)" stroke-linejoin="miter" stroke-linecap="square" stroke-miterlimit="2"/></g><g><clipPath id="_clipPath_2I8sQDPgoZfsILGBVJQrEO4T35JjsgA7"><path d=" M 0 200 L 0 307.045 L 312.73 307.045 L 312.73 200 L 0 200 Z " fill="rgb(51,51,51)"/></clipPath><g clip-path="url(#_clipPath_2I8sQDPgoZfsILGBVJQrEO4T35JjsgA7)"><path d=" M 110.275 256.152 L 110.275 273.519 C 110.275 275.105 111.113 275.679 112.612 275.679 C 114.373 275.679 118.165 274.621 120.855 273.211 L 120.855 256.152 L 123.41 256.152 L 123.41 277.618 L 121.164 277.618 L 120.986 275.679 C 118.695 276.779 114.858 278.058 112.26 278.058 C 108.909 278.058 107.719 276.162 107.719 273.211 L 107.719 256.152 L 110.275 256.152 Z " fill="rgb(51,51,51)"/><path d=" M 144.597 277.618 L 144.597 260.251 C 144.597 258.665 143.759 258.09 142.261 258.09 C 140.499 258.09 136.708 259.151 134.02 260.561 L 134.02 277.618 L 131.46 277.618 L 131.46 256.152 L 133.71 256.152 L 133.886 258.09 C 136.178 256.99 140.014 255.712 142.612 255.712 C 145.964 255.712 147.154 257.609 147.154 260.561 L 147.154 277.618 L 144.597 277.618 Z " fill="rgb(51,51,51)"/><path d=" M 153.852 277.618 L 153.852 263.302 L 156.409 263.302 L 156.409 277.618 L 153.852 277.618 Z  M 153.852 260.769 L 153.852 256.054 L 156.409 256.054 L 156.409 260.769 L 153.852 260.769 Z " fill="rgb(51,51,51)"/><path d=" M 172.752 277.618 L 168.831 277.618 L 161.556 256.152 L 164.159 256.152 L 170.769 275.81 L 177.426 256.152 L 180.024 256.152 L 172.752 277.618 Z " fill="rgb(51,51,51)"/><path d=" M 185.906 265.365 L 196.658 265.365 L 196.658 263.425 C 196.658 259.811 195.38 257.914 191.369 257.914 C 187.359 257.914 185.906 259.811 185.906 263.425 L 185.906 265.365 Z  M 191.503 275.81 C 193.704 275.81 196.176 275.371 198.289 274.797 L 198.731 276.868 C 196.747 277.573 193.925 278.058 191.323 278.058 C 185.285 278.058 183.35 274.929 183.35 270.258 L 183.35 263.514 C 183.35 259.107 185.332 255.712 191.369 255.712 C 197.407 255.712 199.173 259.107 199.173 263.514 L 199.173 267.656 L 185.906 267.656 L 185.906 270.344 C 185.906 274.178 187.227 275.81 191.503 275.81 Z " fill="rgb(51,51,51)"/><path d=" M 214.866 258.225 C 212.62 259.195 210.151 260.825 208.077 262.191 L 208.077 277.618 L 205.524 277.618 L 205.524 256.152 L 207.815 256.152 L 207.946 259.415 C 210.237 257.914 212.528 256.46 214.559 255.712 L 214.866 258.225 Z " fill="rgb(51,51,51)"/><path d=" M 225.5 278.058 C 223.339 278.058 220.786 277.618 219.197 276.957 L 219.636 274.886 C 221.487 275.456 223.735 275.767 225.322 275.767 C 229.288 275.767 230.083 275.016 230.083 272.285 C 230.083 269.198 229.996 268.891 225.104 267.744 C 219.726 266.465 219.286 265.144 219.286 261.222 C 219.286 257.653 221.004 255.712 226.291 255.712 C 228.276 255.712 230.698 255.975 232.374 256.46 L 232.109 258.62 C 230.391 258.27 227.881 258.003 226.115 258.003 C 222.369 258.003 221.842 258.976 221.842 261.309 C 221.842 264.262 222.017 264.569 225.981 265.586 C 232.284 267.171 232.639 268.183 232.639 272.196 C 232.639 276.075 231.229 278.058 225.5 278.058 Z " fill="rgb(51,51,51)"/><path d=" M 238.842 277.618 L 238.842 263.302 L 241.4 263.302 L 241.4 277.618 L 238.842 277.618 Z  M 238.842 260.769 L 238.842 256.054 L 241.4 256.054 L 241.4 260.769 L 238.842 260.769 Z " fill="rgb(51,51,51)"/><path d=" M 259.869 277.389 C 258.638 277.877 257.425 278.058 255.881 278.058 C 252.488 278.058 251.032 276.823 251.032 273.431 L 251.032 258.356 L 246.89 258.356 L 246.89 256.152 L 251.032 256.152 L 251.032 251.819 L 253.591 251.468 L 253.591 256.152 L 259.438 256.152 L 259.173 258.356 L 253.591 258.356 L 253.591 273.165 C 253.591 275.061 253.853 275.856 256.058 275.856 C 257.245 275.856 258.107 275.802 259.384 275.407 L 259.869 277.389 Z " fill="rgb(51,51,51)"/><path d=" M 266.044 265.365 L 276.801 265.365 L 276.801 263.425 C 276.801 259.811 275.52 257.914 271.51 257.914 C 267.5 257.914 266.044 259.811 266.044 263.425 L 266.044 265.365 Z  M 271.643 275.81 C 273.846 275.81 276.315 275.371 278.429 274.797 L 278.871 276.868 C 276.886 277.573 274.066 278.058 271.467 278.058 C 265.426 278.058 263.488 274.929 263.488 270.258 L 263.488 263.514 C 263.488 259.107 265.474 255.712 271.51 255.712 C 277.546 255.712 279.312 259.107 279.312 263.514 L 279.312 267.656 L 266.044 267.656 L 266.044 270.344 C 266.044 274.178 267.367 275.81 271.643 275.81 Z " fill="rgb(51,51,51)"/><path d=" M 268.724 252.202 C 270.702 251.564 273.034 250.791 275.249 249.941 L 276.013 252.135 C 273.843 252.996 271.431 253.704 269.431 254.246 L 268.724 252.202 Z " fill="rgb(51,51,51)"/><path d=" M 55.929 215.75 L 49.705 235.043 L 62.148 235.043 L 55.929 215.75 Z  M 70.722 247.33 L 66.173 247.33 L 63.298 238.964 L 48.503 238.964 L 45.679 247.33 L 41.134 247.33 L 52.896 212.512 L 58.959 212.512 L 70.722 247.33 Z " fill="rgb(51,51,51)"/><path d=" M 75.348 247.33 L 75.348 221.869 L 79.739 221.869 L 79.739 247.33 L 75.348 247.33 Z  M 75.348 217.789 L 75.348 211.463 L 79.739 211.463 L 79.739 217.789 L 75.348 217.789 Z " fill="rgb(51,51,51)"/><path d=" M 83.844 247.33 L 92.207 234.518 L 83.998 221.869 L 88.549 221.869 L 94.611 231.227 L 100.676 221.869 L 105.223 221.869 L 96.965 234.518 L 105.38 247.33 L 100.781 247.33 L 94.611 237.865 L 88.497 247.33 L 83.844 247.33 Z " fill="rgb(51,51,51)"/><path d=" M 139.984 219.097 L 139.306 247.33 L 134.968 247.33 L 136.169 212.512 L 141.869 212.512 L 151.903 239.434 L 161.942 212.512 L 167.64 212.512 L 168.842 247.33 L 164.504 247.33 L 163.823 219.097 L 154.938 242.831 L 148.873 242.831 L 139.984 219.097 Z " fill="rgb(51,51,51)"/><path d=" M 187.85 237.028 L 181.365 237.028 C 178.648 237.028 177.653 237.865 177.653 240.427 C 177.653 243.041 178.127 244.086 181.261 244.086 C 183.459 244.086 185.915 243.251 187.85 241.997 L 187.85 237.028 Z  M 192.238 247.33 L 188.528 247.33 L 188.265 245.444 C 186.019 247.015 183.091 247.85 180.008 247.85 C 175.25 247.85 173.264 245.028 173.264 240.531 C 173.264 235.252 175.929 233.369 181.055 233.369 L 187.85 233.369 L 187.85 229.396 C 187.85 226.206 186.438 225.108 182.308 225.108 C 179.852 225.108 177.472 225.355 175.487 225.772 L 175.015 222.27 C 177.416 221.642 179.852 221.345 182.569 221.345 C 189.835 221.345 192.238 224.168 192.238 229.605 L 192.238 247.33 Z " fill="rgb(51,51,51)"/><path d=" M 210.227 225.371 C 207.819 226.52 205.051 228.299 202.96 229.763 L 202.96 247.33 L 198.568 247.33 L 198.568 221.869 L 202.388 221.869 L 202.647 225.423 C 204.53 223.959 207.143 222.392 209.654 221.345 L 210.227 225.371 Z " fill="rgb(51,51,51)"/><path d=" M 221.219 247.85 C 218.604 247.85 215.154 247.276 213.115 246.492 L 213.692 243.041 C 215.885 243.668 218.761 244.086 220.958 244.086 C 224.982 244.086 225.661 243.355 225.661 240.637 C 225.661 237.92 225.453 237.603 220.329 236.349 C 214.004 234.78 213.431 233.473 213.431 228.195 C 213.431 223.488 215.521 221.345 222.211 221.345 C 224.67 221.345 227.335 221.659 229.426 222.234 L 229.111 225.843 C 226.971 225.423 224.147 225.108 222.054 225.108 C 218.293 225.108 217.768 225.998 217.768 228.299 C 217.768 231.123 217.821 231.644 222.107 232.69 C 229.426 234.518 230.001 235.409 230.001 240.481 C 230.001 245.444 228.485 247.85 221.219 247.85 Z " fill="rgb(51,51,51)"/><path d=" M 239.086 232.637 L 250.014 232.637 L 250.014 230.545 C 250.014 226.991 248.811 225.003 244.681 225.003 C 240.55 225.003 239.086 226.991 239.086 230.545 L 239.086 232.637 Z  M 245.151 244.086 C 247.659 244.086 250.43 243.618 253.201 242.883 L 253.776 246.388 C 251.373 247.276 247.975 247.85 244.786 247.85 C 237.258 247.85 234.695 244.243 234.695 238.494 L 234.695 230.86 C 234.695 225.58 237.101 221.345 244.681 221.345 C 252.207 221.345 254.249 225.684 254.249 230.964 L 254.249 236.297 L 239.086 236.297 L 239.086 238.44 C 239.086 242.467 240.183 244.086 245.151 244.086 Z " fill="rgb(51,51,51)"/><path d=" M 259.491 247.33 L 259.491 221.869 L 263.884 221.869 L 263.884 247.33 L 259.491 247.33 Z  M 259.491 217.789 L 259.491 211.463 L 263.884 211.463 L 263.884 217.789 L 259.491 217.789 Z " fill="rgb(51,51,51)"/><path d=" M 271.739 247.33 L 271.739 211.463 L 276.126 210.837 L 276.126 247.33 L 271.739 247.33 Z " fill="rgb(51,51,51)"/><path d=" M 283.983 247.33 L 283.983 211.463 L 288.376 210.837 L 288.376 247.33 L 283.983 247.33 Z " fill="rgb(51,51,51)"/><path d=" M 297.569 232.637 L 308.496 232.637 L 308.496 230.545 C 308.496 226.991 307.293 225.003 303.164 225.003 C 299.032 225.003 297.569 226.991 297.569 230.545 L 297.569 232.637 Z  M 303.635 244.086 C 306.142 244.086 308.912 243.618 311.684 242.883 L 312.257 246.388 C 309.854 247.276 306.455 247.85 303.266 247.85 C 295.738 247.85 293.179 244.243 293.179 238.494 L 293.179 230.86 C 293.179 225.58 295.582 221.345 303.164 221.345 C 310.691 221.345 312.73 225.684 312.73 230.964 L 312.73 236.297 L 297.569 236.297 L 297.569 238.44 C 297.569 242.467 298.666 244.086 303.635 244.086 Z " fill="rgb(51,51,51)"/><path d=" M 129.334 239.253 L 122.439 235.272 C 122.439 235.272 122.323 235.205 122.122 235.089 C 122.227 235.028 122.333 234.967 122.439 234.905 L 129.334 230.925 C 129.627 230.744 129.728 230.47 129.789 230.233 C 129.847 229.987 129.863 229.743 129.863 229.532 C 129.863 229.245 129.835 229.027 129.833 229.016 L 129.812 228.843 L 129.674 228.74 C 129.632 228.732 128.951 228.13 128.194 228.095 C 128.059 228.095 127.907 228.122 127.764 228.205 L 120.87 232.184 C 120.763 232.246 120.658 232.307 120.552 232.368 C 120.552 232.246 120.552 232.124 120.552 232.001 L 120.552 217.541 C 120.507 216.962 120.089 216.721 119.78 216.498 C 119.452 216.29 119.147 216.16 119.134 216.156 L 118.973 216.087 L 118.813 216.156 C 118.801 216.162 118.497 216.29 118.175 216.498 C 117.871 216.719 117.452 216.965 117.411 217.541 L 117.411 232.001 C 117.411 232.125 117.411 232.247 117.411 232.369 C 117.306 232.308 117.2 232.247 117.093 232.186 L 110.2 228.205 C 110.057 228.122 109.904 228.096 109.768 228.096 C 109.013 228.13 108.331 228.732 108.29 228.739 L 108.152 228.843 L 108.131 229.015 C 108.129 229.027 108.101 229.245 108.101 229.531 C 108.103 229.741 108.114 229.989 108.174 230.233 C 108.235 230.47 108.335 230.744 108.63 230.925 L 115.523 234.905 C 115.63 234.967 115.735 235.028 115.841 235.089 C 115.64 235.205 115.523 235.272 115.523 235.272 L 108.628 239.253 C 108.335 239.431 108.235 239.706 108.174 239.945 C 108.115 240.189 108.101 240.434 108.101 240.645 C 108.101 240.932 108.129 241.15 108.131 241.163 L 108.152 241.333 L 108.29 241.439 C 108.331 241.445 109.013 242.046 109.768 242.08 L 109.774 242.08 C 109.907 242.08 110.057 242.054 110.2 241.973 L 117.093 237.993 L 117.094 237.993 C 117.094 237.993 117.21 237.926 117.411 237.81 C 117.411 238.042 117.411 238.176 117.411 238.176 L 117.411 246.137 C 117.455 246.716 117.875 246.958 118.184 247.18 C 118.509 247.391 118.816 247.517 118.829 247.523 L 118.988 247.591 L 119.148 247.523 C 119.16 247.517 119.464 247.391 119.788 247.18 C 120.093 246.958 120.509 246.713 120.551 246.137 L 120.552 238.176 L 120.551 238.176 C 120.551 238.176 120.551 238.041 120.551 237.808 C 120.753 237.924 120.87 237.992 120.87 237.992 L 127.764 241.973 C 127.908 242.055 128.06 242.081 128.195 242.081 C 128.951 242.046 129.632 241.445 129.674 241.438 L 129.812 241.333 L 129.832 241.161 C 129.835 241.15 129.863 240.932 129.863 240.645 C 129.861 240.434 129.849 240.189 129.789 239.945 C 129.728 239.706 129.629 239.432 129.334 239.253 Z " fill="rgb(51,51,51)"/><path d=" M 0 253.55 C 0 247.943 0.482 242.693 1.451 237.808 C 2.417 232.924 3.881 228.112 5.852 223.375 C 7.82 218.64 10.255 213.896 13.152 209.138 C 14.897 206.241 16.444 204.22 17.554 202.87 C 18.699 201.475 19.913 200 21.585 200 C 23.407 200 24.316 200.501 24.316 201.504 C 24.316 201.841 23.462 203.853 21.752 207.551 C 20.043 211.247 18.437 215.121 16.933 219.167 C 15.427 223.219 14.034 228.272 12.758 234.326 C 11.471 240.381 10.833 246.791 10.833 253.55 C 10.833 260.237 11.462 266.571 12.727 272.555 C 13.989 278.533 15.778 283.718 17.395 288.1 C 19.012 292.483 20.276 296.413 21.891 299.886 C 23.508 303.359 24.316 305.244 24.316 305.54 C 24.316 306.544 23.407 307.045 21.585 307.045 C 19.877 307.045 18.706 305.338 17.554 304.038 C 16.402 302.735 14.936 300.658 13.152 297.795 C 10.216 292.893 7.792 288.166 5.879 283.615 C 3.965 279.063 2.511 274.336 1.507 269.43 C 0.501 264.528 0 259.234 0 253.55 Z " fill="rgb(51,51,51)"/><path d=" M 41.134 301.939 L 41.548 300.477 C 42.901 300.892 44.232 301.154 45.475 301.154 C 47.81 301.154 48.42 300.521 48.726 298.776 C 48.813 298.296 48.878 297.925 48.878 297.64 C 48.878 296.725 48.311 296.485 46.195 295.939 C 43.664 295.285 42.901 294.478 42.901 292.95 C 42.901 292.514 42.966 292.034 43.053 291.488 C 43.577 288.542 44.755 287.779 48.224 287.779 C 49.315 287.779 50.907 287.976 52.042 288.281 L 51.715 289.83 C 50.493 289.547 49.009 289.394 48.115 289.394 C 45.65 289.394 45.192 289.787 44.886 291.532 C 44.799 292.034 44.733 292.47 44.733 292.731 C 44.733 293.648 45.279 293.91 47.286 294.456 C 49.969 295.176 50.733 295.874 50.733 297.314 C 50.733 297.685 50.667 298.23 50.559 298.797 C 50.1 301.437 49.25 302.746 45.3 302.746 C 44.057 302.746 42.355 302.44 41.134 301.939 Z " fill="rgb(51,51,51)"/><path d=" M 65.041 295.59 C 65.084 295.35 65.106 295.132 65.106 294.958 C 65.106 293.801 64.43 293.233 62.925 293.233 C 61.179 293.233 60.263 294.063 59.98 295.721 L 59.434 298.797 C 59.194 300.258 59.543 301.197 61.529 301.197 C 63.361 301.197 64.19 300.411 64.474 298.819 L 65.041 295.59 Z  M 57.645 298.71 L 58.191 295.612 C 58.648 293.016 60.132 291.685 63.186 291.685 C 65.63 291.685 66.895 293.037 66.895 294.848 C 66.895 295.001 66.895 295.241 66.83 295.59 L 66.241 298.928 C 65.827 301.328 64.561 302.746 61.267 302.746 C 58.234 302.746 57.231 301.001 57.645 298.71 Z " fill="rgb(51,51,51)"/><path d=" M 80.571 293.605 C 79.829 293.365 79 293.233 78.302 293.233 C 76.579 293.233 75.924 293.822 75.553 295.829 L 74.855 299.801 C 74.833 299.953 74.812 300.106 74.812 300.258 C 74.812 300.935 75.161 301.197 76.077 301.197 C 77.037 301.197 78.302 300.892 79.371 300.477 L 79.611 301.939 C 78.542 302.419 77.255 302.746 75.88 302.746 C 73.873 302.746 73.023 301.808 73.023 300.368 C 73.023 300.215 73.044 299.909 73.11 299.539 L 73.808 295.59 C 74.331 292.645 75.575 291.685 78.389 291.685 C 79.175 291.685 80.2 291.859 80.964 292.165 L 80.571 293.605 Z " fill="rgb(51,51,51)"/><path d=" M 89.009 287.561 L 90.842 287.3 L 90.362 290.026 L 88.53 290.267 L 89.009 287.561 Z  M 88.224 292.034 L 90.057 291.771 L 88.159 302.528 L 86.37 302.528 L 88.224 292.034 Z " fill="rgb(51,51,51)"/><path d=" M 103.621 293.496 C 103.054 293.343 102.312 293.233 101.57 293.233 C 99.934 293.233 99.127 293.736 98.756 295.829 L 98.08 299.67 C 98.036 299.932 97.993 300.215 97.993 300.411 C 97.993 300.914 98.21 301.197 98.865 301.197 C 100.196 301.197 101.375 300.455 102.595 299.343 L 103.621 293.496 Z  M 103.818 302.528 L 102.334 302.528 L 102.4 301.241 C 101.221 302.288 99.782 302.746 98.429 302.746 C 96.793 302.746 96.182 301.852 96.182 300.63 C 96.182 300.368 96.225 300.084 96.269 299.801 L 97.01 295.59 C 97.469 293.016 98.429 291.685 101.789 291.685 C 103.097 291.685 104.559 292.011 105.606 292.405 L 103.818 302.528 Z " fill="rgb(51,51,51)"/><path d=" M 114.416 287.561 L 116.249 287.3 L 113.565 302.528 L 111.776 302.528 L 114.416 287.561 Z " fill="rgb(51,51,51)"/><path d=" M 128.439 294.281 C 128.439 293.582 127.916 293.147 126.956 293.147 C 125.297 293.147 124.534 293.757 124.229 295.481 L 123.967 296.943 C 124.556 296.768 124.905 296.659 125.93 296.354 C 127.697 295.829 128.439 295.153 128.439 294.281 Z  M 123.487 299.692 C 123.443 299.932 123.443 300.084 123.443 300.172 C 123.443 300.848 123.77 301.241 124.905 301.241 C 126.018 301.241 127.348 300.826 128.788 300.128 L 129.181 301.459 C 127.828 302.201 126.432 302.746 124.665 302.746 C 122.527 302.746 121.676 301.743 121.676 300.281 C 121.676 300.019 121.698 299.67 121.763 299.299 L 122.396 295.721 C 122.876 293.037 124.076 291.685 127.086 291.685 C 128.854 291.685 130.119 292.514 130.119 294.084 C 130.119 295.874 129.29 296.768 126.301 297.772 C 125.014 298.208 124.599 298.317 123.683 298.601 L 123.487 299.692 Z " fill="rgb(51,51,51)"/><path d=" M 150.077 294.346 C 150.098 294.216 150.12 294.063 150.12 293.976 C 150.12 293.539 149.902 293.387 149.378 293.387 C 148.309 293.387 146.542 294.216 145.386 294.979 L 144.055 302.528 L 142.266 302.528 L 143.706 294.346 C 143.728 294.216 143.75 294.063 143.75 293.976 C 143.75 293.539 143.532 293.387 143.008 293.387 C 141.939 293.387 140.303 294.172 138.994 294.979 L 137.663 302.528 L 135.874 302.528 L 137.729 292.034 L 139.299 291.771 L 139.168 293.277 C 140.215 292.536 142.397 291.685 143.663 291.685 C 144.863 291.685 145.451 292.296 145.539 293.277 C 146.695 292.47 148.767 291.685 150.033 291.685 C 151.364 291.685 151.931 292.405 151.931 293.561 C 151.931 293.801 151.909 294.128 151.844 294.478 L 150.425 302.528 L 148.636 302.528 L 150.077 294.346 Z " fill="rgb(51,51,51)"/><path d=" M 165.193 294.281 C 165.193 293.582 164.67 293.147 163.71 293.147 C 162.052 293.147 161.289 293.757 160.983 295.481 L 160.721 296.943 C 161.31 296.768 161.659 296.659 162.685 296.354 C 164.452 295.829 165.193 295.153 165.193 294.281 Z  M 160.241 299.692 C 160.198 299.932 160.198 300.084 160.198 300.172 C 160.198 300.848 160.526 301.241 161.659 301.241 C 162.772 301.241 164.103 300.826 165.543 300.128 L 165.935 301.459 C 164.583 302.201 163.186 302.746 161.419 302.746 C 159.281 302.746 158.431 301.743 158.431 300.281 C 158.431 300.019 158.453 299.67 158.518 299.299 L 159.15 295.721 C 159.63 293.037 160.831 291.685 163.841 291.685 C 165.608 291.685 166.874 292.514 166.874 294.084 C 166.874 295.874 166.044 296.768 163.056 297.772 C 161.768 298.208 161.354 298.317 160.438 298.601 L 160.241 299.692 Z " fill="rgb(51,51,51)"/><path d=" M 182.315 293.561 C 182.315 293.801 182.294 294.128 182.228 294.478 L 180.81 302.528 L 179.021 302.528 L 180.461 294.346 C 180.483 294.216 180.504 294.063 180.504 293.976 C 180.504 293.539 180.287 293.387 179.763 293.387 C 178.694 293.387 177.058 294.172 175.748 294.979 L 174.417 302.528 L 172.629 302.528 L 174.483 292.034 L 176.054 291.771 L 175.923 293.277 C 176.97 292.536 179.152 291.685 180.417 291.685 C 181.748 291.685 182.315 292.405 182.315 293.561 Z " fill="rgb(51,51,51)"/><path d=" M 189.577 301.044 C 189.577 300.957 189.577 300.804 189.62 300.564 L 190.886 293.387 L 189.009 293.387 L 189.271 291.903 L 191.148 291.903 L 191.606 289.285 L 193.439 289.045 L 192.937 291.903 L 195.86 291.903 L 195.555 293.387 L 192.675 293.387 L 191.409 300.543 C 191.387 300.674 191.387 300.717 191.387 300.783 C 191.387 301.088 191.562 301.241 191.998 301.241 C 192.588 301.241 193.22 301.109 193.962 300.783 L 194.377 302.026 C 193.46 302.485 192.544 302.746 191.496 302.746 C 190.188 302.746 189.577 302.005 189.577 301.044 Z " fill="rgb(51,51,51)"/><path d=" M 219.159 294.281 C 219.159 293.582 218.636 293.147 217.676 293.147 C 216.018 293.147 215.255 293.757 214.949 295.481 L 214.687 296.943 C 215.276 296.768 215.626 296.659 216.651 296.354 C 218.418 295.829 219.159 295.153 219.159 294.281 Z  M 214.207 299.692 C 214.164 299.932 214.164 300.084 214.164 300.172 C 214.164 300.848 214.491 301.241 215.626 301.241 C 216.737 301.241 218.069 300.826 219.509 300.128 L 219.901 301.459 C 218.549 302.201 217.153 302.746 215.386 302.746 C 213.247 302.746 212.397 301.743 212.397 300.281 C 212.397 300.019 212.419 299.67 212.483 299.299 L 213.116 295.721 C 213.596 293.037 214.796 291.685 217.807 291.685 C 219.575 291.685 220.839 292.514 220.839 294.084 C 220.839 295.874 220.01 296.768 217.022 297.772 C 215.735 298.208 215.32 298.317 214.404 298.601 L 214.207 299.692 Z " fill="rgb(51,51,51)"/><path d=" M 236.282 293.561 C 236.282 293.801 236.26 294.128 236.194 294.478 L 234.776 302.528 L 232.988 302.528 L 234.427 294.346 C 234.449 294.216 234.471 294.063 234.471 293.976 C 234.471 293.539 234.252 293.387 233.729 293.387 C 232.661 293.387 231.024 294.172 229.715 294.979 L 228.384 302.528 L 226.595 302.528 L 228.45 292.034 L 230.02 291.771 L 229.889 293.277 C 230.937 292.536 233.118 291.685 234.383 291.685 C 235.714 291.685 236.282 292.405 236.282 293.561 Z " fill="rgb(51,51,51)"/><path d=" M 250.219 293.517 C 249.652 293.365 248.822 293.233 248.081 293.233 C 246.314 293.233 245.637 293.779 245.266 295.874 L 244.655 299.278 C 244.612 299.539 244.568 299.779 244.568 299.975 C 244.568 300.477 244.787 300.76 245.441 300.76 C 246.575 300.76 248.102 299.997 249.237 299.038 L 250.219 293.517 Z  M 250.132 304.142 C 249.739 306.368 248.844 307.045 246.401 307.045 C 245.004 307.045 243.128 306.608 242.038 306.149 L 242.408 304.797 C 243.87 305.321 245.223 305.561 246.466 305.561 C 247.819 305.561 248.168 305.146 248.364 304.012 L 248.91 300.935 C 247.731 301.874 246.358 302.31 245.004 302.31 C 243.368 302.31 242.757 301.415 242.757 300.193 C 242.757 299.932 242.801 299.648 242.845 299.365 L 243.521 295.634 C 243.979 293.059 245.026 291.685 248.386 291.685 C 249.412 291.685 251.048 291.968 252.182 292.448 L 250.132 304.142 Z " fill="rgb(51,51,51)"/><path d=" M 265.88 293.496 C 265.312 293.343 264.57 293.233 263.829 293.233 C 262.193 293.233 261.385 293.736 261.015 295.829 L 260.338 299.67 C 260.294 299.932 260.251 300.215 260.251 300.411 C 260.251 300.914 260.469 301.197 261.123 301.197 C 262.454 301.197 263.632 300.455 264.854 299.343 L 265.88 293.496 Z  M 266.076 302.528 L 264.592 302.528 L 264.658 301.241 C 263.48 302.288 262.04 302.746 260.687 302.746 C 259.051 302.746 258.44 301.852 258.44 300.63 C 258.44 300.368 258.484 300.084 258.528 299.801 L 259.27 295.59 C 259.727 293.016 260.687 291.685 264.047 291.685 C 265.356 291.685 266.817 292.011 267.865 292.405 L 266.076 302.528 Z " fill="rgb(51,51,51)"/><path d=" M 281.627 293.517 C 281.06 293.365 280.231 293.233 279.49 293.233 C 277.722 293.233 277.046 293.779 276.675 295.874 L 276.064 299.278 C 276.021 299.539 275.977 299.779 275.977 299.975 C 275.977 300.477 276.196 300.76 276.849 300.76 C 277.984 300.76 279.511 299.997 280.646 299.038 L 281.627 293.517 Z  M 281.54 304.142 C 281.147 306.368 280.253 307.045 277.809 307.045 C 276.413 307.045 274.537 306.608 273.446 306.149 L 273.817 304.797 C 275.279 305.321 276.632 305.561 277.875 305.561 C 279.228 305.561 279.576 305.146 279.773 304.012 L 280.319 300.935 C 279.14 301.874 277.766 302.31 276.413 302.31 C 274.777 302.31 274.166 301.415 274.166 300.193 C 274.166 299.932 274.21 299.648 274.253 299.365 L 274.93 295.634 C 275.388 293.059 276.435 291.685 279.795 291.685 C 280.82 291.685 282.457 291.968 283.591 292.448 L 281.54 304.142 Z " fill="rgb(51,51,51)"/><path d=" M 294.125 289.394 C 295.172 288.87 296.241 288.259 297.354 287.474 L 298.03 288.674 C 296.94 289.438 296.154 289.873 294.757 290.529 L 294.125 289.394 Z  M 296.699 294.281 C 296.699 293.582 296.176 293.147 295.216 293.147 C 293.558 293.147 292.794 293.757 292.489 295.481 L 292.227 296.943 C 292.816 296.768 293.165 296.659 294.19 296.354 C 295.958 295.829 296.699 295.153 296.699 294.281 Z  M 291.747 299.692 C 291.704 299.932 291.704 300.084 291.704 300.172 C 291.704 300.848 292.03 301.241 293.165 301.241 C 294.277 301.241 295.608 300.826 297.049 300.128 L 297.441 301.459 C 296.089 302.201 294.692 302.746 292.926 302.746 C 290.787 302.746 289.936 301.743 289.936 300.281 C 289.936 300.019 289.958 299.67 290.023 299.299 L 290.656 295.721 C 291.136 293.037 292.336 291.685 295.347 291.685 C 297.114 291.685 298.379 292.514 298.379 294.084 C 298.379 295.874 297.55 296.768 294.562 297.772 C 293.275 298.208 292.86 298.317 291.943 298.601 L 291.747 299.692 Z " fill="rgb(51,51,51)"/><path d=" M 311.05 294.281 C 311.05 293.582 310.526 293.147 309.566 293.147 C 307.908 293.147 307.145 293.757 306.839 295.481 L 306.577 296.943 C 307.165 296.768 307.515 296.659 308.541 296.354 C 310.308 295.829 311.05 295.153 311.05 294.281 Z  M 306.097 299.692 C 306.054 299.932 306.054 300.084 306.054 300.172 C 306.054 300.848 306.38 301.241 307.515 301.241 C 308.627 301.241 309.959 300.826 311.399 300.128 L 311.791 301.459 C 310.439 302.201 309.043 302.746 307.275 302.746 C 305.137 302.746 304.287 301.743 304.287 300.281 C 304.287 300.019 304.309 299.67 304.373 299.299 L 305.006 295.721 C 305.486 293.037 306.686 291.685 309.697 291.685 C 311.464 291.685 312.73 292.514 312.73 294.084 C 312.73 295.874 311.9 296.768 308.912 297.772 C 307.624 298.208 307.21 298.317 306.294 298.601 L 306.097 299.692 Z " fill="rgb(51,51,51)"/></g></g></g><g><g><path d=" M 379.067 43.372 C 379.067 41.845 378.118 41.063 376.469 41.063 L 371.77 41.063 L 371.77 47.453 L 375.604 47.453 C 377.541 47.453 379.067 47.041 379.067 45.062 L 379.067 43.372 Z  M 378.077 31.91 C 378.077 30.715 377.335 29.97 375.604 29.97 L 371.77 29.97 L 371.77 36.238 L 375.604 36.238 C 377.252 36.238 378.077 35.415 378.077 34.301 L 378.077 31.91 Z  M 377.294 52.441 L 365.586 52.441 L 365.586 24.983 L 376.429 24.983 C 382.159 24.983 384.262 27.292 384.262 31.001 L 384.262 33.805 C 384.262 35.787 383.397 37.188 381.21 38.135 C 383.478 38.671 385.252 40.65 385.252 43.206 L 385.252 45.887 C 385.252 49.764 382.777 52.441 377.294 52.441 Z " fill="rgb(55,53,53)"/><path d=" M 389.171 32.362 L 395.107 32.362 L 395.107 52.442 L 389.171 52.442 L 389.171 32.362 Z  M 389.171 23.542 L 395.107 23.542 L 395.107 29.85 L 389.171 29.85 L 389.171 23.542 Z " fill="rgb(55,53,53)"/><path d=" M 406.404 47.617 C 407.271 47.701 408.013 47.701 408.837 47.701 C 411.806 47.701 412.341 46.34 412.341 44.443 L 412.341 39.249 C 412.341 37.929 411.765 37.104 410.199 37.104 C 408.92 37.104 407.519 37.64 406.404 38.219 L 406.404 47.617 Z  M 408.631 52.854 C 406.488 52.854 403.231 52.647 400.468 52.196 L 400.468 24.158 L 406.404 23.333 L 406.404 33.064 C 408.013 32.447 409.908 31.952 412.094 31.952 C 416.546 31.952 418.279 34.715 418.279 39.206 L 418.279 44.403 C 418.279 49.184 416.919 52.854 408.631 52.854 Z " fill="rgb(55,53,53)"/><path d=" M 422.61 52.442 L 422.61 24.158 L 428.547 23.333 L 428.547 52.442 L 422.61 52.442 Z " fill="rgb(55,53,53)"/><path d=" M 433.909 32.362 L 439.845 32.362 L 439.845 52.442 L 433.909 52.442 L 433.909 32.362 Z  M 433.909 23.542 L 439.845 23.542 L 439.845 29.85 L 433.909 29.85 L 433.909 23.542 Z " fill="rgb(55,53,53)"/><path d=" M 456.379 44.897 L 456.379 39.908 C 456.379 38.01 455.39 36.939 453.246 36.939 C 451.101 36.939 450.111 38.01 450.111 39.908 L 450.111 44.897 C 450.111 46.795 451.101 47.867 453.246 47.867 C 455.39 47.867 456.379 46.795 456.379 44.897 Z  M 444.174 44.732 L 444.174 40.072 C 444.174 35.95 446.113 31.952 453.246 31.952 C 460.377 31.952 462.315 35.95 462.315 40.072 L 462.315 44.732 C 462.315 48.854 460.377 52.854 453.246 52.854 C 446.113 52.854 444.174 48.854 444.174 44.732 Z " fill="rgb(55,53,53)"/><path d=" M 477.742 52.112 C 476.506 52.566 475.022 52.854 473.538 52.854 C 470.157 52.854 468.549 51.618 468.549 48.277 L 468.549 35.25 L 465.003 35.25 L 465.003 32.363 L 468.549 32.363 L 468.549 27.417 L 472.011 26.921 L 472.011 32.363 L 477.702 32.363 L 477.412 35.25 L 472.011 35.25 L 472.011 47.701 C 472.011 49.184 472.218 49.928 474.073 49.928 C 475.022 49.928 476.011 49.764 477.289 49.433 L 477.742 52.112 Z " fill="rgb(55,53,53)"/><path d=" M 494.607 52.442 L 494.607 37.104 C 494.607 35.786 493.947 35.25 492.668 35.25 C 491.184 35.25 488.093 36.198 485.949 37.31 L 485.949 52.442 L 482.485 52.442 L 482.485 24.158 L 485.949 23.663 L 485.949 34.054 C 488.175 32.983 491.351 31.952 493.699 31.952 C 496.915 31.952 498.07 33.971 498.07 37.064 L 498.07 52.442 L 494.607 52.442 Z " fill="rgb(55,53,53)"/><path d=" M 506.895 40.857 L 515.512 40.857 L 515.512 39.206 C 515.512 36.402 514.564 34.836 511.307 34.836 C 508.05 34.836 506.895 36.402 506.895 39.206 L 506.895 40.857 Z  M 512.502 29.931 C 510.4 28.818 508.668 27.746 506.772 26.345 L 508.255 24.034 C 509.699 25.229 511.842 26.592 513.904 27.787 L 512.502 29.931 Z  M 511.677 49.886 C 513.657 49.886 515.842 49.514 518.027 48.938 L 518.48 51.7 C 516.585 52.402 513.904 52.854 511.389 52.854 C 505.452 52.854 503.431 50.009 503.431 45.474 L 503.431 39.456 C 503.431 35.291 505.329 31.952 511.307 31.952 C 517.243 31.952 518.852 35.371 518.852 39.537 L 518.852 43.742 L 506.895 43.742 L 506.895 45.433 C 506.895 48.607 507.761 49.886 511.677 49.886 Z " fill="rgb(55,53,53)"/><path d=" M 535.633 35.291 C 534.273 35.085 532.912 35.001 531.676 35.001 C 527.594 35.001 526.852 36.652 526.852 39.33 L 526.852 46.71 C 526.852 48.772 527.76 49.804 530.11 49.804 C 531.882 49.804 534.273 48.937 535.633 48.277 L 535.633 35.291 Z  M 523.389 39.456 C 523.389 34.878 525.037 31.952 531.923 31.952 C 533.779 31.952 536.789 32.198 539.098 32.733 L 539.098 60.565 L 535.633 61.058 L 535.633 51.451 C 534.232 52.195 531.84 52.854 529.283 52.854 C 525.12 52.854 523.389 50.421 523.389 46.587 L 523.389 39.456 Z " fill="rgb(55,53,53)"/><path d=" M 548.953 32.363 L 548.953 47.701 C 548.953 49.019 549.613 49.556 550.892 49.556 C 552.376 49.556 555.468 48.649 557.612 47.536 L 557.612 32.363 L 561.076 32.363 L 561.076 52.442 L 558.272 52.442 L 557.941 50.711 C 555.715 51.781 552.252 52.854 549.861 52.854 C 546.644 52.854 545.491 50.834 545.491 47.742 L 545.491 32.363 L 548.953 32.363 Z " fill="rgb(55,53,53)"/><path d=" M 570.107 40.857 L 578.723 40.857 L 578.723 39.206 C 578.723 36.402 577.775 34.836 574.518 34.836 C 571.261 34.836 570.107 36.402 570.107 39.206 L 570.107 40.857 Z  M 574.888 49.886 C 576.868 49.886 579.054 49.514 581.238 48.938 L 581.691 51.7 C 579.796 52.402 577.115 52.854 574.6 52.854 C 568.664 52.854 566.644 50.009 566.644 45.474 L 566.644 39.456 C 566.644 35.291 568.54 31.952 574.518 31.952 C 580.455 31.952 582.062 35.371 582.062 39.537 L 582.062 43.742 L 570.107 43.742 L 570.107 45.433 C 570.107 48.607 570.971 49.886 574.888 49.886 Z " fill="rgb(55,53,53)"/><path d=" M 593.073 52.854 C 591.011 52.854 588.291 52.402 586.681 51.781 L 587.136 49.061 C 588.867 49.556 591.135 49.885 592.867 49.885 C 596.042 49.885 596.578 49.308 596.578 47.166 C 596.578 45.022 596.413 44.773 592.372 43.783 C 587.382 42.546 586.929 41.516 586.929 37.353 C 586.929 33.64 588.579 31.952 593.856 31.952 C 595.795 31.952 597.897 32.197 599.546 32.653 L 599.3 35.497 C 597.609 35.167 595.382 34.921 593.733 34.921 C 590.765 34.921 590.352 35.622 590.352 37.434 C 590.352 39.661 590.393 40.072 593.774 40.898 C 599.546 42.34 600 43.04 600 47.041 C 600 50.957 598.804 52.854 593.073 52.854 Z " fill="rgb(55,53,53)"/><path d=" M 368.368 66.635 L 368.368 79.417 C 368.368 80.516 368.918 80.963 369.982 80.963 C 371.22 80.963 373.797 80.207 375.584 79.279 L 375.584 66.635 L 378.469 66.635 L 378.469 83.368 L 376.134 83.368 L 375.859 81.925 C 374.003 82.817 371.117 83.711 369.125 83.711 C 366.443 83.711 365.481 82.028 365.481 79.451 L 365.481 66.635 L 368.368 66.635 Z " fill="rgb(55,53,53)"/><path d=" M 394.07 83.367 L 394.07 70.586 C 394.07 69.486 393.521 69.039 392.456 69.039 C 391.218 69.039 388.641 69.795 386.854 70.723 L 386.854 83.367 L 383.969 83.367 L 383.969 66.635 L 386.304 66.635 L 386.579 68.077 C 388.435 67.183 391.321 66.29 393.314 66.29 C 395.995 66.29 396.956 67.973 396.956 70.551 L 396.956 83.367 L 394.07 83.367 Z " fill="rgb(55,53,53)"/><path d=" M 402.283 66.635 L 405.169 66.635 L 405.169 83.368 L 402.283 83.368 L 402.283 66.635 Z  M 402.283 59.797 L 405.169 59.797 L 405.169 63.953 L 402.283 63.953 L 402.283 59.797 Z " fill="rgb(55,53,53)"/><path d=" M 420.253 66.635 L 423.105 66.635 L 417.573 83.368 L 413.725 83.368 L 408.193 66.635 L 411.045 66.635 L 415.648 80.997 L 420.253 66.635 Z " fill="rgb(55,53,53)"/><path d=" M 428.157 73.712 L 435.337 73.712 L 435.337 72.338 C 435.337 70.001 434.548 68.696 431.833 68.696 C 429.119 68.696 428.157 70.001 428.157 72.338 L 428.157 73.712 Z  M 432.143 81.238 C 433.792 81.238 435.612 80.929 437.434 80.448 L 437.812 82.75 C 436.233 83.333 433.998 83.712 431.902 83.712 C 426.955 83.712 425.269 81.34 425.269 77.56 L 425.269 72.544 C 425.269 69.074 426.851 66.291 431.833 66.291 C 436.781 66.291 438.121 69.143 438.121 72.613 L 438.121 76.118 L 428.157 76.118 L 428.157 77.526 C 428.157 80.173 428.879 81.238 432.143 81.238 Z " fill="rgb(55,53,53)"/><path d=" M 450.321 68.936 C 448.739 69.692 446.918 70.861 445.544 71.823 L 445.544 83.367 L 442.657 83.367 L 442.657 66.635 L 445.164 66.635 L 445.337 68.97 C 446.574 68.008 448.294 66.977 449.941 66.29 L 450.321 68.936 Z " fill="rgb(55,53,53)"/><path d=" M 457.881 83.711 C 456.162 83.711 453.893 83.334 452.553 82.817 L 452.932 80.549 C 454.375 80.963 456.265 81.238 457.707 81.238 C 460.354 81.238 460.8 80.756 460.8 78.971 C 460.8 77.183 460.664 76.976 457.296 76.152 C 453.139 75.121 452.759 74.261 452.759 70.791 C 452.759 67.699 454.134 66.29 458.532 66.29 C 460.148 66.29 461.901 66.497 463.274 66.875 L 463.068 69.245 C 461.66 68.971 459.804 68.764 458.429 68.764 C 455.956 68.764 455.613 69.349 455.613 70.862 C 455.613 72.716 455.646 73.059 458.464 73.747 C 463.274 74.95 463.653 75.533 463.653 78.866 C 463.653 82.13 462.657 83.711 457.881 83.711 Z " fill="rgb(55,53,53)"/><path d=" M 468.325 66.635 L 471.213 66.635 L 471.213 83.368 L 468.325 83.368 L 468.325 66.635 Z  M 468.325 59.797 L 471.213 59.797 L 471.213 63.953 L 468.325 63.953 L 468.325 59.797 Z " fill="rgb(55,53,53)"/><path d=" M 485.437 83.092 C 484.406 83.47 483.169 83.711 481.932 83.711 C 479.115 83.711 477.776 82.68 477.776 79.897 L 477.776 69.039 L 474.819 69.039 L 474.819 66.635 L 477.776 66.635 L 477.776 62.51 L 480.66 62.099 L 480.66 66.635 L 485.403 66.635 L 485.162 69.039 L 480.66 69.039 L 480.66 79.417 C 480.66 80.653 480.833 81.271 482.379 81.271 C 483.169 81.271 483.994 81.135 485.058 80.86 L 485.437 83.092 Z " fill="rgb(55,53,53)"/><path d=" M 498.357 76.599 L 494.096 76.599 C 492.309 76.599 491.656 77.149 491.656 78.831 C 491.656 80.55 491.966 81.238 494.027 81.238 C 495.47 81.238 497.085 80.687 498.357 79.862 L 498.357 76.599 Z  M 501.244 83.368 L 498.804 83.368 L 498.632 82.13 C 497.154 83.162 495.229 83.711 493.203 83.711 C 490.077 83.711 488.771 81.855 488.771 78.9 C 488.771 75.432 490.522 74.194 493.89 74.194 L 498.357 74.194 L 498.357 71.583 C 498.357 69.486 497.429 68.764 494.716 68.764 C 493.1 68.764 491.004 69.039 489.698 69.314 L 489.388 67.011 C 490.97 66.6 493.1 66.29 494.886 66.29 C 499.663 66.29 501.244 68.146 501.244 71.72 L 501.244 83.368 Z " fill="rgb(55,53,53)"/><path d=" M 506.328 66.635 L 509.215 66.635 L 509.215 83.368 L 506.328 83.368 L 506.328 66.635 Z  M 506.328 59.797 L 509.215 59.797 L 509.215 63.953 L 506.328 63.953 L 506.328 59.797 Z " fill="rgb(55,53,53)"/><path d=" M 522.376 68.936 C 520.793 69.692 518.973 70.861 517.599 71.823 L 517.599 83.367 L 514.714 83.367 L 514.714 66.635 L 517.221 66.635 L 517.393 68.97 C 518.63 68.008 520.349 66.977 521.998 66.29 L 522.376 68.936 Z " fill="rgb(55,53,53)"/><path d=" M 527.392 73.712 L 534.574 73.712 L 534.574 72.338 C 534.574 70.001 533.783 68.696 531.07 68.696 C 528.354 68.696 527.392 70.001 527.392 72.338 L 527.392 73.712 Z  M 531.378 81.238 C 533.028 81.238 534.848 80.929 536.669 80.448 L 537.048 82.75 C 535.468 83.333 533.233 83.712 531.138 83.712 C 526.189 83.712 524.506 81.34 524.506 77.56 L 524.506 72.544 C 524.506 69.074 526.085 66.291 531.07 66.291 C 536.018 66.291 537.358 69.143 537.358 72.613 L 537.358 76.118 L 527.392 76.118 L 527.392 77.526 C 527.392 80.173 528.113 81.238 531.378 81.238 Z " fill="rgb(55,53,53)"/><path d=" M 546.532 83.711 C 544.813 83.711 542.546 83.334 541.204 82.817 L 541.584 80.549 C 543.026 80.963 544.916 81.238 546.36 81.238 C 549.006 81.238 549.453 80.756 549.453 78.971 C 549.453 77.183 549.314 76.976 545.947 76.152 C 541.791 75.121 541.411 74.261 541.411 70.791 C 541.411 67.699 542.786 66.29 547.183 66.29 C 548.798 66.29 550.552 66.497 551.927 66.875 L 551.719 69.245 C 550.311 68.971 548.457 68.764 547.081 68.764 C 544.608 68.764 544.263 69.349 544.263 70.862 C 544.263 72.716 544.299 73.059 547.115 73.747 C 551.927 74.95 552.304 75.533 552.304 78.866 C 552.304 82.13 551.308 83.711 546.532 83.711 Z " fill="rgb(55,53,53)"/><line x1="338.72" y1="0" x2="338.72" y2="107.045" vector-effect="non-scaling-stroke" stroke-width="0.856" stroke="rgb(0,125,195)" stroke-linejoin="miter" stroke-linecap="square" stroke-miterlimit="3"/></g><g><clipPath id="_clipPath_Lxz7452PuPULPKUEELjb0PxbxEVhcck1"><path d=" M 0 0 L 0 107.045 L 312.73 107.045 L 312.73 0 L 0 0 Z " fill="rgb(51,51,51)"/></clipPath><g clip-path="url(#_clipPath_Lxz7452PuPULPKUEELjb0PxbxEVhcck1)"><path d=" M 110.275 56.152 L 110.275 73.519 C 110.275 75.105 111.113 75.679 112.612 75.679 C 114.373 75.679 118.165 74.621 120.855 73.211 L 120.855 56.152 L 123.41 56.152 L 123.41 77.618 L 121.164 77.618 L 120.986 75.679 C 118.695 76.779 114.858 78.058 112.26 78.058 C 108.909 78.058 107.719 76.162 107.719 73.211 L 107.719 56.152 L 110.275 56.152 Z " fill="rgb(0,193,242)"/><path d=" M 144.597 77.618 L 144.597 60.251 C 144.597 58.665 143.759 58.09 142.261 58.09 C 140.499 58.09 136.708 59.151 134.02 60.561 L 134.02 77.618 L 131.46 77.618 L 131.46 56.152 L 133.71 56.152 L 133.886 58.09 C 136.178 56.99 140.014 55.712 142.612 55.712 C 145.964 55.712 147.154 57.609 147.154 60.561 L 147.154 77.618 L 144.597 77.618 Z " fill="rgb(0,193,242)"/><path d=" M 153.852 77.618 L 153.852 63.302 L 156.409 63.302 L 156.409 77.618 L 153.852 77.618 Z  M 153.852 60.769 L 153.852 56.054 L 156.409 56.054 L 156.409 60.769 L 153.852 60.769 Z " fill="rgb(0,193,242)"/><path d=" M 172.752 77.618 L 168.831 77.618 L 161.556 56.152 L 164.159 56.152 L 170.769 75.81 L 177.426 56.152 L 180.024 56.152 L 172.752 77.618 Z " fill="rgb(0,193,242)"/><path d=" M 185.906 65.365 L 196.658 65.365 L 196.658 63.425 C 196.658 59.811 195.38 57.914 191.369 57.914 C 187.359 57.914 185.906 59.811 185.906 63.425 L 185.906 65.365 Z  M 191.503 75.81 C 193.704 75.81 196.176 75.371 198.289 74.797 L 198.731 76.868 C 196.747 77.573 193.925 78.058 191.323 78.058 C 185.285 78.058 183.35 74.929 183.35 70.258 L 183.35 63.514 C 183.35 59.107 185.332 55.712 191.369 55.712 C 197.407 55.712 199.173 59.107 199.173 63.514 L 199.173 67.656 L 185.906 67.656 L 185.906 70.344 C 185.906 74.178 187.227 75.81 191.503 75.81 Z " fill="rgb(0,193,242)"/><path d=" M 214.866 58.225 C 212.62 59.195 210.151 60.825 208.077 62.191 L 208.077 77.618 L 205.524 77.618 L 205.524 56.152 L 207.815 56.152 L 207.946 59.415 C 210.237 57.914 212.528 56.46 214.559 55.712 L 214.866 58.225 Z " fill="rgb(0,193,242)"/><path d=" M 225.5 78.058 C 223.339 78.058 220.786 77.618 219.197 76.957 L 219.636 74.886 C 221.487 75.456 223.735 75.767 225.322 75.767 C 229.288 75.767 230.083 75.016 230.083 72.285 C 230.083 69.198 229.996 68.891 225.104 67.744 C 219.726 66.465 219.286 65.144 219.286 61.222 C 219.286 57.653 221.004 55.712 226.291 55.712 C 228.276 55.712 230.698 55.975 232.374 56.46 L 232.109 58.62 C 230.391 58.27 227.881 58.003 226.115 58.003 C 222.369 58.003 221.842 58.976 221.842 61.309 C 221.842 64.262 222.017 64.569 225.981 65.586 C 232.284 67.171 232.639 68.183 232.639 72.196 C 232.639 76.075 231.229 78.058 225.5 78.058 Z " fill="rgb(0,193,242)"/><path d=" M 238.842 77.618 L 238.842 63.302 L 241.4 63.302 L 241.4 77.618 L 238.842 77.618 Z  M 238.842 60.769 L 238.842 56.054 L 241.4 56.054 L 241.4 60.769 L 238.842 60.769 Z " fill="rgb(0,193,242)"/><path d=" M 259.869 77.389 C 258.638 77.877 257.425 78.058 255.881 78.058 C 252.488 78.058 251.032 76.823 251.032 73.431 L 251.032 58.356 L 246.89 58.356 L 246.89 56.152 L 251.032 56.152 L 251.032 51.819 L 253.591 51.468 L 253.591 56.152 L 259.438 56.152 L 259.173 58.356 L 253.591 58.356 L 253.591 73.165 C 253.591 75.061 253.853 75.856 256.058 75.856 C 257.245 75.856 258.107 75.802 259.384 75.407 L 259.869 77.389 Z " fill="rgb(0,193,242)"/><path d=" M 266.044 65.365 L 276.801 65.365 L 276.801 63.425 C 276.801 59.811 275.52 57.914 271.51 57.914 C 267.5 57.914 266.044 59.811 266.044 63.425 L 266.044 65.365 Z  M 271.643 75.81 C 273.846 75.81 276.315 75.371 278.429 74.797 L 278.871 76.868 C 276.886 77.573 274.066 78.058 271.467 78.058 C 265.426 78.058 263.488 74.929 263.488 70.258 L 263.488 63.514 C 263.488 59.107 265.474 55.712 271.51 55.712 C 277.546 55.712 279.312 59.107 279.312 63.514 L 279.312 67.656 L 266.044 67.656 L 266.044 70.344 C 266.044 74.178 267.367 75.81 271.643 75.81 Z " fill="rgb(0,193,242)"/><path d=" M 268.724 52.202 C 270.702 51.564 273.034 50.791 275.249 49.941 L 276.013 52.135 C 273.843 52.996 271.431 53.704 269.431 54.246 L 268.724 52.202 Z " fill="rgb(0,193,242)"/><path d=" M 55.929 15.75 L 49.705 35.043 L 62.148 35.043 L 55.929 15.75 Z  M 70.722 47.33 L 66.173 47.33 L 63.298 38.964 L 48.503 38.964 L 45.679 47.33 L 41.134 47.33 L 52.896 12.512 L 58.959 12.512 L 70.722 47.33 Z " fill="rgb(55,53,53)"/><path d=" M 75.348 47.33 L 75.348 21.869 L 79.739 21.869 L 79.739 47.33 L 75.348 47.33 Z  M 75.348 17.789 L 75.348 11.463 L 79.739 11.463 L 79.739 17.789 L 75.348 17.789 Z " fill="rgb(55,53,53)"/><path d=" M 83.844 47.33 L 92.207 34.518 L 83.998 21.869 L 88.549 21.869 L 94.611 31.227 L 100.676 21.869 L 105.223 21.869 L 96.965 34.518 L 105.38 47.33 L 100.781 47.33 L 94.611 37.865 L 88.497 47.33 L 83.844 47.33 Z " fill="rgb(55,53,53)"/><path d=" M 139.984 19.097 L 139.306 47.33 L 134.968 47.33 L 136.169 12.512 L 141.869 12.512 L 151.903 39.434 L 161.942 12.512 L 167.64 12.512 L 168.842 47.33 L 164.504 47.33 L 163.823 19.097 L 154.938 42.831 L 148.873 42.831 L 139.984 19.097 Z " fill="rgb(55,53,53)"/><path d=" M 187.85 37.028 L 181.365 37.028 C 178.648 37.028 177.653 37.865 177.653 40.427 C 177.653 43.041 178.127 44.086 181.261 44.086 C 183.459 44.086 185.915 43.251 187.85 41.997 L 187.85 37.028 Z  M 192.238 47.33 L 188.528 47.33 L 188.265 45.444 C 186.019 47.015 183.091 47.85 180.008 47.85 C 175.25 47.85 173.264 45.028 173.264 40.531 C 173.264 35.252 175.929 33.369 181.055 33.369 L 187.85 33.369 L 187.85 29.396 C 187.85 26.206 186.438 25.108 182.308 25.108 C 179.852 25.108 177.472 25.355 175.487 25.772 L 175.015 22.27 C 177.416 21.642 179.852 21.345 182.569 21.345 C 189.835 21.345 192.238 24.168 192.238 29.605 L 192.238 47.33 Z " fill="rgb(55,53,53)"/><path d=" M 210.227 25.371 C 207.819 26.52 205.051 28.299 202.96 29.763 L 202.96 47.33 L 198.568 47.33 L 198.568 21.869 L 202.388 21.869 L 202.647 25.423 C 204.53 23.959 207.143 22.392 209.654 21.345 L 210.227 25.371 Z " fill="rgb(55,53,53)"/><path d=" M 221.219 47.85 C 218.604 47.85 215.154 47.276 213.115 46.492 L 213.692 43.041 C 215.885 43.668 218.761 44.086 220.958 44.086 C 224.982 44.086 225.661 43.355 225.661 40.637 C 225.661 37.92 225.453 37.603 220.329 36.349 C 214.004 34.78 213.431 33.473 213.431 28.195 C 213.431 23.488 215.521 21.345 222.211 21.345 C 224.67 21.345 227.335 21.659 229.426 22.234 L 229.111 25.843 C 226.971 25.423 224.147 25.108 222.054 25.108 C 218.293 25.108 217.768 25.998 217.768 28.299 C 217.768 31.123 217.821 31.644 222.107 32.69 C 229.426 34.518 230.001 35.409 230.001 40.481 C 230.001 45.444 228.485 47.85 221.219 47.85 Z " fill="rgb(55,53,53)"/><path d=" M 239.086 32.637 L 250.014 32.637 L 250.014 30.545 C 250.014 26.991 248.811 25.003 244.681 25.003 C 240.55 25.003 239.086 26.991 239.086 30.545 L 239.086 32.637 Z  M 245.151 44.086 C 247.659 44.086 250.43 43.618 253.201 42.883 L 253.776 46.388 C 251.373 47.276 247.975 47.85 244.786 47.85 C 237.258 47.85 234.695 44.243 234.695 38.494 L 234.695 30.86 C 234.695 25.58 237.101 21.345 244.681 21.345 C 252.207 21.345 254.249 25.684 254.249 30.964 L 254.249 36.297 L 239.086 36.297 L 239.086 38.44 C 239.086 42.467 240.183 44.086 245.151 44.086 Z " fill="rgb(55,53,53)"/><path d=" M 259.491 47.33 L 259.491 21.869 L 263.884 21.869 L 263.884 47.33 L 259.491 47.33 Z  M 259.491 17.789 L 259.491 11.463 L 263.884 11.463 L 263.884 17.789 L 259.491 17.789 Z " fill="rgb(55,53,53)"/><path d=" M 271.739 47.33 L 271.739 11.463 L 276.126 10.837 L 276.126 47.33 L 271.739 47.33 Z " fill="rgb(55,53,53)"/><path d=" M 283.983 47.33 L 283.983 11.463 L 288.376 10.837 L 288.376 47.33 L 283.983 47.33 Z " fill="rgb(55,53,53)"/><path d=" M 297.569 32.637 L 308.496 32.637 L 308.496 30.545 C 308.496 26.991 307.293 25.003 303.164 25.003 C 299.032 25.003 297.569 26.991 297.569 30.545 L 297.569 32.637 Z  M 303.635 44.086 C 306.142 44.086 308.912 43.618 311.684 42.883 L 312.257 46.388 C 309.854 47.276 306.455 47.85 303.266 47.85 C 295.738 47.85 293.179 44.243 293.179 38.494 L 293.179 30.86 C 293.179 25.58 295.582 21.345 303.164 21.345 C 310.691 21.345 312.73 25.684 312.73 30.964 L 312.73 36.297 L 297.569 36.297 L 297.569 38.44 C 297.569 42.467 298.666 44.086 303.635 44.086 Z " fill="rgb(55,53,53)"/><path d=" M 129.334 39.253 L 122.439 35.272 C 122.439 35.272 122.323 35.205 122.122 35.089 C 122.227 35.028 122.333 34.967 122.439 34.905 L 129.334 30.925 C 129.627 30.744 129.728 30.47 129.789 30.233 C 129.847 29.987 129.863 29.743 129.863 29.532 C 129.863 29.245 129.835 29.027 129.833 29.016 L 129.812 28.843 L 129.674 28.74 C 129.632 28.732 128.951 28.13 128.194 28.095 C 128.059 28.095 127.907 28.122 127.764 28.205 L 120.87 32.184 C 120.763 32.246 120.658 32.307 120.552 32.368 C 120.552 32.246 120.552 32.124 120.552 32.001 L 120.552 17.541 C 120.507 16.962 120.089 16.721 119.78 16.498 C 119.452 16.29 119.147 16.16 119.134 16.156 L 118.973 16.087 L 118.813 16.156 C 118.801 16.162 118.497 16.29 118.175 16.498 C 117.871 16.719 117.452 16.965 117.411 17.541 L 117.411 32.001 C 117.411 32.125 117.411 32.247 117.411 32.369 C 117.306 32.308 117.2 32.247 117.093 32.186 L 110.2 28.205 C 110.057 28.122 109.904 28.096 109.768 28.096 C 109.013 28.13 108.331 28.732 108.29 28.739 L 108.152 28.843 L 108.131 29.015 C 108.129 29.027 108.101 29.245 108.101 29.531 C 108.103 29.741 108.114 29.989 108.174 30.233 C 108.235 30.47 108.335 30.744 108.63 30.925 L 115.523 34.905 C 115.63 34.967 115.735 35.028 115.841 35.089 C 115.64 35.205 115.523 35.272 115.523 35.272 L 108.628 39.253 C 108.335 39.431 108.235 39.706 108.174 39.945 C 108.115 40.189 108.101 40.434 108.101 40.645 C 108.101 40.932 108.129 41.15 108.131 41.163 L 108.152 41.333 L 108.29 41.439 C 108.331 41.445 109.013 42.046 109.768 42.08 L 109.774 42.08 C 109.907 42.08 110.057 42.054 110.2 41.973 L 117.093 37.993 L 117.094 37.993 C 117.094 37.993 117.21 37.926 117.411 37.81 C 117.411 38.042 117.411 38.176 117.411 38.176 L 117.411 46.137 C 117.455 46.716 117.875 46.958 118.184 47.18 C 118.509 47.391 118.816 47.517 118.829 47.523 L 118.988 47.591 L 119.148 47.523 C 119.16 47.517 119.464 47.391 119.788 47.18 C 120.093 46.958 120.509 46.713 120.551 46.137 L 120.552 38.176 L 120.551 38.176 C 120.551 38.176 120.551 38.041 120.551 37.808 C 120.753 37.924 120.87 37.992 120.87 37.992 L 127.764 41.973 C 127.908 42.055 128.06 42.081 128.195 42.081 C 128.951 42.046 129.632 41.445 129.674 41.438 L 129.812 41.333 L 129.832 41.161 C 129.835 41.15 129.863 40.932 129.863 40.645 C 129.861 40.434 129.849 40.189 129.789 39.945 C 129.728 39.706 129.629 39.432 129.334 39.253 Z " fill="rgb(252,186,48)"/><path d=" M 0 53.55 C 0 47.943 0.482 42.693 1.451 37.808 C 2.417 32.924 3.881 28.112 5.852 23.375 C 7.82 18.64 10.255 13.896 13.152 9.138 C 14.897 6.241 16.444 4.22 17.554 2.87 C 18.699 1.475 19.913 0 21.585 0 C 23.407 0 24.316 0.501 24.316 1.504 C 24.316 1.841 23.462 3.853 21.752 7.551 C 20.043 11.247 18.437 15.121 16.933 19.167 C 15.427 23.219 14.034 28.272 12.758 34.326 C 11.471 40.381 10.833 46.791 10.833 53.55 C 10.833 60.237 11.462 66.571 12.727 72.555 C 13.989 78.533 15.778 83.718 17.395 88.1 C 19.012 92.483 20.276 96.413 21.891 99.886 C 23.508 103.359 24.316 105.244 24.316 105.54 C 24.316 106.544 23.407 107.045 21.585 107.045 C 19.877 107.045 18.706 105.338 17.554 104.038 C 16.402 102.735 14.936 100.658 13.152 97.795 C 10.216 92.893 7.792 88.166 5.879 83.615 C 3.965 79.063 2.511 74.336 1.507 69.43 C 0.501 64.528 0 59.234 0 53.55 Z " fill="rgb(0,125,195)"/><path d=" M 41.134 101.939 L 41.548 100.477 C 42.901 100.892 44.232 101.154 45.475 101.154 C 47.81 101.154 48.42 100.521 48.726 98.776 C 48.813 98.296 48.878 97.925 48.878 97.64 C 48.878 96.725 48.311 96.485 46.195 95.939 C 43.664 95.285 42.901 94.478 42.901 92.95 C 42.901 92.514 42.966 92.034 43.053 91.488 C 43.577 88.542 44.755 87.779 48.224 87.779 C 49.315 87.779 50.907 87.976 52.042 88.281 L 51.715 89.83 C 50.493 89.547 49.009 89.394 48.115 89.394 C 45.65 89.394 45.192 89.787 44.886 91.532 C 44.799 92.034 44.733 92.47 44.733 92.731 C 44.733 93.648 45.279 93.91 47.286 94.456 C 49.969 95.176 50.733 95.874 50.733 97.314 C 50.733 97.685 50.667 98.23 50.559 98.797 C 50.1 101.437 49.25 102.746 45.3 102.746 C 44.057 102.746 42.355 102.44 41.134 101.939 Z " fill="rgb(0,125,195)"/><path d=" M 65.041 95.59 C 65.084 95.35 65.106 95.132 65.106 94.958 C 65.106 93.801 64.43 93.233 62.925 93.233 C 61.179 93.233 60.263 94.063 59.98 95.721 L 59.434 98.797 C 59.194 100.258 59.543 101.197 61.529 101.197 C 63.361 101.197 64.19 100.411 64.474 98.819 L 65.041 95.59 Z  M 57.645 98.71 L 58.191 95.612 C 58.648 93.016 60.132 91.685 63.186 91.685 C 65.63 91.685 66.895 93.037 66.895 94.848 C 66.895 95.001 66.895 95.241 66.83 95.59 L 66.241 98.928 C 65.827 101.328 64.561 102.746 61.267 102.746 C 58.234 102.746 57.231 101.001 57.645 98.71 Z " fill="rgb(0,125,195)"/><path d=" M 80.571 93.605 C 79.829 93.365 79 93.233 78.302 93.233 C 76.579 93.233 75.924 93.822 75.553 95.829 L 74.855 99.801 C 74.833 99.953 74.812 100.106 74.812 100.258 C 74.812 100.935 75.161 101.197 76.077 101.197 C 77.037 101.197 78.302 100.892 79.371 100.477 L 79.611 101.939 C 78.542 102.419 77.255 102.746 75.88 102.746 C 73.873 102.746 73.023 101.808 73.023 100.368 C 73.023 100.215 73.044 99.909 73.11 99.539 L 73.808 95.59 C 74.331 92.645 75.575 91.685 78.389 91.685 C 79.175 91.685 80.2 91.859 80.964 92.165 L 80.571 93.605 Z " fill="rgb(0,125,195)"/><path d=" M 89.009 87.561 L 90.842 87.3 L 90.362 90.026 L 88.53 90.267 L 89.009 87.561 Z  M 88.224 92.034 L 90.057 91.771 L 88.159 102.528 L 86.37 102.528 L 88.224 92.034 Z " fill="rgb(0,125,195)"/><path d=" M 103.621 93.496 C 103.054 93.343 102.312 93.233 101.57 93.233 C 99.934 93.233 99.127 93.736 98.756 95.829 L 98.08 99.67 C 98.036 99.932 97.993 100.215 97.993 100.411 C 97.993 100.914 98.21 101.197 98.865 101.197 C 100.196 101.197 101.375 100.455 102.595 99.343 L 103.621 93.496 Z  M 103.818 102.528 L 102.334 102.528 L 102.4 101.241 C 101.221 102.288 99.782 102.746 98.429 102.746 C 96.793 102.746 96.182 101.852 96.182 100.63 C 96.182 100.368 96.225 100.084 96.269 99.801 L 97.01 95.59 C 97.469 93.016 98.429 91.685 101.789 91.685 C 103.097 91.685 104.559 92.011 105.606 92.405 L 103.818 102.528 Z " fill="rgb(0,125,195)"/><path d=" M 114.416 87.561 L 116.249 87.3 L 113.565 102.528 L 111.776 102.528 L 114.416 87.561 Z " fill="rgb(0,125,195)"/><path d=" M 128.439 94.281 C 128.439 93.582 127.916 93.147 126.956 93.147 C 125.297 93.147 124.534 93.757 124.229 95.481 L 123.967 96.943 C 124.556 96.768 124.905 96.659 125.93 96.354 C 127.697 95.829 128.439 95.153 128.439 94.281 Z  M 123.487 99.692 C 123.443 99.932 123.443 100.084 123.443 100.172 C 123.443 100.848 123.77 101.241 124.905 101.241 C 126.018 101.241 127.348 100.826 128.788 100.128 L 129.181 101.459 C 127.828 102.201 126.432 102.746 124.665 102.746 C 122.527 102.746 121.676 101.743 121.676 100.281 C 121.676 100.019 121.698 99.67 121.763 99.299 L 122.396 95.721 C 122.876 93.037 124.076 91.685 127.086 91.685 C 128.854 91.685 130.119 92.514 130.119 94.084 C 130.119 95.874 129.29 96.768 126.301 97.772 C 125.014 98.208 124.599 98.317 123.683 98.601 L 123.487 99.692 Z " fill="rgb(0,125,195)"/><path d=" M 150.077 94.346 C 150.098 94.216 150.12 94.063 150.12 93.976 C 150.12 93.539 149.902 93.387 149.378 93.387 C 148.309 93.387 146.542 94.216 145.386 94.979 L 144.055 102.528 L 142.266 102.528 L 143.706 94.346 C 143.728 94.216 143.75 94.063 143.75 93.976 C 143.75 93.539 143.532 93.387 143.008 93.387 C 141.939 93.387 140.303 94.172 138.994 94.979 L 137.663 102.528 L 135.874 102.528 L 137.729 92.034 L 139.299 91.771 L 139.168 93.277 C 140.215 92.536 142.397 91.685 143.663 91.685 C 144.863 91.685 145.451 92.296 145.539 93.277 C 146.695 92.47 148.767 91.685 150.033 91.685 C 151.364 91.685 151.931 92.405 151.931 93.561 C 151.931 93.801 151.909 94.128 151.844 94.478 L 150.425 102.528 L 148.636 102.528 L 150.077 94.346 Z " fill="rgb(0,125,195)"/><path d=" M 165.193 94.281 C 165.193 93.582 164.67 93.147 163.71 93.147 C 162.052 93.147 161.289 93.757 160.983 95.481 L 160.721 96.943 C 161.31 96.768 161.659 96.659 162.685 96.354 C 164.452 95.829 165.193 95.153 165.193 94.281 Z  M 160.241 99.692 C 160.198 99.932 160.198 100.084 160.198 100.172 C 160.198 100.848 160.526 101.241 161.659 101.241 C 162.772 101.241 164.103 100.826 165.543 100.128 L 165.935 101.459 C 164.583 102.201 163.186 102.746 161.419 102.746 C 159.281 102.746 158.431 101.743 158.431 100.281 C 158.431 100.019 158.453 99.67 158.518 99.299 L 159.15 95.721 C 159.63 93.037 160.831 91.685 163.841 91.685 C 165.608 91.685 166.874 92.514 166.874 94.084 C 166.874 95.874 166.044 96.768 163.056 97.772 C 161.768 98.208 161.354 98.317 160.438 98.601 L 160.241 99.692 Z " fill="rgb(0,125,195)"/><path d=" M 182.315 93.561 C 182.315 93.801 182.294 94.128 182.228 94.478 L 180.81 102.528 L 179.021 102.528 L 180.461 94.346 C 180.483 94.216 180.504 94.063 180.504 93.976 C 180.504 93.539 180.287 93.387 179.763 93.387 C 178.694 93.387 177.058 94.172 175.748 94.979 L 174.417 102.528 L 172.629 102.528 L 174.483 92.034 L 176.054 91.771 L 175.923 93.277 C 176.97 92.536 179.152 91.685 180.417 91.685 C 181.748 91.685 182.315 92.405 182.315 93.561 Z " fill="rgb(0,125,195)"/><path d=" M 189.577 101.044 C 189.577 100.957 189.577 100.804 189.62 100.564 L 190.886 93.387 L 189.009 93.387 L 189.271 91.903 L 191.148 91.903 L 191.606 89.285 L 193.439 89.045 L 192.937 91.903 L 195.86 91.903 L 195.555 93.387 L 192.675 93.387 L 191.409 100.543 C 191.387 100.674 191.387 100.717 191.387 100.783 C 191.387 101.088 191.562 101.241 191.998 101.241 C 192.588 101.241 193.22 101.109 193.962 100.783 L 194.377 102.026 C 193.46 102.485 192.544 102.746 191.496 102.746 C 190.188 102.746 189.577 102.005 189.577 101.044 Z " fill="rgb(0,125,195)"/><path d=" M 219.159 94.281 C 219.159 93.582 218.636 93.147 217.676 93.147 C 216.018 93.147 215.255 93.757 214.949 95.481 L 214.687 96.943 C 215.276 96.768 215.626 96.659 216.651 96.354 C 218.418 95.829 219.159 95.153 219.159 94.281 Z  M 214.207 99.692 C 214.164 99.932 214.164 100.084 214.164 100.172 C 214.164 100.848 214.491 101.241 215.626 101.241 C 216.737 101.241 218.069 100.826 219.509 100.128 L 219.901 101.459 C 218.549 102.201 217.153 102.746 215.386 102.746 C 213.247 102.746 212.397 101.743 212.397 100.281 C 212.397 100.019 212.419 99.67 212.483 99.299 L 213.116 95.721 C 213.596 93.037 214.796 91.685 217.807 91.685 C 219.575 91.685 220.839 92.514 220.839 94.084 C 220.839 95.874 220.01 96.768 217.022 97.772 C 215.735 98.208 215.32 98.317 214.404 98.601 L 214.207 99.692 Z " fill="rgb(0,125,195)"/><path d=" M 236.282 93.561 C 236.282 93.801 236.26 94.128 236.194 94.478 L 234.776 102.528 L 232.988 102.528 L 234.427 94.346 C 234.449 94.216 234.471 94.063 234.471 93.976 C 234.471 93.539 234.252 93.387 233.729 93.387 C 232.661 93.387 231.024 94.172 229.715 94.979 L 228.384 102.528 L 226.595 102.528 L 228.45 92.034 L 230.02 91.771 L 229.889 93.277 C 230.937 92.536 233.118 91.685 234.383 91.685 C 235.714 91.685 236.282 92.405 236.282 93.561 Z " fill="rgb(0,125,195)"/><path d=" M 250.219 93.517 C 249.652 93.365 248.822 93.233 248.081 93.233 C 246.314 93.233 245.637 93.779 245.266 95.874 L 244.655 99.278 C 244.612 99.539 244.568 99.779 244.568 99.975 C 244.568 100.477 244.787 100.76 245.441 100.76 C 246.575 100.76 248.102 99.997 249.237 99.038 L 250.219 93.517 Z  M 250.132 104.142 C 249.739 106.368 248.844 107.045 246.401 107.045 C 245.004 107.045 243.128 106.608 242.038 106.149 L 242.408 104.797 C 243.87 105.321 245.223 105.561 246.466 105.561 C 247.819 105.561 248.168 105.146 248.364 104.012 L 248.91 100.935 C 247.731 101.874 246.358 102.31 245.004 102.31 C 243.368 102.31 242.757 101.415 242.757 100.193 C 242.757 99.932 242.801 99.648 242.845 99.365 L 243.521 95.634 C 243.979 93.059 245.026 91.685 248.386 91.685 C 249.412 91.685 251.048 91.968 252.182 92.448 L 250.132 104.142 Z " fill="rgb(0,125,195)"/><path d=" M 265.88 93.496 C 265.312 93.343 264.57 93.233 263.829 93.233 C 262.193 93.233 261.385 93.736 261.015 95.829 L 260.338 99.67 C 260.294 99.932 260.251 100.215 260.251 100.411 C 260.251 100.914 260.469 101.197 261.123 101.197 C 262.454 101.197 263.632 100.455 264.854 99.343 L 265.88 93.496 Z  M 266.076 102.528 L 264.592 102.528 L 264.658 101.241 C 263.48 102.288 262.04 102.746 260.687 102.746 C 259.051 102.746 258.44 101.852 258.44 100.63 C 258.44 100.368 258.484 100.084 258.528 99.801 L 259.27 95.59 C 259.727 93.016 260.687 91.685 264.047 91.685 C 265.356 91.685 266.817 92.011 267.865 92.405 L 266.076 102.528 Z " fill="rgb(0,125,195)"/><path d=" M 281.627 93.517 C 281.06 93.365 280.231 93.233 279.49 93.233 C 277.722 93.233 277.046 93.779 276.675 95.874 L 276.064 99.278 C 276.021 99.539 275.977 99.779 275.977 99.975 C 275.977 100.477 276.196 100.76 276.849 100.76 C 277.984 100.76 279.511 99.997 280.646 99.038 L 281.627 93.517 Z  M 281.54 104.142 C 281.147 106.368 280.253 107.045 277.809 107.045 C 276.413 107.045 274.537 106.608 273.446 106.149 L 273.817 104.797 C 275.279 105.321 276.632 105.561 277.875 105.561 C 279.228 105.561 279.576 105.146 279.773 104.012 L 280.319 100.935 C 279.14 101.874 277.766 102.31 276.413 102.31 C 274.777 102.31 274.166 101.415 274.166 100.193 C 274.166 99.932 274.21 99.648 274.253 99.365 L 274.93 95.634 C 275.388 93.059 276.435 91.685 279.795 91.685 C 280.82 91.685 282.457 91.968 283.591 92.448 L 281.54 104.142 Z " fill="rgb(0,125,195)"/><path d=" M 294.125 89.394 C 295.172 88.87 296.241 88.259 297.354 87.474 L 298.03 88.674 C 296.94 89.438 296.154 89.873 294.757 90.529 L 294.125 89.394 Z  M 296.699 94.281 C 296.699 93.582 296.176 93.147 295.216 93.147 C 293.558 93.147 292.794 93.757 292.489 95.481 L 292.227 96.943 C 292.816 96.768 293.165 96.659 294.19 96.354 C 295.958 95.829 296.699 95.153 296.699 94.281 Z  M 291.747 99.692 C 291.704 99.932 291.704 100.084 291.704 100.172 C 291.704 100.848 292.03 101.241 293.165 101.241 C 294.277 101.241 295.608 100.826 297.049 100.128 L 297.441 101.459 C 296.089 102.201 294.692 102.746 292.926 102.746 C 290.787 102.746 289.936 101.743 289.936 100.281 C 289.936 100.019 289.958 99.67 290.023 99.299 L 290.656 95.721 C 291.136 93.037 292.336 91.685 295.347 91.685 C 297.114 91.685 298.379 92.514 298.379 94.084 C 298.379 95.874 297.55 96.768 294.562 97.772 C 293.275 98.208 292.86 98.317 291.943 98.601 L 291.747 99.692 Z " fill="rgb(0,125,195)"/><path d=" M 311.05 94.281 C 311.05 93.582 310.526 93.147 309.566 93.147 C 307.908 93.147 307.145 93.757 306.839 95.481 L 306.577 96.943 C 307.165 96.768 307.515 96.659 308.541 96.354 C 310.308 95.829 311.05 95.153 311.05 94.281 Z  M 306.097 99.692 C 306.054 99.932 306.054 100.084 306.054 100.172 C 306.054 100.848 306.38 101.241 307.515 101.241 C 308.627 101.241 309.959 100.826 311.399 100.128 L 311.791 101.459 C 310.439 102.201 309.043 102.746 307.275 102.746 C 305.137 102.746 304.287 101.743 304.287 100.281 C 304.287 100.019 304.309 99.67 304.373 99.299 L 305.006 95.721 C 305.486 93.037 306.686 91.685 309.697 91.685 C 311.464 91.685 312.73 92.514 312.73 94.084 C 312.73 95.874 311.9 96.768 308.912 97.772 C 307.624 98.208 307.21 98.317 306.294 98.601 L 306.097 99.692 Z " fill="rgb(0,125,195)"/></g></g></g></g></svg>